%TF.GenerationSoftware,KiCad,Pcbnew,10.0.4*%
%TF.CreationDate,2026-09-07T21:10:45+05:30*%
%TF.ProjectId,STM 32 RU First Prototype,53544d20-3332-4205-9255-204669727374,rev?*%
%TF.SameCoordinates,Original*%
%TF.FileFunction,Copper,L3,Inr*%
%TF.FilePolarity,Positive*%
%FSLAX46Y46*%
G04 Gerber Fmt 4.6, Leading zero omitted, Abs format (unit mm)*
G04 Created by KiCad (PCBNEW 10.0.4) date 2026-09-07 21:10:45*
%MOMM*%
%LPD*%
G01*
G04 APERTURE LIST*
G04 Aperture macros list*
%AMRoundRect*
0 Rectangle with rounded corners*
0 $1 Rounding radius*
0 $2 $3 $4 $5 $6 $7 $8 $9 X,Y pos of 4 corners*
0 Add a 4 corners polygon primitive as box body*
4,1,4,$2,$3,$4,$5,$6,$7,$8,$9,$2,$3,0*
0 Add four circle primitives for the rounded corners*
1,1,$1+$1,$2,$3*
1,1,$1+$1,$4,$5*
1,1,$1+$1,$6,$7*
1,1,$1+$1,$8,$9*
0 Add four rect primitives between the rounded corners*
20,1,$1+$1,$2,$3,$4,$5,0*
20,1,$1+$1,$4,$5,$6,$7,0*
20,1,$1+$1,$6,$7,$8,$9,0*
20,1,$1+$1,$8,$9,$2,$3,0*%
G04 Aperture macros list end*
%ADD10C,0.150000*%
%ADD11C,0.300000*%
%ADD12C,0.400000*%
%TA.AperFunction,HeatsinkPad*%
%ADD13O,2.100000X1.000000*%
%TD*%
%TA.AperFunction,HeatsinkPad*%
%ADD14O,1.800000X1.000000*%
%TD*%
%TA.AperFunction,ComponentPad*%
%ADD15RoundRect,0.760000X1.140000X-1.140000X1.140000X1.140000X-1.140000X1.140000X-1.140000X-1.140000X0*%
%TD*%
%TA.AperFunction,ComponentPad*%
%ADD16C,3.800000*%
%TD*%
%TA.AperFunction,ComponentPad*%
%ADD17RoundRect,0.250000X0.600000X0.750000X-0.600000X0.750000X-0.600000X-0.750000X0.600000X-0.750000X0*%
%TD*%
%TA.AperFunction,ComponentPad*%
%ADD18O,1.700000X2.000000*%
%TD*%
%TA.AperFunction,ComponentPad*%
%ADD19RoundRect,0.250000X-0.600000X-0.750000X0.600000X-0.750000X0.600000X0.750000X-0.600000X0.750000X0*%
%TD*%
%TA.AperFunction,ComponentPad*%
%ADD20RoundRect,0.760000X-1.140000X1.140000X-1.140000X-1.140000X1.140000X-1.140000X1.140000X1.140000X0*%
%TD*%
%TA.AperFunction,ComponentPad*%
%ADD21R,1.700000X1.700000*%
%TD*%
%TA.AperFunction,ComponentPad*%
%ADD22C,1.700000*%
%TD*%
%TA.AperFunction,ComponentPad*%
%ADD23R,1.800000X1.800000*%
%TD*%
%TA.AperFunction,ComponentPad*%
%ADD24C,1.800000*%
%TD*%
%TA.AperFunction,ViaPad*%
%ADD25C,0.600000*%
%TD*%
%TA.AperFunction,ViaPad*%
%ADD26C,1.000000*%
%TD*%
G04 APERTURE END LIST*
D10*
X177002200Y-166007200D02*
X285002200Y-166007200D01*
X285002200Y-198007200D01*
X177002200Y-198007200D01*
X177002200Y-166007200D01*
X10000000Y-10000000D02*
X287002200Y-10000000D01*
X287002200Y-200007200D01*
X10000000Y-200007200D01*
X10000000Y-10000000D01*
X12000000Y-12000000D02*
X285002200Y-12000000D01*
X285002200Y-198007200D01*
X12000000Y-198007200D01*
X12000000Y-12000000D01*
X60000000Y-12000000D02*
X60000000Y-10000000D01*
X110000000Y-12000000D02*
X110000000Y-10000000D01*
X160000000Y-12000000D02*
X160000000Y-10000000D01*
X210000000Y-12000000D02*
X210000000Y-10000000D01*
X260000000Y-12000000D02*
X260000000Y-10000000D01*
X36089160Y-11593604D02*
X35346303Y-11593604D01*
X35717731Y-11593604D02*
X35717731Y-10293604D01*
X35717731Y-10293604D02*
X35593922Y-10479319D01*
X35593922Y-10479319D02*
X35470112Y-10603128D01*
X35470112Y-10603128D02*
X35346303Y-10665033D01*
X85346303Y-10417414D02*
X85408207Y-10355509D01*
X85408207Y-10355509D02*
X85532017Y-10293604D01*
X85532017Y-10293604D02*
X85841541Y-10293604D01*
X85841541Y-10293604D02*
X85965350Y-10355509D01*
X85965350Y-10355509D02*
X86027255Y-10417414D01*
X86027255Y-10417414D02*
X86089160Y-10541223D01*
X86089160Y-10541223D02*
X86089160Y-10665033D01*
X86089160Y-10665033D02*
X86027255Y-10850747D01*
X86027255Y-10850747D02*
X85284398Y-11593604D01*
X85284398Y-11593604D02*
X86089160Y-11593604D01*
X135284398Y-10293604D02*
X136089160Y-10293604D01*
X136089160Y-10293604D02*
X135655826Y-10788842D01*
X135655826Y-10788842D02*
X135841541Y-10788842D01*
X135841541Y-10788842D02*
X135965350Y-10850747D01*
X135965350Y-10850747D02*
X136027255Y-10912652D01*
X136027255Y-10912652D02*
X136089160Y-11036461D01*
X136089160Y-11036461D02*
X136089160Y-11345985D01*
X136089160Y-11345985D02*
X136027255Y-11469795D01*
X136027255Y-11469795D02*
X135965350Y-11531700D01*
X135965350Y-11531700D02*
X135841541Y-11593604D01*
X135841541Y-11593604D02*
X135470112Y-11593604D01*
X135470112Y-11593604D02*
X135346303Y-11531700D01*
X135346303Y-11531700D02*
X135284398Y-11469795D01*
X185965350Y-10726938D02*
X185965350Y-11593604D01*
X185655826Y-10231700D02*
X185346303Y-11160271D01*
X185346303Y-11160271D02*
X186151064Y-11160271D01*
X236027255Y-10293604D02*
X235408207Y-10293604D01*
X235408207Y-10293604D02*
X235346303Y-10912652D01*
X235346303Y-10912652D02*
X235408207Y-10850747D01*
X235408207Y-10850747D02*
X235532017Y-10788842D01*
X235532017Y-10788842D02*
X235841541Y-10788842D01*
X235841541Y-10788842D02*
X235965350Y-10850747D01*
X235965350Y-10850747D02*
X236027255Y-10912652D01*
X236027255Y-10912652D02*
X236089160Y-11036461D01*
X236089160Y-11036461D02*
X236089160Y-11345985D01*
X236089160Y-11345985D02*
X236027255Y-11469795D01*
X236027255Y-11469795D02*
X235965350Y-11531700D01*
X235965350Y-11531700D02*
X235841541Y-11593604D01*
X235841541Y-11593604D02*
X235532017Y-11593604D01*
X235532017Y-11593604D02*
X235408207Y-11531700D01*
X235408207Y-11531700D02*
X235346303Y-11469795D01*
X285965350Y-10293604D02*
X285717731Y-10293604D01*
X285717731Y-10293604D02*
X285593922Y-10355509D01*
X285593922Y-10355509D02*
X285532017Y-10417414D01*
X285532017Y-10417414D02*
X285408207Y-10603128D01*
X285408207Y-10603128D02*
X285346303Y-10850747D01*
X285346303Y-10850747D02*
X285346303Y-11345985D01*
X285346303Y-11345985D02*
X285408207Y-11469795D01*
X285408207Y-11469795D02*
X285470112Y-11531700D01*
X285470112Y-11531700D02*
X285593922Y-11593604D01*
X285593922Y-11593604D02*
X285841541Y-11593604D01*
X285841541Y-11593604D02*
X285965350Y-11531700D01*
X285965350Y-11531700D02*
X286027255Y-11469795D01*
X286027255Y-11469795D02*
X286089160Y-11345985D01*
X286089160Y-11345985D02*
X286089160Y-11036461D01*
X286089160Y-11036461D02*
X286027255Y-10912652D01*
X286027255Y-10912652D02*
X285965350Y-10850747D01*
X285965350Y-10850747D02*
X285841541Y-10788842D01*
X285841541Y-10788842D02*
X285593922Y-10788842D01*
X285593922Y-10788842D02*
X285470112Y-10850747D01*
X285470112Y-10850747D02*
X285408207Y-10912652D01*
X285408207Y-10912652D02*
X285346303Y-11036461D01*
X60000000Y-198007200D02*
X60000000Y-200007200D01*
X110000000Y-198007200D02*
X110000000Y-200007200D01*
X160000000Y-198007200D02*
X160000000Y-200007200D01*
X210000000Y-198007200D02*
X210000000Y-200007200D01*
X260000000Y-198007200D02*
X260000000Y-200007200D01*
X36089160Y-199600804D02*
X35346303Y-199600804D01*
X35717731Y-199600804D02*
X35717731Y-198300804D01*
X35717731Y-198300804D02*
X35593922Y-198486519D01*
X35593922Y-198486519D02*
X35470112Y-198610328D01*
X35470112Y-198610328D02*
X35346303Y-198672233D01*
X85346303Y-198424614D02*
X85408207Y-198362709D01*
X85408207Y-198362709D02*
X85532017Y-198300804D01*
X85532017Y-198300804D02*
X85841541Y-198300804D01*
X85841541Y-198300804D02*
X85965350Y-198362709D01*
X85965350Y-198362709D02*
X86027255Y-198424614D01*
X86027255Y-198424614D02*
X86089160Y-198548423D01*
X86089160Y-198548423D02*
X86089160Y-198672233D01*
X86089160Y-198672233D02*
X86027255Y-198857947D01*
X86027255Y-198857947D02*
X85284398Y-199600804D01*
X85284398Y-199600804D02*
X86089160Y-199600804D01*
X135284398Y-198300804D02*
X136089160Y-198300804D01*
X136089160Y-198300804D02*
X135655826Y-198796042D01*
X135655826Y-198796042D02*
X135841541Y-198796042D01*
X135841541Y-198796042D02*
X135965350Y-198857947D01*
X135965350Y-198857947D02*
X136027255Y-198919852D01*
X136027255Y-198919852D02*
X136089160Y-199043661D01*
X136089160Y-199043661D02*
X136089160Y-199353185D01*
X136089160Y-199353185D02*
X136027255Y-199476995D01*
X136027255Y-199476995D02*
X135965350Y-199538900D01*
X135965350Y-199538900D02*
X135841541Y-199600804D01*
X135841541Y-199600804D02*
X135470112Y-199600804D01*
X135470112Y-199600804D02*
X135346303Y-199538900D01*
X135346303Y-199538900D02*
X135284398Y-199476995D01*
X185965350Y-198734138D02*
X185965350Y-199600804D01*
X185655826Y-198238900D02*
X185346303Y-199167471D01*
X185346303Y-199167471D02*
X186151064Y-199167471D01*
X236027255Y-198300804D02*
X235408207Y-198300804D01*
X235408207Y-198300804D02*
X235346303Y-198919852D01*
X235346303Y-198919852D02*
X235408207Y-198857947D01*
X235408207Y-198857947D02*
X235532017Y-198796042D01*
X235532017Y-198796042D02*
X235841541Y-198796042D01*
X235841541Y-198796042D02*
X235965350Y-198857947D01*
X235965350Y-198857947D02*
X236027255Y-198919852D01*
X236027255Y-198919852D02*
X236089160Y-199043661D01*
X236089160Y-199043661D02*
X236089160Y-199353185D01*
X236089160Y-199353185D02*
X236027255Y-199476995D01*
X236027255Y-199476995D02*
X235965350Y-199538900D01*
X235965350Y-199538900D02*
X235841541Y-199600804D01*
X235841541Y-199600804D02*
X235532017Y-199600804D01*
X235532017Y-199600804D02*
X235408207Y-199538900D01*
X235408207Y-199538900D02*
X235346303Y-199476995D01*
X285965350Y-198300804D02*
X285717731Y-198300804D01*
X285717731Y-198300804D02*
X285593922Y-198362709D01*
X285593922Y-198362709D02*
X285532017Y-198424614D01*
X285532017Y-198424614D02*
X285408207Y-198610328D01*
X285408207Y-198610328D02*
X285346303Y-198857947D01*
X285346303Y-198857947D02*
X285346303Y-199353185D01*
X285346303Y-199353185D02*
X285408207Y-199476995D01*
X285408207Y-199476995D02*
X285470112Y-199538900D01*
X285470112Y-199538900D02*
X285593922Y-199600804D01*
X285593922Y-199600804D02*
X285841541Y-199600804D01*
X285841541Y-199600804D02*
X285965350Y-199538900D01*
X285965350Y-199538900D02*
X286027255Y-199476995D01*
X286027255Y-199476995D02*
X286089160Y-199353185D01*
X286089160Y-199353185D02*
X286089160Y-199043661D01*
X286089160Y-199043661D02*
X286027255Y-198919852D01*
X286027255Y-198919852D02*
X285965350Y-198857947D01*
X285965350Y-198857947D02*
X285841541Y-198796042D01*
X285841541Y-198796042D02*
X285593922Y-198796042D01*
X285593922Y-198796042D02*
X285470112Y-198857947D01*
X285470112Y-198857947D02*
X285408207Y-198919852D01*
X285408207Y-198919852D02*
X285346303Y-199043661D01*
X10000000Y-60000000D02*
X12000000Y-60000000D01*
X10000000Y-110000000D02*
X12000000Y-110000000D01*
X10000000Y-160000000D02*
X12000000Y-160000000D01*
X10690476Y-35222176D02*
X11309523Y-35222176D01*
X10566666Y-35593604D02*
X10999999Y-34293604D01*
X10999999Y-34293604D02*
X11433333Y-35593604D01*
X11092857Y-84912652D02*
X11278571Y-84974557D01*
X11278571Y-84974557D02*
X11340476Y-85036461D01*
X11340476Y-85036461D02*
X11402380Y-85160271D01*
X11402380Y-85160271D02*
X11402380Y-85345985D01*
X11402380Y-85345985D02*
X11340476Y-85469795D01*
X11340476Y-85469795D02*
X11278571Y-85531700D01*
X11278571Y-85531700D02*
X11154761Y-85593604D01*
X11154761Y-85593604D02*
X10659523Y-85593604D01*
X10659523Y-85593604D02*
X10659523Y-84293604D01*
X10659523Y-84293604D02*
X11092857Y-84293604D01*
X11092857Y-84293604D02*
X11216666Y-84355509D01*
X11216666Y-84355509D02*
X11278571Y-84417414D01*
X11278571Y-84417414D02*
X11340476Y-84541223D01*
X11340476Y-84541223D02*
X11340476Y-84665033D01*
X11340476Y-84665033D02*
X11278571Y-84788842D01*
X11278571Y-84788842D02*
X11216666Y-84850747D01*
X11216666Y-84850747D02*
X11092857Y-84912652D01*
X11092857Y-84912652D02*
X10659523Y-84912652D01*
X11402380Y-135469795D02*
X11340476Y-135531700D01*
X11340476Y-135531700D02*
X11154761Y-135593604D01*
X11154761Y-135593604D02*
X11030952Y-135593604D01*
X11030952Y-135593604D02*
X10845238Y-135531700D01*
X10845238Y-135531700D02*
X10721428Y-135407890D01*
X10721428Y-135407890D02*
X10659523Y-135284080D01*
X10659523Y-135284080D02*
X10597619Y-135036461D01*
X10597619Y-135036461D02*
X10597619Y-134850747D01*
X10597619Y-134850747D02*
X10659523Y-134603128D01*
X10659523Y-134603128D02*
X10721428Y-134479319D01*
X10721428Y-134479319D02*
X10845238Y-134355509D01*
X10845238Y-134355509D02*
X11030952Y-134293604D01*
X11030952Y-134293604D02*
X11154761Y-134293604D01*
X11154761Y-134293604D02*
X11340476Y-134355509D01*
X11340476Y-134355509D02*
X11402380Y-134417414D01*
X10659523Y-185593604D02*
X10659523Y-184293604D01*
X10659523Y-184293604D02*
X10969047Y-184293604D01*
X10969047Y-184293604D02*
X11154761Y-184355509D01*
X11154761Y-184355509D02*
X11278571Y-184479319D01*
X11278571Y-184479319D02*
X11340476Y-184603128D01*
X11340476Y-184603128D02*
X11402380Y-184850747D01*
X11402380Y-184850747D02*
X11402380Y-185036461D01*
X11402380Y-185036461D02*
X11340476Y-185284080D01*
X11340476Y-185284080D02*
X11278571Y-185407890D01*
X11278571Y-185407890D02*
X11154761Y-185531700D01*
X11154761Y-185531700D02*
X10969047Y-185593604D01*
X10969047Y-185593604D02*
X10659523Y-185593604D01*
X287002200Y-60000000D02*
X285002200Y-60000000D01*
X287002200Y-110000000D02*
X285002200Y-110000000D01*
X287002200Y-160000000D02*
X285002200Y-160000000D01*
X285692676Y-35222176D02*
X286311723Y-35222176D01*
X285568866Y-35593604D02*
X286002199Y-34293604D01*
X286002199Y-34293604D02*
X286435533Y-35593604D01*
X286095057Y-84912652D02*
X286280771Y-84974557D01*
X286280771Y-84974557D02*
X286342676Y-85036461D01*
X286342676Y-85036461D02*
X286404580Y-85160271D01*
X286404580Y-85160271D02*
X286404580Y-85345985D01*
X286404580Y-85345985D02*
X286342676Y-85469795D01*
X286342676Y-85469795D02*
X286280771Y-85531700D01*
X286280771Y-85531700D02*
X286156961Y-85593604D01*
X286156961Y-85593604D02*
X285661723Y-85593604D01*
X285661723Y-85593604D02*
X285661723Y-84293604D01*
X285661723Y-84293604D02*
X286095057Y-84293604D01*
X286095057Y-84293604D02*
X286218866Y-84355509D01*
X286218866Y-84355509D02*
X286280771Y-84417414D01*
X286280771Y-84417414D02*
X286342676Y-84541223D01*
X286342676Y-84541223D02*
X286342676Y-84665033D01*
X286342676Y-84665033D02*
X286280771Y-84788842D01*
X286280771Y-84788842D02*
X286218866Y-84850747D01*
X286218866Y-84850747D02*
X286095057Y-84912652D01*
X286095057Y-84912652D02*
X285661723Y-84912652D01*
X286404580Y-135469795D02*
X286342676Y-135531700D01*
X286342676Y-135531700D02*
X286156961Y-135593604D01*
X286156961Y-135593604D02*
X286033152Y-135593604D01*
X286033152Y-135593604D02*
X285847438Y-135531700D01*
X285847438Y-135531700D02*
X285723628Y-135407890D01*
X285723628Y-135407890D02*
X285661723Y-135284080D01*
X285661723Y-135284080D02*
X285599819Y-135036461D01*
X285599819Y-135036461D02*
X285599819Y-134850747D01*
X285599819Y-134850747D02*
X285661723Y-134603128D01*
X285661723Y-134603128D02*
X285723628Y-134479319D01*
X285723628Y-134479319D02*
X285847438Y-134355509D01*
X285847438Y-134355509D02*
X286033152Y-134293604D01*
X286033152Y-134293604D02*
X286156961Y-134293604D01*
X286156961Y-134293604D02*
X286342676Y-134355509D01*
X286342676Y-134355509D02*
X286404580Y-134417414D01*
X285661723Y-185593604D02*
X285661723Y-184293604D01*
X285661723Y-184293604D02*
X285971247Y-184293604D01*
X285971247Y-184293604D02*
X286156961Y-184355509D01*
X286156961Y-184355509D02*
X286280771Y-184479319D01*
X286280771Y-184479319D02*
X286342676Y-184603128D01*
X286342676Y-184603128D02*
X286404580Y-184850747D01*
X286404580Y-184850747D02*
X286404580Y-185036461D01*
X286404580Y-185036461D02*
X286342676Y-185284080D01*
X286342676Y-185284080D02*
X286280771Y-185407890D01*
X286280771Y-185407890D02*
X286156961Y-185531700D01*
X286156961Y-185531700D02*
X285971247Y-185593604D01*
X285971247Y-185593604D02*
X285661723Y-185593604D01*
X200458026Y-193793328D02*
X200458026Y-192293328D01*
X200458026Y-192293328D02*
X200815169Y-192293328D01*
X200815169Y-192293328D02*
X201029455Y-192364757D01*
X201029455Y-192364757D02*
X201172312Y-192507614D01*
X201172312Y-192507614D02*
X201243741Y-192650471D01*
X201243741Y-192650471D02*
X201315169Y-192936185D01*
X201315169Y-192936185D02*
X201315169Y-193150471D01*
X201315169Y-193150471D02*
X201243741Y-193436185D01*
X201243741Y-193436185D02*
X201172312Y-193579042D01*
X201172312Y-193579042D02*
X201029455Y-193721900D01*
X201029455Y-193721900D02*
X200815169Y-193793328D01*
X200815169Y-193793328D02*
X200458026Y-193793328D01*
X202600884Y-193793328D02*
X202600884Y-193007614D01*
X202600884Y-193007614D02*
X202529455Y-192864757D01*
X202529455Y-192864757D02*
X202386598Y-192793328D01*
X202386598Y-192793328D02*
X202100884Y-192793328D01*
X202100884Y-192793328D02*
X201958026Y-192864757D01*
X202600884Y-193721900D02*
X202458026Y-193793328D01*
X202458026Y-193793328D02*
X202100884Y-193793328D01*
X202100884Y-193793328D02*
X201958026Y-193721900D01*
X201958026Y-193721900D02*
X201886598Y-193579042D01*
X201886598Y-193579042D02*
X201886598Y-193436185D01*
X201886598Y-193436185D02*
X201958026Y-193293328D01*
X201958026Y-193293328D02*
X202100884Y-193221900D01*
X202100884Y-193221900D02*
X202458026Y-193221900D01*
X202458026Y-193221900D02*
X202600884Y-193150471D01*
X203100884Y-192793328D02*
X203672312Y-192793328D01*
X203315169Y-192293328D02*
X203315169Y-193579042D01*
X203315169Y-193579042D02*
X203386598Y-193721900D01*
X203386598Y-193721900D02*
X203529455Y-193793328D01*
X203529455Y-193793328D02*
X203672312Y-193793328D01*
X204743741Y-193721900D02*
X204600884Y-193793328D01*
X204600884Y-193793328D02*
X204315170Y-193793328D01*
X204315170Y-193793328D02*
X204172312Y-193721900D01*
X204172312Y-193721900D02*
X204100884Y-193579042D01*
X204100884Y-193579042D02*
X204100884Y-193007614D01*
X204100884Y-193007614D02*
X204172312Y-192864757D01*
X204172312Y-192864757D02*
X204315170Y-192793328D01*
X204315170Y-192793328D02*
X204600884Y-192793328D01*
X204600884Y-192793328D02*
X204743741Y-192864757D01*
X204743741Y-192864757D02*
X204815170Y-193007614D01*
X204815170Y-193007614D02*
X204815170Y-193150471D01*
X204815170Y-193150471D02*
X204100884Y-193293328D01*
X205458026Y-193650471D02*
X205529455Y-193721900D01*
X205529455Y-193721900D02*
X205458026Y-193793328D01*
X205458026Y-193793328D02*
X205386598Y-193721900D01*
X205386598Y-193721900D02*
X205458026Y-193650471D01*
X205458026Y-193650471D02*
X205458026Y-193793328D01*
X205458026Y-192864757D02*
X205529455Y-192936185D01*
X205529455Y-192936185D02*
X205458026Y-193007614D01*
X205458026Y-193007614D02*
X205386598Y-192936185D01*
X205386598Y-192936185D02*
X205458026Y-192864757D01*
X205458026Y-192864757D02*
X205458026Y-193007614D01*
X177002200Y-194507200D02*
X285002200Y-194507200D01*
X178458026Y-196593328D02*
X178458026Y-195093328D01*
X179315169Y-196593328D02*
X178672312Y-195736185D01*
X179315169Y-195093328D02*
X178458026Y-195950471D01*
X179958026Y-196593328D02*
X179958026Y-195593328D01*
X179958026Y-195093328D02*
X179886598Y-195164757D01*
X179886598Y-195164757D02*
X179958026Y-195236185D01*
X179958026Y-195236185D02*
X180029455Y-195164757D01*
X180029455Y-195164757D02*
X179958026Y-195093328D01*
X179958026Y-195093328D02*
X179958026Y-195236185D01*
X181529455Y-196450471D02*
X181458027Y-196521900D01*
X181458027Y-196521900D02*
X181243741Y-196593328D01*
X181243741Y-196593328D02*
X181100884Y-196593328D01*
X181100884Y-196593328D02*
X180886598Y-196521900D01*
X180886598Y-196521900D02*
X180743741Y-196379042D01*
X180743741Y-196379042D02*
X180672312Y-196236185D01*
X180672312Y-196236185D02*
X180600884Y-195950471D01*
X180600884Y-195950471D02*
X180600884Y-195736185D01*
X180600884Y-195736185D02*
X180672312Y-195450471D01*
X180672312Y-195450471D02*
X180743741Y-195307614D01*
X180743741Y-195307614D02*
X180886598Y-195164757D01*
X180886598Y-195164757D02*
X181100884Y-195093328D01*
X181100884Y-195093328D02*
X181243741Y-195093328D01*
X181243741Y-195093328D02*
X181458027Y-195164757D01*
X181458027Y-195164757D02*
X181529455Y-195236185D01*
X182815170Y-196593328D02*
X182815170Y-195807614D01*
X182815170Y-195807614D02*
X182743741Y-195664757D01*
X182743741Y-195664757D02*
X182600884Y-195593328D01*
X182600884Y-195593328D02*
X182315170Y-195593328D01*
X182315170Y-195593328D02*
X182172312Y-195664757D01*
X182815170Y-196521900D02*
X182672312Y-196593328D01*
X182672312Y-196593328D02*
X182315170Y-196593328D01*
X182315170Y-196593328D02*
X182172312Y-196521900D01*
X182172312Y-196521900D02*
X182100884Y-196379042D01*
X182100884Y-196379042D02*
X182100884Y-196236185D01*
X182100884Y-196236185D02*
X182172312Y-196093328D01*
X182172312Y-196093328D02*
X182315170Y-196021900D01*
X182315170Y-196021900D02*
X182672312Y-196021900D01*
X182672312Y-196021900D02*
X182815170Y-195950471D01*
X184172313Y-196593328D02*
X184172313Y-195093328D01*
X184172313Y-196521900D02*
X184029455Y-196593328D01*
X184029455Y-196593328D02*
X183743741Y-196593328D01*
X183743741Y-196593328D02*
X183600884Y-196521900D01*
X183600884Y-196521900D02*
X183529455Y-196450471D01*
X183529455Y-196450471D02*
X183458027Y-196307614D01*
X183458027Y-196307614D02*
X183458027Y-195879042D01*
X183458027Y-195879042D02*
X183529455Y-195736185D01*
X183529455Y-195736185D02*
X183600884Y-195664757D01*
X183600884Y-195664757D02*
X183743741Y-195593328D01*
X183743741Y-195593328D02*
X184029455Y-195593328D01*
X184029455Y-195593328D02*
X184172313Y-195664757D01*
X186029455Y-195807614D02*
X186529455Y-195807614D01*
X186743741Y-196593328D02*
X186029455Y-196593328D01*
X186029455Y-196593328D02*
X186029455Y-195093328D01*
X186029455Y-195093328D02*
X186743741Y-195093328D01*
X187386598Y-196450471D02*
X187458027Y-196521900D01*
X187458027Y-196521900D02*
X187386598Y-196593328D01*
X187386598Y-196593328D02*
X187315170Y-196521900D01*
X187315170Y-196521900D02*
X187386598Y-196450471D01*
X187386598Y-196450471D02*
X187386598Y-196593328D01*
X188100884Y-196593328D02*
X188100884Y-195093328D01*
X188100884Y-195093328D02*
X188458027Y-195093328D01*
X188458027Y-195093328D02*
X188672313Y-195164757D01*
X188672313Y-195164757D02*
X188815170Y-195307614D01*
X188815170Y-195307614D02*
X188886599Y-195450471D01*
X188886599Y-195450471D02*
X188958027Y-195736185D01*
X188958027Y-195736185D02*
X188958027Y-195950471D01*
X188958027Y-195950471D02*
X188886599Y-196236185D01*
X188886599Y-196236185D02*
X188815170Y-196379042D01*
X188815170Y-196379042D02*
X188672313Y-196521900D01*
X188672313Y-196521900D02*
X188458027Y-196593328D01*
X188458027Y-196593328D02*
X188100884Y-196593328D01*
X189600884Y-196450471D02*
X189672313Y-196521900D01*
X189672313Y-196521900D02*
X189600884Y-196593328D01*
X189600884Y-196593328D02*
X189529456Y-196521900D01*
X189529456Y-196521900D02*
X189600884Y-196450471D01*
X189600884Y-196450471D02*
X189600884Y-196593328D01*
X190243742Y-196164757D02*
X190958028Y-196164757D01*
X190100885Y-196593328D02*
X190600885Y-195093328D01*
X190600885Y-195093328D02*
X191100885Y-196593328D01*
X191600884Y-196450471D02*
X191672313Y-196521900D01*
X191672313Y-196521900D02*
X191600884Y-196593328D01*
X191600884Y-196593328D02*
X191529456Y-196521900D01*
X191529456Y-196521900D02*
X191600884Y-196450471D01*
X191600884Y-196450471D02*
X191600884Y-196593328D01*
X194243742Y-196593328D02*
X193386599Y-196593328D01*
X193815170Y-196593328D02*
X193815170Y-195093328D01*
X193815170Y-195093328D02*
X193672313Y-195307614D01*
X193672313Y-195307614D02*
X193529456Y-195450471D01*
X193529456Y-195450471D02*
X193386599Y-195521900D01*
X195172313Y-195093328D02*
X195315170Y-195093328D01*
X195315170Y-195093328D02*
X195458027Y-195164757D01*
X195458027Y-195164757D02*
X195529456Y-195236185D01*
X195529456Y-195236185D02*
X195600884Y-195379042D01*
X195600884Y-195379042D02*
X195672313Y-195664757D01*
X195672313Y-195664757D02*
X195672313Y-196021900D01*
X195672313Y-196021900D02*
X195600884Y-196307614D01*
X195600884Y-196307614D02*
X195529456Y-196450471D01*
X195529456Y-196450471D02*
X195458027Y-196521900D01*
X195458027Y-196521900D02*
X195315170Y-196593328D01*
X195315170Y-196593328D02*
X195172313Y-196593328D01*
X195172313Y-196593328D02*
X195029456Y-196521900D01*
X195029456Y-196521900D02*
X194958027Y-196450471D01*
X194958027Y-196450471D02*
X194886598Y-196307614D01*
X194886598Y-196307614D02*
X194815170Y-196021900D01*
X194815170Y-196021900D02*
X194815170Y-195664757D01*
X194815170Y-195664757D02*
X194886598Y-195379042D01*
X194886598Y-195379042D02*
X194958027Y-195236185D01*
X194958027Y-195236185D02*
X195029456Y-195164757D01*
X195029456Y-195164757D02*
X195172313Y-195093328D01*
X196315169Y-196450471D02*
X196386598Y-196521900D01*
X196386598Y-196521900D02*
X196315169Y-196593328D01*
X196315169Y-196593328D02*
X196243741Y-196521900D01*
X196243741Y-196521900D02*
X196315169Y-196450471D01*
X196315169Y-196450471D02*
X196315169Y-196593328D01*
X197315170Y-195093328D02*
X197458027Y-195093328D01*
X197458027Y-195093328D02*
X197600884Y-195164757D01*
X197600884Y-195164757D02*
X197672313Y-195236185D01*
X197672313Y-195236185D02*
X197743741Y-195379042D01*
X197743741Y-195379042D02*
X197815170Y-195664757D01*
X197815170Y-195664757D02*
X197815170Y-196021900D01*
X197815170Y-196021900D02*
X197743741Y-196307614D01*
X197743741Y-196307614D02*
X197672313Y-196450471D01*
X197672313Y-196450471D02*
X197600884Y-196521900D01*
X197600884Y-196521900D02*
X197458027Y-196593328D01*
X197458027Y-196593328D02*
X197315170Y-196593328D01*
X197315170Y-196593328D02*
X197172313Y-196521900D01*
X197172313Y-196521900D02*
X197100884Y-196450471D01*
X197100884Y-196450471D02*
X197029455Y-196307614D01*
X197029455Y-196307614D02*
X196958027Y-196021900D01*
X196958027Y-196021900D02*
X196958027Y-195664757D01*
X196958027Y-195664757D02*
X197029455Y-195379042D01*
X197029455Y-195379042D02*
X197100884Y-195236185D01*
X197100884Y-195236185D02*
X197172313Y-195164757D01*
X197172313Y-195164757D02*
X197315170Y-195093328D01*
X198458026Y-196450471D02*
X198529455Y-196521900D01*
X198529455Y-196521900D02*
X198458026Y-196593328D01*
X198458026Y-196593328D02*
X198386598Y-196521900D01*
X198386598Y-196521900D02*
X198458026Y-196450471D01*
X198458026Y-196450471D02*
X198458026Y-196593328D01*
X199815170Y-195593328D02*
X199815170Y-196593328D01*
X199458027Y-195021900D02*
X199100884Y-196093328D01*
X199100884Y-196093328D02*
X200029455Y-196093328D01*
X177002200Y-191507200D02*
X285002200Y-191507200D01*
D11*
X264413853Y-193785528D02*
X263913853Y-193071242D01*
X263556710Y-193785528D02*
X263556710Y-192285528D01*
X263556710Y-192285528D02*
X264128139Y-192285528D01*
X264128139Y-192285528D02*
X264270996Y-192356957D01*
X264270996Y-192356957D02*
X264342425Y-192428385D01*
X264342425Y-192428385D02*
X264413853Y-192571242D01*
X264413853Y-192571242D02*
X264413853Y-192785528D01*
X264413853Y-192785528D02*
X264342425Y-192928385D01*
X264342425Y-192928385D02*
X264270996Y-192999814D01*
X264270996Y-192999814D02*
X264128139Y-193071242D01*
X264128139Y-193071242D02*
X263556710Y-193071242D01*
X265628139Y-193714100D02*
X265485282Y-193785528D01*
X265485282Y-193785528D02*
X265199568Y-193785528D01*
X265199568Y-193785528D02*
X265056710Y-193714100D01*
X265056710Y-193714100D02*
X264985282Y-193571242D01*
X264985282Y-193571242D02*
X264985282Y-192999814D01*
X264985282Y-192999814D02*
X265056710Y-192856957D01*
X265056710Y-192856957D02*
X265199568Y-192785528D01*
X265199568Y-192785528D02*
X265485282Y-192785528D01*
X265485282Y-192785528D02*
X265628139Y-192856957D01*
X265628139Y-192856957D02*
X265699568Y-192999814D01*
X265699568Y-192999814D02*
X265699568Y-193142671D01*
X265699568Y-193142671D02*
X264985282Y-193285528D01*
X266199567Y-192785528D02*
X266556710Y-193785528D01*
X266556710Y-193785528D02*
X266913853Y-192785528D01*
X267485281Y-193642671D02*
X267556710Y-193714100D01*
X267556710Y-193714100D02*
X267485281Y-193785528D01*
X267485281Y-193785528D02*
X267413853Y-193714100D01*
X267413853Y-193714100D02*
X267485281Y-193642671D01*
X267485281Y-193642671D02*
X267485281Y-193785528D01*
X267485281Y-192856957D02*
X267556710Y-192928385D01*
X267556710Y-192928385D02*
X267485281Y-192999814D01*
X267485281Y-192999814D02*
X267413853Y-192928385D01*
X267413853Y-192928385D02*
X267485281Y-192856957D01*
X267485281Y-192856957D02*
X267485281Y-192999814D01*
D10*
X178386598Y-193721900D02*
X178600884Y-193793328D01*
X178600884Y-193793328D02*
X178958026Y-193793328D01*
X178958026Y-193793328D02*
X179100884Y-193721900D01*
X179100884Y-193721900D02*
X179172312Y-193650471D01*
X179172312Y-193650471D02*
X179243741Y-193507614D01*
X179243741Y-193507614D02*
X179243741Y-193364757D01*
X179243741Y-193364757D02*
X179172312Y-193221900D01*
X179172312Y-193221900D02*
X179100884Y-193150471D01*
X179100884Y-193150471D02*
X178958026Y-193079042D01*
X178958026Y-193079042D02*
X178672312Y-193007614D01*
X178672312Y-193007614D02*
X178529455Y-192936185D01*
X178529455Y-192936185D02*
X178458026Y-192864757D01*
X178458026Y-192864757D02*
X178386598Y-192721900D01*
X178386598Y-192721900D02*
X178386598Y-192579042D01*
X178386598Y-192579042D02*
X178458026Y-192436185D01*
X178458026Y-192436185D02*
X178529455Y-192364757D01*
X178529455Y-192364757D02*
X178672312Y-192293328D01*
X178672312Y-192293328D02*
X179029455Y-192293328D01*
X179029455Y-192293328D02*
X179243741Y-192364757D01*
X179886597Y-193793328D02*
X179886597Y-192793328D01*
X179886597Y-192293328D02*
X179815169Y-192364757D01*
X179815169Y-192364757D02*
X179886597Y-192436185D01*
X179886597Y-192436185D02*
X179958026Y-192364757D01*
X179958026Y-192364757D02*
X179886597Y-192293328D01*
X179886597Y-192293328D02*
X179886597Y-192436185D01*
X180458026Y-192793328D02*
X181243741Y-192793328D01*
X181243741Y-192793328D02*
X180458026Y-193793328D01*
X180458026Y-193793328D02*
X181243741Y-193793328D01*
X182386598Y-193721900D02*
X182243741Y-193793328D01*
X182243741Y-193793328D02*
X181958027Y-193793328D01*
X181958027Y-193793328D02*
X181815169Y-193721900D01*
X181815169Y-193721900D02*
X181743741Y-193579042D01*
X181743741Y-193579042D02*
X181743741Y-193007614D01*
X181743741Y-193007614D02*
X181815169Y-192864757D01*
X181815169Y-192864757D02*
X181958027Y-192793328D01*
X181958027Y-192793328D02*
X182243741Y-192793328D01*
X182243741Y-192793328D02*
X182386598Y-192864757D01*
X182386598Y-192864757D02*
X182458027Y-193007614D01*
X182458027Y-193007614D02*
X182458027Y-193150471D01*
X182458027Y-193150471D02*
X181743741Y-193293328D01*
X183100883Y-193650471D02*
X183172312Y-193721900D01*
X183172312Y-193721900D02*
X183100883Y-193793328D01*
X183100883Y-193793328D02*
X183029455Y-193721900D01*
X183029455Y-193721900D02*
X183100883Y-193650471D01*
X183100883Y-193650471D02*
X183100883Y-193793328D01*
X183100883Y-192864757D02*
X183172312Y-192936185D01*
X183172312Y-192936185D02*
X183100883Y-193007614D01*
X183100883Y-193007614D02*
X183029455Y-192936185D01*
X183029455Y-192936185D02*
X183100883Y-192864757D01*
X183100883Y-192864757D02*
X183100883Y-193007614D01*
X184886598Y-193364757D02*
X185600884Y-193364757D01*
X184743741Y-193793328D02*
X185243741Y-192293328D01*
X185243741Y-192293328D02*
X185743741Y-193793328D01*
X186886598Y-192793328D02*
X186886598Y-193793328D01*
X186529455Y-192221900D02*
X186172312Y-193293328D01*
X186172312Y-193293328D02*
X187100883Y-193293328D01*
X263458026Y-196593328D02*
X263458026Y-195093328D01*
X264815170Y-196593328D02*
X264815170Y-195093328D01*
X264815170Y-196521900D02*
X264672312Y-196593328D01*
X264672312Y-196593328D02*
X264386598Y-196593328D01*
X264386598Y-196593328D02*
X264243741Y-196521900D01*
X264243741Y-196521900D02*
X264172312Y-196450471D01*
X264172312Y-196450471D02*
X264100884Y-196307614D01*
X264100884Y-196307614D02*
X264100884Y-195879042D01*
X264100884Y-195879042D02*
X264172312Y-195736185D01*
X264172312Y-195736185D02*
X264243741Y-195664757D01*
X264243741Y-195664757D02*
X264386598Y-195593328D01*
X264386598Y-195593328D02*
X264672312Y-195593328D01*
X264672312Y-195593328D02*
X264815170Y-195664757D01*
X265529455Y-196450471D02*
X265600884Y-196521900D01*
X265600884Y-196521900D02*
X265529455Y-196593328D01*
X265529455Y-196593328D02*
X265458027Y-196521900D01*
X265458027Y-196521900D02*
X265529455Y-196450471D01*
X265529455Y-196450471D02*
X265529455Y-196593328D01*
X265529455Y-195664757D02*
X265600884Y-195736185D01*
X265600884Y-195736185D02*
X265529455Y-195807614D01*
X265529455Y-195807614D02*
X265458027Y-195736185D01*
X265458027Y-195736185D02*
X265529455Y-195664757D01*
X265529455Y-195664757D02*
X265529455Y-195807614D01*
X267243741Y-195093328D02*
X268172313Y-195093328D01*
X268172313Y-195093328D02*
X267672313Y-195664757D01*
X267672313Y-195664757D02*
X267886598Y-195664757D01*
X267886598Y-195664757D02*
X268029456Y-195736185D01*
X268029456Y-195736185D02*
X268100884Y-195807614D01*
X268100884Y-195807614D02*
X268172313Y-195950471D01*
X268172313Y-195950471D02*
X268172313Y-196307614D01*
X268172313Y-196307614D02*
X268100884Y-196450471D01*
X268100884Y-196450471D02*
X268029456Y-196521900D01*
X268029456Y-196521900D02*
X267886598Y-196593328D01*
X267886598Y-196593328D02*
X267458027Y-196593328D01*
X267458027Y-196593328D02*
X267315170Y-196521900D01*
X267315170Y-196521900D02*
X267243741Y-196450471D01*
X269886598Y-195021900D02*
X268600884Y-196950471D01*
X271172313Y-196593328D02*
X270315170Y-196593328D01*
X270743741Y-196593328D02*
X270743741Y-195093328D01*
X270743741Y-195093328D02*
X270600884Y-195307614D01*
X270600884Y-195307614D02*
X270458027Y-195450471D01*
X270458027Y-195450471D02*
X270315170Y-195521900D01*
X272600884Y-196593328D02*
X271743741Y-196593328D01*
X272172312Y-196593328D02*
X272172312Y-195093328D01*
X272172312Y-195093328D02*
X272029455Y-195307614D01*
X272029455Y-195307614D02*
X271886598Y-195450471D01*
X271886598Y-195450471D02*
X271743741Y-195521900D01*
X177002200Y-187507200D02*
X285002200Y-187507200D01*
D12*
X178693928Y-188211638D02*
X179836785Y-188211638D01*
X179015357Y-190211638D02*
X179265357Y-188211638D01*
X180253452Y-190211638D02*
X180420119Y-188878304D01*
X180503452Y-188211638D02*
X180396309Y-188306876D01*
X180396309Y-188306876D02*
X180479643Y-188402114D01*
X180479643Y-188402114D02*
X180586786Y-188306876D01*
X180586786Y-188306876D02*
X180503452Y-188211638D01*
X180503452Y-188211638D02*
X180479643Y-188402114D01*
X181086786Y-188878304D02*
X181848690Y-188878304D01*
X181455833Y-188211638D02*
X181241548Y-189925923D01*
X181241548Y-189925923D02*
X181312976Y-190116400D01*
X181312976Y-190116400D02*
X181491548Y-190211638D01*
X181491548Y-190211638D02*
X181682024Y-190211638D01*
X182634405Y-190211638D02*
X182455833Y-190116400D01*
X182455833Y-190116400D02*
X182384405Y-189925923D01*
X182384405Y-189925923D02*
X182598690Y-188211638D01*
X184170119Y-190116400D02*
X183967738Y-190211638D01*
X183967738Y-190211638D02*
X183586785Y-190211638D01*
X183586785Y-190211638D02*
X183408214Y-190116400D01*
X183408214Y-190116400D02*
X183336785Y-189925923D01*
X183336785Y-189925923D02*
X183432024Y-189164019D01*
X183432024Y-189164019D02*
X183551071Y-188973542D01*
X183551071Y-188973542D02*
X183753452Y-188878304D01*
X183753452Y-188878304D02*
X184134404Y-188878304D01*
X184134404Y-188878304D02*
X184312976Y-188973542D01*
X184312976Y-188973542D02*
X184384404Y-189164019D01*
X184384404Y-189164019D02*
X184360595Y-189354495D01*
X184360595Y-189354495D02*
X183384404Y-189544971D01*
X185134405Y-190021161D02*
X185217738Y-190116400D01*
X185217738Y-190116400D02*
X185110595Y-190211638D01*
X185110595Y-190211638D02*
X185027262Y-190116400D01*
X185027262Y-190116400D02*
X185134405Y-190021161D01*
X185134405Y-190021161D02*
X185110595Y-190211638D01*
X185265357Y-188973542D02*
X185348690Y-189068780D01*
X185348690Y-189068780D02*
X185241548Y-189164019D01*
X185241548Y-189164019D02*
X185158214Y-189068780D01*
X185158214Y-189068780D02*
X185265357Y-188973542D01*
X185265357Y-188973542D02*
X185241548Y-189164019D01*
D10*
X178958026Y-185607614D02*
X178458026Y-185607614D01*
X178458026Y-186393328D02*
X178458026Y-184893328D01*
X178458026Y-184893328D02*
X179172312Y-184893328D01*
X179743740Y-186393328D02*
X179743740Y-185393328D01*
X179743740Y-184893328D02*
X179672312Y-184964757D01*
X179672312Y-184964757D02*
X179743740Y-185036185D01*
X179743740Y-185036185D02*
X179815169Y-184964757D01*
X179815169Y-184964757D02*
X179743740Y-184893328D01*
X179743740Y-184893328D02*
X179743740Y-185036185D01*
X180672312Y-186393328D02*
X180529455Y-186321900D01*
X180529455Y-186321900D02*
X180458026Y-186179042D01*
X180458026Y-186179042D02*
X180458026Y-184893328D01*
X181815169Y-186321900D02*
X181672312Y-186393328D01*
X181672312Y-186393328D02*
X181386598Y-186393328D01*
X181386598Y-186393328D02*
X181243740Y-186321900D01*
X181243740Y-186321900D02*
X181172312Y-186179042D01*
X181172312Y-186179042D02*
X181172312Y-185607614D01*
X181172312Y-185607614D02*
X181243740Y-185464757D01*
X181243740Y-185464757D02*
X181386598Y-185393328D01*
X181386598Y-185393328D02*
X181672312Y-185393328D01*
X181672312Y-185393328D02*
X181815169Y-185464757D01*
X181815169Y-185464757D02*
X181886598Y-185607614D01*
X181886598Y-185607614D02*
X181886598Y-185750471D01*
X181886598Y-185750471D02*
X181172312Y-185893328D01*
X182529454Y-186250471D02*
X182600883Y-186321900D01*
X182600883Y-186321900D02*
X182529454Y-186393328D01*
X182529454Y-186393328D02*
X182458026Y-186321900D01*
X182458026Y-186321900D02*
X182529454Y-186250471D01*
X182529454Y-186250471D02*
X182529454Y-186393328D01*
X182529454Y-185464757D02*
X182600883Y-185536185D01*
X182600883Y-185536185D02*
X182529454Y-185607614D01*
X182529454Y-185607614D02*
X182458026Y-185536185D01*
X182458026Y-185536185D02*
X182529454Y-185464757D01*
X182529454Y-185464757D02*
X182529454Y-185607614D01*
X184315169Y-186321900D02*
X184529455Y-186393328D01*
X184529455Y-186393328D02*
X184886597Y-186393328D01*
X184886597Y-186393328D02*
X185029455Y-186321900D01*
X185029455Y-186321900D02*
X185100883Y-186250471D01*
X185100883Y-186250471D02*
X185172312Y-186107614D01*
X185172312Y-186107614D02*
X185172312Y-185964757D01*
X185172312Y-185964757D02*
X185100883Y-185821900D01*
X185100883Y-185821900D02*
X185029455Y-185750471D01*
X185029455Y-185750471D02*
X184886597Y-185679042D01*
X184886597Y-185679042D02*
X184600883Y-185607614D01*
X184600883Y-185607614D02*
X184458026Y-185536185D01*
X184458026Y-185536185D02*
X184386597Y-185464757D01*
X184386597Y-185464757D02*
X184315169Y-185321900D01*
X184315169Y-185321900D02*
X184315169Y-185179042D01*
X184315169Y-185179042D02*
X184386597Y-185036185D01*
X184386597Y-185036185D02*
X184458026Y-184964757D01*
X184458026Y-184964757D02*
X184600883Y-184893328D01*
X184600883Y-184893328D02*
X184958026Y-184893328D01*
X184958026Y-184893328D02*
X185172312Y-184964757D01*
X185600883Y-184893328D02*
X186458026Y-184893328D01*
X186029454Y-186393328D02*
X186029454Y-184893328D01*
X186958025Y-186393328D02*
X186958025Y-184893328D01*
X186958025Y-184893328D02*
X187458025Y-185964757D01*
X187458025Y-185964757D02*
X187958025Y-184893328D01*
X187958025Y-184893328D02*
X187958025Y-186393328D01*
X189672311Y-184893328D02*
X190600883Y-184893328D01*
X190600883Y-184893328D02*
X190100883Y-185464757D01*
X190100883Y-185464757D02*
X190315168Y-185464757D01*
X190315168Y-185464757D02*
X190458026Y-185536185D01*
X190458026Y-185536185D02*
X190529454Y-185607614D01*
X190529454Y-185607614D02*
X190600883Y-185750471D01*
X190600883Y-185750471D02*
X190600883Y-186107614D01*
X190600883Y-186107614D02*
X190529454Y-186250471D01*
X190529454Y-186250471D02*
X190458026Y-186321900D01*
X190458026Y-186321900D02*
X190315168Y-186393328D01*
X190315168Y-186393328D02*
X189886597Y-186393328D01*
X189886597Y-186393328D02*
X189743740Y-186321900D01*
X189743740Y-186321900D02*
X189672311Y-186250471D01*
X191172311Y-185036185D02*
X191243739Y-184964757D01*
X191243739Y-184964757D02*
X191386597Y-184893328D01*
X191386597Y-184893328D02*
X191743739Y-184893328D01*
X191743739Y-184893328D02*
X191886597Y-184964757D01*
X191886597Y-184964757D02*
X191958025Y-185036185D01*
X191958025Y-185036185D02*
X192029454Y-185179042D01*
X192029454Y-185179042D02*
X192029454Y-185321900D01*
X192029454Y-185321900D02*
X191958025Y-185536185D01*
X191958025Y-185536185D02*
X191100882Y-186393328D01*
X191100882Y-186393328D02*
X192029454Y-186393328D01*
X194672310Y-186393328D02*
X194172310Y-185679042D01*
X193815167Y-186393328D02*
X193815167Y-184893328D01*
X193815167Y-184893328D02*
X194386596Y-184893328D01*
X194386596Y-184893328D02*
X194529453Y-184964757D01*
X194529453Y-184964757D02*
X194600882Y-185036185D01*
X194600882Y-185036185D02*
X194672310Y-185179042D01*
X194672310Y-185179042D02*
X194672310Y-185393328D01*
X194672310Y-185393328D02*
X194600882Y-185536185D01*
X194600882Y-185536185D02*
X194529453Y-185607614D01*
X194529453Y-185607614D02*
X194386596Y-185679042D01*
X194386596Y-185679042D02*
X193815167Y-185679042D01*
X195315167Y-184893328D02*
X195315167Y-186107614D01*
X195315167Y-186107614D02*
X195386596Y-186250471D01*
X195386596Y-186250471D02*
X195458025Y-186321900D01*
X195458025Y-186321900D02*
X195600882Y-186393328D01*
X195600882Y-186393328D02*
X195886596Y-186393328D01*
X195886596Y-186393328D02*
X196029453Y-186321900D01*
X196029453Y-186321900D02*
X196100882Y-186250471D01*
X196100882Y-186250471D02*
X196172310Y-186107614D01*
X196172310Y-186107614D02*
X196172310Y-184893328D01*
X198529453Y-185607614D02*
X198029453Y-185607614D01*
X198029453Y-186393328D02*
X198029453Y-184893328D01*
X198029453Y-184893328D02*
X198743739Y-184893328D01*
X199315167Y-186393328D02*
X199315167Y-185393328D01*
X199315167Y-184893328D02*
X199243739Y-184964757D01*
X199243739Y-184964757D02*
X199315167Y-185036185D01*
X199315167Y-185036185D02*
X199386596Y-184964757D01*
X199386596Y-184964757D02*
X199315167Y-184893328D01*
X199315167Y-184893328D02*
X199315167Y-185036185D01*
X200029453Y-186393328D02*
X200029453Y-185393328D01*
X200029453Y-185679042D02*
X200100882Y-185536185D01*
X200100882Y-185536185D02*
X200172311Y-185464757D01*
X200172311Y-185464757D02*
X200315168Y-185393328D01*
X200315168Y-185393328D02*
X200458025Y-185393328D01*
X200886596Y-186321900D02*
X201029453Y-186393328D01*
X201029453Y-186393328D02*
X201315167Y-186393328D01*
X201315167Y-186393328D02*
X201458024Y-186321900D01*
X201458024Y-186321900D02*
X201529453Y-186179042D01*
X201529453Y-186179042D02*
X201529453Y-186107614D01*
X201529453Y-186107614D02*
X201458024Y-185964757D01*
X201458024Y-185964757D02*
X201315167Y-185893328D01*
X201315167Y-185893328D02*
X201100882Y-185893328D01*
X201100882Y-185893328D02*
X200958024Y-185821900D01*
X200958024Y-185821900D02*
X200886596Y-185679042D01*
X200886596Y-185679042D02*
X200886596Y-185607614D01*
X200886596Y-185607614D02*
X200958024Y-185464757D01*
X200958024Y-185464757D02*
X201100882Y-185393328D01*
X201100882Y-185393328D02*
X201315167Y-185393328D01*
X201315167Y-185393328D02*
X201458024Y-185464757D01*
X201958025Y-185393328D02*
X202529453Y-185393328D01*
X202172310Y-184893328D02*
X202172310Y-186179042D01*
X202172310Y-186179042D02*
X202243739Y-186321900D01*
X202243739Y-186321900D02*
X202386596Y-186393328D01*
X202386596Y-186393328D02*
X202529453Y-186393328D01*
X204172310Y-186393328D02*
X204172310Y-184893328D01*
X204172310Y-184893328D02*
X204743739Y-184893328D01*
X204743739Y-184893328D02*
X204886596Y-184964757D01*
X204886596Y-184964757D02*
X204958025Y-185036185D01*
X204958025Y-185036185D02*
X205029453Y-185179042D01*
X205029453Y-185179042D02*
X205029453Y-185393328D01*
X205029453Y-185393328D02*
X204958025Y-185536185D01*
X204958025Y-185536185D02*
X204886596Y-185607614D01*
X204886596Y-185607614D02*
X204743739Y-185679042D01*
X204743739Y-185679042D02*
X204172310Y-185679042D01*
X205672310Y-186393328D02*
X205672310Y-185393328D01*
X205672310Y-185679042D02*
X205743739Y-185536185D01*
X205743739Y-185536185D02*
X205815168Y-185464757D01*
X205815168Y-185464757D02*
X205958025Y-185393328D01*
X205958025Y-185393328D02*
X206100882Y-185393328D01*
X206815167Y-186393328D02*
X206672310Y-186321900D01*
X206672310Y-186321900D02*
X206600881Y-186250471D01*
X206600881Y-186250471D02*
X206529453Y-186107614D01*
X206529453Y-186107614D02*
X206529453Y-185679042D01*
X206529453Y-185679042D02*
X206600881Y-185536185D01*
X206600881Y-185536185D02*
X206672310Y-185464757D01*
X206672310Y-185464757D02*
X206815167Y-185393328D01*
X206815167Y-185393328D02*
X207029453Y-185393328D01*
X207029453Y-185393328D02*
X207172310Y-185464757D01*
X207172310Y-185464757D02*
X207243739Y-185536185D01*
X207243739Y-185536185D02*
X207315167Y-185679042D01*
X207315167Y-185679042D02*
X207315167Y-186107614D01*
X207315167Y-186107614D02*
X207243739Y-186250471D01*
X207243739Y-186250471D02*
X207172310Y-186321900D01*
X207172310Y-186321900D02*
X207029453Y-186393328D01*
X207029453Y-186393328D02*
X206815167Y-186393328D01*
X207743739Y-185393328D02*
X208315167Y-185393328D01*
X207958024Y-184893328D02*
X207958024Y-186179042D01*
X207958024Y-186179042D02*
X208029453Y-186321900D01*
X208029453Y-186321900D02*
X208172310Y-186393328D01*
X208172310Y-186393328D02*
X208315167Y-186393328D01*
X209029453Y-186393328D02*
X208886596Y-186321900D01*
X208886596Y-186321900D02*
X208815167Y-186250471D01*
X208815167Y-186250471D02*
X208743739Y-186107614D01*
X208743739Y-186107614D02*
X208743739Y-185679042D01*
X208743739Y-185679042D02*
X208815167Y-185536185D01*
X208815167Y-185536185D02*
X208886596Y-185464757D01*
X208886596Y-185464757D02*
X209029453Y-185393328D01*
X209029453Y-185393328D02*
X209243739Y-185393328D01*
X209243739Y-185393328D02*
X209386596Y-185464757D01*
X209386596Y-185464757D02*
X209458025Y-185536185D01*
X209458025Y-185536185D02*
X209529453Y-185679042D01*
X209529453Y-185679042D02*
X209529453Y-186107614D01*
X209529453Y-186107614D02*
X209458025Y-186250471D01*
X209458025Y-186250471D02*
X209386596Y-186321900D01*
X209386596Y-186321900D02*
X209243739Y-186393328D01*
X209243739Y-186393328D02*
X209029453Y-186393328D01*
X209958025Y-185393328D02*
X210529453Y-185393328D01*
X210172310Y-184893328D02*
X210172310Y-186179042D01*
X210172310Y-186179042D02*
X210243739Y-186321900D01*
X210243739Y-186321900D02*
X210386596Y-186393328D01*
X210386596Y-186393328D02*
X210529453Y-186393328D01*
X210886596Y-185393328D02*
X211243739Y-186393328D01*
X211600882Y-185393328D02*
X211243739Y-186393328D01*
X211243739Y-186393328D02*
X211100882Y-186750471D01*
X211100882Y-186750471D02*
X211029453Y-186821900D01*
X211029453Y-186821900D02*
X210886596Y-186893328D01*
X212172310Y-185393328D02*
X212172310Y-186893328D01*
X212172310Y-185464757D02*
X212315168Y-185393328D01*
X212315168Y-185393328D02*
X212600882Y-185393328D01*
X212600882Y-185393328D02*
X212743739Y-185464757D01*
X212743739Y-185464757D02*
X212815168Y-185536185D01*
X212815168Y-185536185D02*
X212886596Y-185679042D01*
X212886596Y-185679042D02*
X212886596Y-186107614D01*
X212886596Y-186107614D02*
X212815168Y-186250471D01*
X212815168Y-186250471D02*
X212743739Y-186321900D01*
X212743739Y-186321900D02*
X212600882Y-186393328D01*
X212600882Y-186393328D02*
X212315168Y-186393328D01*
X212315168Y-186393328D02*
X212172310Y-186321900D01*
X214100882Y-186321900D02*
X213958025Y-186393328D01*
X213958025Y-186393328D02*
X213672311Y-186393328D01*
X213672311Y-186393328D02*
X213529453Y-186321900D01*
X213529453Y-186321900D02*
X213458025Y-186179042D01*
X213458025Y-186179042D02*
X213458025Y-185607614D01*
X213458025Y-185607614D02*
X213529453Y-185464757D01*
X213529453Y-185464757D02*
X213672311Y-185393328D01*
X213672311Y-185393328D02*
X213958025Y-185393328D01*
X213958025Y-185393328D02*
X214100882Y-185464757D01*
X214100882Y-185464757D02*
X214172311Y-185607614D01*
X214172311Y-185607614D02*
X214172311Y-185750471D01*
X214172311Y-185750471D02*
X213458025Y-185893328D01*
X214815167Y-186250471D02*
X214886596Y-186321900D01*
X214886596Y-186321900D02*
X214815167Y-186393328D01*
X214815167Y-186393328D02*
X214743739Y-186321900D01*
X214743739Y-186321900D02*
X214815167Y-186250471D01*
X214815167Y-186250471D02*
X214815167Y-186393328D01*
X215529453Y-186393328D02*
X215529453Y-184893328D01*
X215672311Y-185821900D02*
X216100882Y-186393328D01*
X216100882Y-185393328D02*
X215529453Y-185964757D01*
X216743739Y-186393328D02*
X216743739Y-185393328D01*
X216743739Y-184893328D02*
X216672311Y-184964757D01*
X216672311Y-184964757D02*
X216743739Y-185036185D01*
X216743739Y-185036185D02*
X216815168Y-184964757D01*
X216815168Y-184964757D02*
X216743739Y-184893328D01*
X216743739Y-184893328D02*
X216743739Y-185036185D01*
X218100883Y-186321900D02*
X217958025Y-186393328D01*
X217958025Y-186393328D02*
X217672311Y-186393328D01*
X217672311Y-186393328D02*
X217529454Y-186321900D01*
X217529454Y-186321900D02*
X217458025Y-186250471D01*
X217458025Y-186250471D02*
X217386597Y-186107614D01*
X217386597Y-186107614D02*
X217386597Y-185679042D01*
X217386597Y-185679042D02*
X217458025Y-185536185D01*
X217458025Y-185536185D02*
X217529454Y-185464757D01*
X217529454Y-185464757D02*
X217672311Y-185393328D01*
X217672311Y-185393328D02*
X217958025Y-185393328D01*
X217958025Y-185393328D02*
X218100883Y-185464757D01*
X219386597Y-186393328D02*
X219386597Y-185607614D01*
X219386597Y-185607614D02*
X219315168Y-185464757D01*
X219315168Y-185464757D02*
X219172311Y-185393328D01*
X219172311Y-185393328D02*
X218886597Y-185393328D01*
X218886597Y-185393328D02*
X218743739Y-185464757D01*
X219386597Y-186321900D02*
X219243739Y-186393328D01*
X219243739Y-186393328D02*
X218886597Y-186393328D01*
X218886597Y-186393328D02*
X218743739Y-186321900D01*
X218743739Y-186321900D02*
X218672311Y-186179042D01*
X218672311Y-186179042D02*
X218672311Y-186036185D01*
X218672311Y-186036185D02*
X218743739Y-185893328D01*
X218743739Y-185893328D02*
X218886597Y-185821900D01*
X218886597Y-185821900D02*
X219243739Y-185821900D01*
X219243739Y-185821900D02*
X219386597Y-185750471D01*
X220743740Y-186393328D02*
X220743740Y-184893328D01*
X220743740Y-186321900D02*
X220600882Y-186393328D01*
X220600882Y-186393328D02*
X220315168Y-186393328D01*
X220315168Y-186393328D02*
X220172311Y-186321900D01*
X220172311Y-186321900D02*
X220100882Y-186250471D01*
X220100882Y-186250471D02*
X220029454Y-186107614D01*
X220029454Y-186107614D02*
X220029454Y-185679042D01*
X220029454Y-185679042D02*
X220100882Y-185536185D01*
X220100882Y-185536185D02*
X220172311Y-185464757D01*
X220172311Y-185464757D02*
X220315168Y-185393328D01*
X220315168Y-185393328D02*
X220600882Y-185393328D01*
X220600882Y-185393328D02*
X220743740Y-185464757D01*
X221100883Y-186536185D02*
X222243740Y-186536185D01*
X222600882Y-185393328D02*
X222600882Y-186893328D01*
X222600882Y-185464757D02*
X222743740Y-185393328D01*
X222743740Y-185393328D02*
X223029454Y-185393328D01*
X223029454Y-185393328D02*
X223172311Y-185464757D01*
X223172311Y-185464757D02*
X223243740Y-185536185D01*
X223243740Y-185536185D02*
X223315168Y-185679042D01*
X223315168Y-185679042D02*
X223315168Y-186107614D01*
X223315168Y-186107614D02*
X223243740Y-186250471D01*
X223243740Y-186250471D02*
X223172311Y-186321900D01*
X223172311Y-186321900D02*
X223029454Y-186393328D01*
X223029454Y-186393328D02*
X222743740Y-186393328D01*
X222743740Y-186393328D02*
X222600882Y-186321900D01*
X224600883Y-186321900D02*
X224458025Y-186393328D01*
X224458025Y-186393328D02*
X224172311Y-186393328D01*
X224172311Y-186393328D02*
X224029454Y-186321900D01*
X224029454Y-186321900D02*
X223958025Y-186250471D01*
X223958025Y-186250471D02*
X223886597Y-186107614D01*
X223886597Y-186107614D02*
X223886597Y-185679042D01*
X223886597Y-185679042D02*
X223958025Y-185536185D01*
X223958025Y-185536185D02*
X224029454Y-185464757D01*
X224029454Y-185464757D02*
X224172311Y-185393328D01*
X224172311Y-185393328D02*
X224458025Y-185393328D01*
X224458025Y-185393328D02*
X224600883Y-185464757D01*
X225243739Y-186393328D02*
X225243739Y-184893328D01*
X225243739Y-185464757D02*
X225386597Y-185393328D01*
X225386597Y-185393328D02*
X225672311Y-185393328D01*
X225672311Y-185393328D02*
X225815168Y-185464757D01*
X225815168Y-185464757D02*
X225886597Y-185536185D01*
X225886597Y-185536185D02*
X225958025Y-185679042D01*
X225958025Y-185679042D02*
X225958025Y-186107614D01*
X225958025Y-186107614D02*
X225886597Y-186250471D01*
X225886597Y-186250471D02*
X225815168Y-186321900D01*
X225815168Y-186321900D02*
X225672311Y-186393328D01*
X225672311Y-186393328D02*
X225386597Y-186393328D01*
X225386597Y-186393328D02*
X225243739Y-186321900D01*
X177002200Y-181507200D02*
X285002200Y-181507200D01*
X178386598Y-183621900D02*
X178600884Y-183693328D01*
X178600884Y-183693328D02*
X178958026Y-183693328D01*
X178958026Y-183693328D02*
X179100884Y-183621900D01*
X179100884Y-183621900D02*
X179172312Y-183550471D01*
X179172312Y-183550471D02*
X179243741Y-183407614D01*
X179243741Y-183407614D02*
X179243741Y-183264757D01*
X179243741Y-183264757D02*
X179172312Y-183121900D01*
X179172312Y-183121900D02*
X179100884Y-183050471D01*
X179100884Y-183050471D02*
X178958026Y-182979042D01*
X178958026Y-182979042D02*
X178672312Y-182907614D01*
X178672312Y-182907614D02*
X178529455Y-182836185D01*
X178529455Y-182836185D02*
X178458026Y-182764757D01*
X178458026Y-182764757D02*
X178386598Y-182621900D01*
X178386598Y-182621900D02*
X178386598Y-182479042D01*
X178386598Y-182479042D02*
X178458026Y-182336185D01*
X178458026Y-182336185D02*
X178529455Y-182264757D01*
X178529455Y-182264757D02*
X178672312Y-182193328D01*
X178672312Y-182193328D02*
X179029455Y-182193328D01*
X179029455Y-182193328D02*
X179243741Y-182264757D01*
X179886597Y-183693328D02*
X179886597Y-182193328D01*
X180529455Y-183693328D02*
X180529455Y-182907614D01*
X180529455Y-182907614D02*
X180458026Y-182764757D01*
X180458026Y-182764757D02*
X180315169Y-182693328D01*
X180315169Y-182693328D02*
X180100883Y-182693328D01*
X180100883Y-182693328D02*
X179958026Y-182764757D01*
X179958026Y-182764757D02*
X179886597Y-182836185D01*
X181815169Y-183621900D02*
X181672312Y-183693328D01*
X181672312Y-183693328D02*
X181386598Y-183693328D01*
X181386598Y-183693328D02*
X181243740Y-183621900D01*
X181243740Y-183621900D02*
X181172312Y-183479042D01*
X181172312Y-183479042D02*
X181172312Y-182907614D01*
X181172312Y-182907614D02*
X181243740Y-182764757D01*
X181243740Y-182764757D02*
X181386598Y-182693328D01*
X181386598Y-182693328D02*
X181672312Y-182693328D01*
X181672312Y-182693328D02*
X181815169Y-182764757D01*
X181815169Y-182764757D02*
X181886598Y-182907614D01*
X181886598Y-182907614D02*
X181886598Y-183050471D01*
X181886598Y-183050471D02*
X181172312Y-183193328D01*
X183100883Y-183621900D02*
X182958026Y-183693328D01*
X182958026Y-183693328D02*
X182672312Y-183693328D01*
X182672312Y-183693328D02*
X182529454Y-183621900D01*
X182529454Y-183621900D02*
X182458026Y-183479042D01*
X182458026Y-183479042D02*
X182458026Y-182907614D01*
X182458026Y-182907614D02*
X182529454Y-182764757D01*
X182529454Y-182764757D02*
X182672312Y-182693328D01*
X182672312Y-182693328D02*
X182958026Y-182693328D01*
X182958026Y-182693328D02*
X183100883Y-182764757D01*
X183100883Y-182764757D02*
X183172312Y-182907614D01*
X183172312Y-182907614D02*
X183172312Y-183050471D01*
X183172312Y-183050471D02*
X182458026Y-183193328D01*
X183600883Y-182693328D02*
X184172311Y-182693328D01*
X183815168Y-182193328D02*
X183815168Y-183479042D01*
X183815168Y-183479042D02*
X183886597Y-183621900D01*
X183886597Y-183621900D02*
X184029454Y-183693328D01*
X184029454Y-183693328D02*
X184172311Y-183693328D01*
X184672311Y-183550471D02*
X184743740Y-183621900D01*
X184743740Y-183621900D02*
X184672311Y-183693328D01*
X184672311Y-183693328D02*
X184600883Y-183621900D01*
X184600883Y-183621900D02*
X184672311Y-183550471D01*
X184672311Y-183550471D02*
X184672311Y-183693328D01*
X184672311Y-182764757D02*
X184743740Y-182836185D01*
X184743740Y-182836185D02*
X184672311Y-182907614D01*
X184672311Y-182907614D02*
X184600883Y-182836185D01*
X184600883Y-182836185D02*
X184672311Y-182764757D01*
X184672311Y-182764757D02*
X184672311Y-182907614D01*
X197002200Y-191507200D02*
X197002200Y-194507200D01*
X261002200Y-191507200D02*
X261002200Y-198007200D01*
D13*
%TO.N,GND*%
%TO.C,J2*%
X139130000Y-95850000D03*
D14*
X143310000Y-95850000D03*
D13*
X139130000Y-87210000D03*
D14*
X143310000Y-87210000D03*
%TD*%
D15*
%TO.N,/V_PYRO*%
%TO.C,J5*%
X106000000Y-71410000D03*
D16*
%TO.N,/V_2S*%
X106000000Y-66410000D03*
%TD*%
D17*
%TO.N,/CAN_L*%
%TO.C,J10*%
X115850000Y-71500000D03*
D18*
%TO.N,/CAN_H*%
X113350000Y-71500000D03*
%TD*%
D19*
%TO.N,/CAN_L2*%
%TO.C,J3*%
X135400000Y-117900000D03*
D18*
%TO.N,/CAN_H2*%
X137900000Y-117900000D03*
%TD*%
D17*
%TO.N,/CAN_L*%
%TO.C,J11*%
X115800000Y-62100000D03*
D18*
%TO.N,/CAN_H*%
X113300000Y-62100000D03*
%TD*%
D19*
%TO.N,/CAN_L2*%
%TO.C,J9*%
X131600000Y-127200000D03*
D18*
%TO.N,/CAN_H2*%
X134100000Y-127200000D03*
%TD*%
D20*
%TO.N,/V_2S*%
%TO.C,J1*%
X135500000Y-59000000D03*
D16*
%TO.N,GND*%
X135500000Y-64000000D03*
%TD*%
D21*
%TO.N,/SW_VCC*%
%TO.C,J4*%
X138830000Y-79720000D03*
D22*
%TO.N,/SWDIO*%
X136290000Y-79720000D03*
%TO.N,/SWCLK*%
X133750000Y-79720000D03*
%TO.N,GND*%
X131210000Y-79720000D03*
%TD*%
D23*
%TO.N,/V_DROGUE*%
%TO.C,J7*%
X106190000Y-91030000D03*
D24*
%TO.N,/V_PYRO*%
X106190000Y-87220000D03*
%TD*%
D23*
%TO.N,/V_MAIN*%
%TO.C,J12*%
X106110000Y-82210000D03*
D24*
%TO.N,/V_PYRO*%
X106110000Y-78400000D03*
%TD*%
D25*
%TO.N,GND*%
X127080000Y-84950000D03*
X126760000Y-89440000D03*
X126510000Y-87410000D03*
%TO.N,+3V3*%
X108040000Y-106880000D03*
%TO.N,/ALT_SDO*%
X113790000Y-101820000D03*
%TO.N,/ALT_CS*%
X111920000Y-100370000D03*
%TO.N,+3V3*%
X122490000Y-88195000D03*
%TO.N,/KX_SDO*%
X121490000Y-92600000D03*
%TO.N,/KX_SDI*%
X120675000Y-92430000D03*
X123130000Y-90925000D03*
%TO.N,GND*%
X114510000Y-69400000D03*
X112000000Y-130000000D03*
X131980000Y-108690000D03*
X118000000Y-117000000D03*
X119000000Y-130000000D03*
X125310000Y-98490000D03*
X128750000Y-98800000D03*
X136650000Y-119910000D03*
X119500000Y-117000000D03*
X109170000Y-99890000D03*
X121270000Y-103260000D03*
X129550000Y-82050000D03*
X122170000Y-86415000D03*
X132650000Y-90750000D03*
X118500000Y-96450000D03*
X128300000Y-118050000D03*
X124500000Y-74000000D03*
X111000000Y-107500000D03*
%TO.N,+3V3*%
X133300000Y-97200000D03*
X141290000Y-71910000D03*
X115400000Y-108800000D03*
X113420000Y-117380000D03*
X128070000Y-92440000D03*
X126370000Y-105780000D03*
X128750000Y-111250000D03*
X109650000Y-107599999D03*
X114000000Y-95000000D03*
X127650000Y-122700000D03*
X117604480Y-92300000D03*
D26*
%TO.N,/V_IN*%
X140520000Y-77160000D03*
D25*
%TO.N,/FLASH_IO0*%
X120000000Y-107150000D03*
X123275000Y-107550000D03*
%TO.N,/FLASH_IO2*%
X121125000Y-109225000D03*
X115500000Y-110200000D03*
%TO.N,/ALT_SCLK*%
X121260000Y-100800000D03*
%TO.N,/PC6*%
X130750000Y-101860000D03*
%TO.N,/PC7*%
X130715000Y-101045000D03*
%TO.N,/Drogue*%
X131970000Y-100210000D03*
%TO.N,/Main*%
X132200000Y-98702900D03*
%TO.N,/FLASH_CS*%
X116974696Y-103450208D03*
X117350000Y-108225000D03*
%TO.N,/KX_SDO*%
X123341548Y-91696525D03*
%TO.N,+3V3*%
X120660000Y-82730000D03*
X120700000Y-81720000D03*
X118300000Y-83700000D03*
X120520000Y-83630000D03*
X118300000Y-82800000D03*
X120730000Y-80620000D03*
%TO.N,/ALT_SDI*%
X118013920Y-99663414D03*
%TD*%
%TA.AperFunction,Conductor*%
%TO.N,+3V3*%
G36*
X142803243Y-55000669D02*
G01*
X143127952Y-55017687D01*
X143140860Y-55019044D01*
X143458794Y-55069400D01*
X143471478Y-55072095D01*
X143782429Y-55155414D01*
X143794770Y-55159425D01*
X144095282Y-55274780D01*
X144107138Y-55280058D01*
X144393976Y-55426210D01*
X144405192Y-55432686D01*
X144675165Y-55608008D01*
X144685666Y-55615637D01*
X144935836Y-55818221D01*
X144945481Y-55826906D01*
X145173093Y-56054518D01*
X145181778Y-56064163D01*
X145384362Y-56314333D01*
X145391991Y-56324834D01*
X145567310Y-56594802D01*
X145573792Y-56606029D01*
X145604057Y-56665426D01*
X145719940Y-56892859D01*
X145725219Y-56904717D01*
X145840574Y-57205229D01*
X145844585Y-57217572D01*
X145927902Y-57528515D01*
X145930600Y-57541211D01*
X145980955Y-57859139D01*
X145982312Y-57872047D01*
X145999330Y-58196756D01*
X145999500Y-58203246D01*
X145999500Y-127296753D01*
X145999330Y-127303243D01*
X145982312Y-127627952D01*
X145980955Y-127640860D01*
X145930600Y-127958788D01*
X145927902Y-127971484D01*
X145844585Y-128282427D01*
X145840574Y-128294770D01*
X145725219Y-128595282D01*
X145719940Y-128607140D01*
X145573796Y-128893964D01*
X145567306Y-128905204D01*
X145391991Y-129175165D01*
X145384362Y-129185666D01*
X145181778Y-129435836D01*
X145173093Y-129445481D01*
X144945481Y-129673093D01*
X144935836Y-129681778D01*
X144685666Y-129884362D01*
X144675165Y-129891991D01*
X144405204Y-130067306D01*
X144393964Y-130073796D01*
X144107140Y-130219940D01*
X144095282Y-130225219D01*
X143794770Y-130340574D01*
X143782427Y-130344585D01*
X143471484Y-130427902D01*
X143458788Y-130430600D01*
X143140860Y-130480955D01*
X143127952Y-130482312D01*
X142803244Y-130499330D01*
X142796754Y-130499500D01*
X119845134Y-130499500D01*
X119778095Y-130479815D01*
X119732340Y-130427011D01*
X119722396Y-130357853D01*
X119730573Y-130328047D01*
X119769737Y-130233497D01*
X119800500Y-130078842D01*
X119800500Y-129921158D01*
X119800500Y-129921155D01*
X119800499Y-129921153D01*
X119769738Y-129766510D01*
X119769737Y-129766503D01*
X119731046Y-129673093D01*
X119709397Y-129620827D01*
X119709390Y-129620814D01*
X119621789Y-129489711D01*
X119621786Y-129489707D01*
X119510292Y-129378213D01*
X119510288Y-129378210D01*
X119379185Y-129290609D01*
X119379172Y-129290602D01*
X119233501Y-129230264D01*
X119233489Y-129230261D01*
X119078845Y-129199500D01*
X119078842Y-129199500D01*
X118921158Y-129199500D01*
X118921155Y-129199500D01*
X118766510Y-129230261D01*
X118766498Y-129230264D01*
X118620827Y-129290602D01*
X118620814Y-129290609D01*
X118489711Y-129378210D01*
X118489707Y-129378213D01*
X118378213Y-129489707D01*
X118378210Y-129489711D01*
X118290609Y-129620814D01*
X118290602Y-129620827D01*
X118230264Y-129766498D01*
X118230261Y-129766510D01*
X118199500Y-129921153D01*
X118199500Y-130078846D01*
X118230261Y-130233489D01*
X118230263Y-130233497D01*
X118269427Y-130328047D01*
X118276896Y-130397517D01*
X118245621Y-130459996D01*
X118185532Y-130495648D01*
X118154866Y-130499500D01*
X112845134Y-130499500D01*
X112778095Y-130479815D01*
X112732340Y-130427011D01*
X112722396Y-130357853D01*
X112730573Y-130328047D01*
X112769737Y-130233497D01*
X112800500Y-130078842D01*
X112800500Y-129921158D01*
X112800500Y-129921155D01*
X112800499Y-129921153D01*
X112769738Y-129766510D01*
X112769737Y-129766503D01*
X112731046Y-129673093D01*
X112709397Y-129620827D01*
X112709390Y-129620814D01*
X112621789Y-129489711D01*
X112621786Y-129489707D01*
X112510292Y-129378213D01*
X112510288Y-129378210D01*
X112379185Y-129290609D01*
X112379172Y-129290602D01*
X112233501Y-129230264D01*
X112233489Y-129230261D01*
X112078845Y-129199500D01*
X112078842Y-129199500D01*
X111921158Y-129199500D01*
X111921155Y-129199500D01*
X111766510Y-129230261D01*
X111766498Y-129230264D01*
X111620827Y-129290602D01*
X111620814Y-129290609D01*
X111489711Y-129378210D01*
X111489707Y-129378213D01*
X111378213Y-129489707D01*
X111378210Y-129489711D01*
X111290609Y-129620814D01*
X111290602Y-129620827D01*
X111230264Y-129766498D01*
X111230261Y-129766510D01*
X111199500Y-129921153D01*
X111199500Y-130078846D01*
X111230261Y-130233489D01*
X111230263Y-130233497D01*
X111269427Y-130328047D01*
X111276896Y-130397517D01*
X111245621Y-130459996D01*
X111185532Y-130495648D01*
X111154866Y-130499500D01*
X105703246Y-130499500D01*
X105696756Y-130499330D01*
X105372047Y-130482312D01*
X105359139Y-130480955D01*
X105041211Y-130430600D01*
X105028515Y-130427902D01*
X104717572Y-130344585D01*
X104705229Y-130340574D01*
X104404717Y-130225219D01*
X104392859Y-130219940D01*
X104253107Y-130148733D01*
X104106029Y-130073792D01*
X104094802Y-130067310D01*
X103869747Y-129921158D01*
X103824834Y-129891991D01*
X103814333Y-129884362D01*
X103564163Y-129681778D01*
X103554518Y-129673093D01*
X103326906Y-129445481D01*
X103318221Y-129435836D01*
X103115637Y-129185666D01*
X103108008Y-129175165D01*
X102932686Y-128905192D01*
X102926210Y-128893976D01*
X102780058Y-128607138D01*
X102774780Y-128595282D01*
X102770295Y-128583599D01*
X102659424Y-128294769D01*
X102655414Y-128282427D01*
X102648273Y-128255776D01*
X102572095Y-127971478D01*
X102569399Y-127958788D01*
X102566797Y-127942361D01*
X102519044Y-127640860D01*
X102517687Y-127627952D01*
X102500670Y-127303243D01*
X102500500Y-127296753D01*
X102500500Y-126875441D01*
X104099500Y-126875441D01*
X104099500Y-127124558D01*
X104099501Y-127124575D01*
X104132017Y-127371561D01*
X104196498Y-127612207D01*
X104291830Y-127842361D01*
X104291837Y-127842376D01*
X104416400Y-128058126D01*
X104568060Y-128255774D01*
X104568066Y-128255781D01*
X104744218Y-128431933D01*
X104744225Y-128431939D01*
X104941873Y-128583599D01*
X105157623Y-128708162D01*
X105157638Y-128708169D01*
X105256825Y-128749253D01*
X105387793Y-128803502D01*
X105628435Y-128867982D01*
X105875435Y-128900500D01*
X105875442Y-128900500D01*
X106124558Y-128900500D01*
X106124565Y-128900500D01*
X106371565Y-128867982D01*
X106612207Y-128803502D01*
X106842373Y-128708164D01*
X107058127Y-128583599D01*
X107255776Y-128431938D01*
X107431938Y-128255776D01*
X107583599Y-128058127D01*
X107708164Y-127842373D01*
X107803502Y-127612207D01*
X107867982Y-127371565D01*
X107900500Y-127124565D01*
X107900500Y-126875435D01*
X107867982Y-126628435D01*
X107806768Y-126399983D01*
X130249500Y-126399983D01*
X130249500Y-128000001D01*
X130249501Y-128000018D01*
X130260000Y-128102796D01*
X130260001Y-128102799D01*
X130305894Y-128241294D01*
X130315186Y-128269334D01*
X130407288Y-128418656D01*
X130531344Y-128542712D01*
X130680666Y-128634814D01*
X130847203Y-128689999D01*
X130949991Y-128700500D01*
X132250008Y-128700499D01*
X132352797Y-128689999D01*
X132519334Y-128634814D01*
X132668656Y-128542712D01*
X132792712Y-128418656D01*
X132884814Y-128269334D01*
X132884814Y-128269331D01*
X132888178Y-128263879D01*
X132940126Y-128217154D01*
X133009088Y-128205931D01*
X133073170Y-128233774D01*
X133081398Y-128241294D01*
X133220213Y-128380109D01*
X133392179Y-128505048D01*
X133392181Y-128505049D01*
X133392184Y-128505051D01*
X133581588Y-128601557D01*
X133783757Y-128667246D01*
X133993713Y-128700500D01*
X133993714Y-128700500D01*
X134206286Y-128700500D01*
X134206287Y-128700500D01*
X134416243Y-128667246D01*
X134618412Y-128601557D01*
X134807816Y-128505051D01*
X134908447Y-128431939D01*
X134979786Y-128380109D01*
X134979788Y-128380106D01*
X134979792Y-128380104D01*
X135130104Y-128229792D01*
X135130106Y-128229788D01*
X135130109Y-128229786D01*
X135255048Y-128057820D01*
X135255047Y-128057820D01*
X135255051Y-128057816D01*
X135351557Y-127868412D01*
X135417246Y-127666243D01*
X135450500Y-127456287D01*
X135450500Y-126975441D01*
X140599500Y-126975441D01*
X140599500Y-127224558D01*
X140599501Y-127224575D01*
X140632017Y-127471561D01*
X140696498Y-127712207D01*
X140791830Y-127942361D01*
X140791837Y-127942376D01*
X140916400Y-128158126D01*
X141068060Y-128355774D01*
X141068066Y-128355781D01*
X141244218Y-128531933D01*
X141244225Y-128531939D01*
X141441873Y-128683599D01*
X141657623Y-128808162D01*
X141657638Y-128808169D01*
X141756825Y-128849253D01*
X141887793Y-128903502D01*
X142128435Y-128967982D01*
X142375435Y-129000500D01*
X142375442Y-129000500D01*
X142624558Y-129000500D01*
X142624565Y-129000500D01*
X142871565Y-128967982D01*
X143112207Y-128903502D01*
X143342373Y-128808164D01*
X143558127Y-128683599D01*
X143755776Y-128531938D01*
X143931938Y-128355776D01*
X144083599Y-128158127D01*
X144208164Y-127942373D01*
X144303502Y-127712207D01*
X144367982Y-127471565D01*
X144400500Y-127224565D01*
X144400500Y-126975435D01*
X144367982Y-126728435D01*
X144303502Y-126487793D01*
X144243187Y-126342179D01*
X144208169Y-126257638D01*
X144208162Y-126257623D01*
X144083599Y-126041873D01*
X143931939Y-125844225D01*
X143931933Y-125844218D01*
X143755781Y-125668066D01*
X143755774Y-125668060D01*
X143558126Y-125516400D01*
X143342376Y-125391837D01*
X143342361Y-125391830D01*
X143112207Y-125296498D01*
X142871561Y-125232017D01*
X142624575Y-125199501D01*
X142624570Y-125199500D01*
X142624565Y-125199500D01*
X142375435Y-125199500D01*
X142375429Y-125199500D01*
X142375424Y-125199501D01*
X142128438Y-125232017D01*
X141887792Y-125296498D01*
X141657638Y-125391830D01*
X141657623Y-125391837D01*
X141441873Y-125516400D01*
X141244225Y-125668060D01*
X141244218Y-125668066D01*
X141068066Y-125844218D01*
X141068060Y-125844225D01*
X140916400Y-126041873D01*
X140791837Y-126257623D01*
X140791830Y-126257638D01*
X140696498Y-126487792D01*
X140632017Y-126728438D01*
X140599501Y-126975424D01*
X140599500Y-126975441D01*
X135450500Y-126975441D01*
X135450500Y-126943713D01*
X135417246Y-126733757D01*
X135351557Y-126531588D01*
X135255051Y-126342184D01*
X135255049Y-126342181D01*
X135255048Y-126342179D01*
X135130109Y-126170213D01*
X134979786Y-126019890D01*
X134807820Y-125894951D01*
X134618414Y-125798444D01*
X134618413Y-125798443D01*
X134618412Y-125798443D01*
X134416243Y-125732754D01*
X134416241Y-125732753D01*
X134416240Y-125732753D01*
X134254957Y-125707208D01*
X134206287Y-125699500D01*
X133993713Y-125699500D01*
X133945042Y-125707208D01*
X133783760Y-125732753D01*
X133581585Y-125798444D01*
X133392179Y-125894951D01*
X133220215Y-126019889D01*
X133081398Y-126158706D01*
X133020075Y-126192190D01*
X132950383Y-126187206D01*
X132894450Y-126145334D01*
X132888178Y-126136120D01*
X132792712Y-125981344D01*
X132668657Y-125857289D01*
X132668656Y-125857288D01*
X132519334Y-125765186D01*
X132352797Y-125710001D01*
X132352795Y-125710000D01*
X132250010Y-125699500D01*
X130949998Y-125699500D01*
X130949981Y-125699501D01*
X130847203Y-125710000D01*
X130847200Y-125710001D01*
X130680668Y-125765185D01*
X130680663Y-125765187D01*
X130531342Y-125857289D01*
X130407289Y-125981342D01*
X130315187Y-126130663D01*
X130315185Y-126130668D01*
X130310325Y-126145334D01*
X130260001Y-126297203D01*
X130260001Y-126297204D01*
X130260000Y-126297204D01*
X130249500Y-126399983D01*
X107806768Y-126399983D01*
X107803502Y-126387793D01*
X107749253Y-126256825D01*
X107708169Y-126157638D01*
X107708162Y-126157623D01*
X107583599Y-125941873D01*
X107431939Y-125744225D01*
X107431933Y-125744218D01*
X107255781Y-125568066D01*
X107255774Y-125568060D01*
X107058126Y-125416400D01*
X106842376Y-125291837D01*
X106842361Y-125291830D01*
X106612207Y-125196498D01*
X106371561Y-125132017D01*
X106124575Y-125099501D01*
X106124570Y-125099500D01*
X106124565Y-125099500D01*
X105875435Y-125099500D01*
X105875429Y-125099500D01*
X105875424Y-125099501D01*
X105628438Y-125132017D01*
X105387792Y-125196498D01*
X105157638Y-125291830D01*
X105157623Y-125291837D01*
X104941873Y-125416400D01*
X104744225Y-125568060D01*
X104744218Y-125568066D01*
X104568066Y-125744218D01*
X104568060Y-125744225D01*
X104416400Y-125941873D01*
X104291837Y-126157623D01*
X104291830Y-126157638D01*
X104196498Y-126387792D01*
X104132017Y-126628438D01*
X104099501Y-126875424D01*
X104099500Y-126875441D01*
X102500500Y-126875441D01*
X102500500Y-117971153D01*
X127499500Y-117971153D01*
X127499500Y-118128846D01*
X127530261Y-118283489D01*
X127530264Y-118283501D01*
X127590602Y-118429172D01*
X127590609Y-118429185D01*
X127678210Y-118560288D01*
X127678213Y-118560292D01*
X127789707Y-118671786D01*
X127789711Y-118671789D01*
X127920814Y-118759390D01*
X127920827Y-118759397D01*
X128066498Y-118819735D01*
X128066503Y-118819737D01*
X128221153Y-118850499D01*
X128221156Y-118850500D01*
X128221158Y-118850500D01*
X128378844Y-118850500D01*
X128378845Y-118850499D01*
X128533497Y-118819737D01*
X128679179Y-118759394D01*
X128810289Y-118671789D01*
X128921789Y-118560289D01*
X129009394Y-118429179D01*
X129069737Y-118283497D01*
X129100500Y-118128842D01*
X129100500Y-117971158D01*
X129100500Y-117971155D01*
X129100499Y-117971153D01*
X129069738Y-117816510D01*
X129069737Y-117816503D01*
X129069735Y-117816498D01*
X129009397Y-117670827D01*
X129009390Y-117670814D01*
X128921789Y-117539711D01*
X128921786Y-117539707D01*
X128810292Y-117428213D01*
X128810288Y-117428210D01*
X128679185Y-117340609D01*
X128679172Y-117340602D01*
X128533501Y-117280264D01*
X128533489Y-117280261D01*
X128378845Y-117249500D01*
X128378842Y-117249500D01*
X128221158Y-117249500D01*
X128221155Y-117249500D01*
X128066510Y-117280261D01*
X128066498Y-117280264D01*
X127920827Y-117340602D01*
X127920814Y-117340609D01*
X127789711Y-117428210D01*
X127789707Y-117428213D01*
X127678213Y-117539707D01*
X127678210Y-117539711D01*
X127590609Y-117670814D01*
X127590602Y-117670827D01*
X127530264Y-117816498D01*
X127530261Y-117816510D01*
X127499500Y-117971153D01*
X102500500Y-117971153D01*
X102500500Y-116921153D01*
X117199500Y-116921153D01*
X117199500Y-117078846D01*
X117230261Y-117233489D01*
X117230264Y-117233501D01*
X117290602Y-117379172D01*
X117290609Y-117379185D01*
X117378210Y-117510288D01*
X117378213Y-117510292D01*
X117489707Y-117621786D01*
X117489711Y-117621789D01*
X117620814Y-117709390D01*
X117620827Y-117709397D01*
X117766498Y-117769735D01*
X117766503Y-117769737D01*
X117921153Y-117800499D01*
X117921156Y-117800500D01*
X117921158Y-117800500D01*
X118078844Y-117800500D01*
X118078845Y-117800499D01*
X118233497Y-117769737D01*
X118379179Y-117709394D01*
X118510289Y-117621789D01*
X118621789Y-117510289D01*
X118629145Y-117499279D01*
X118646898Y-117472712D01*
X118700510Y-117427906D01*
X118769835Y-117419199D01*
X118832862Y-117449353D01*
X118853102Y-117472712D01*
X118878207Y-117510284D01*
X118878213Y-117510292D01*
X118989707Y-117621786D01*
X118989711Y-117621789D01*
X119120814Y-117709390D01*
X119120827Y-117709397D01*
X119266498Y-117769735D01*
X119266503Y-117769737D01*
X119421153Y-117800499D01*
X119421156Y-117800500D01*
X119421158Y-117800500D01*
X119578844Y-117800500D01*
X119578845Y-117800499D01*
X119733497Y-117769737D01*
X119879179Y-117709394D01*
X120010289Y-117621789D01*
X120121789Y-117510289D01*
X120209394Y-117379179D01*
X120269737Y-117233497D01*
X120296295Y-117099983D01*
X134049500Y-117099983D01*
X134049500Y-118700001D01*
X134049501Y-118700018D01*
X134060000Y-118802796D01*
X134060001Y-118802799D01*
X134075808Y-118850500D01*
X134115186Y-118969334D01*
X134207288Y-119118656D01*
X134331344Y-119242712D01*
X134480666Y-119334814D01*
X134647203Y-119389999D01*
X134749991Y-119400500D01*
X135809008Y-119400499D01*
X135876047Y-119420183D01*
X135921802Y-119472987D01*
X135931746Y-119542146D01*
X135923569Y-119571951D01*
X135880264Y-119676498D01*
X135880261Y-119676510D01*
X135849500Y-119831153D01*
X135849500Y-119988846D01*
X135880261Y-120143489D01*
X135880264Y-120143501D01*
X135940602Y-120289172D01*
X135940609Y-120289185D01*
X136028210Y-120420288D01*
X136028213Y-120420292D01*
X136139707Y-120531786D01*
X136139711Y-120531789D01*
X136270814Y-120619390D01*
X136270827Y-120619397D01*
X136416498Y-120679735D01*
X136416503Y-120679737D01*
X136571153Y-120710499D01*
X136571156Y-120710500D01*
X136571158Y-120710500D01*
X136728844Y-120710500D01*
X136728845Y-120710499D01*
X136883497Y-120679737D01*
X137029179Y-120619394D01*
X137160289Y-120531789D01*
X137271789Y-120420289D01*
X137359394Y-120289179D01*
X137419737Y-120143497D01*
X137450500Y-119988842D01*
X137450500Y-119831158D01*
X137450500Y-119831155D01*
X137450499Y-119831153D01*
X137419738Y-119676510D01*
X137419737Y-119676503D01*
X137419735Y-119676498D01*
X137359397Y-119530827D01*
X137359389Y-119530812D01*
X137356235Y-119526092D01*
X137335356Y-119459415D01*
X137353840Y-119392035D01*
X137405818Y-119345344D01*
X137474788Y-119334167D01*
X137497650Y-119339268D01*
X137583757Y-119367246D01*
X137793713Y-119400500D01*
X137793714Y-119400500D01*
X138006286Y-119400500D01*
X138006287Y-119400500D01*
X138216243Y-119367246D01*
X138418412Y-119301557D01*
X138607816Y-119205051D01*
X138696990Y-119140263D01*
X138779786Y-119080109D01*
X138779788Y-119080106D01*
X138779792Y-119080104D01*
X138930104Y-118929792D01*
X138930106Y-118929788D01*
X138930109Y-118929786D01*
X139053902Y-118759397D01*
X139055051Y-118757816D01*
X139151557Y-118568412D01*
X139217246Y-118366243D01*
X139250500Y-118156287D01*
X139250500Y-117643713D01*
X139217246Y-117433757D01*
X139151557Y-117231588D01*
X139055051Y-117042184D01*
X139055049Y-117042181D01*
X139055048Y-117042179D01*
X138930109Y-116870213D01*
X138779786Y-116719890D01*
X138607820Y-116594951D01*
X138418414Y-116498444D01*
X138418413Y-116498443D01*
X138418412Y-116498443D01*
X138216243Y-116432754D01*
X138216241Y-116432753D01*
X138216240Y-116432753D01*
X138054957Y-116407208D01*
X138006287Y-116399500D01*
X137793713Y-116399500D01*
X137745042Y-116407208D01*
X137583760Y-116432753D01*
X137381585Y-116498444D01*
X137192179Y-116594951D01*
X137020215Y-116719889D01*
X136881398Y-116858706D01*
X136820075Y-116892190D01*
X136750383Y-116887206D01*
X136694450Y-116845334D01*
X136688178Y-116836120D01*
X136592712Y-116681344D01*
X136468657Y-116557289D01*
X136468656Y-116557288D01*
X136319334Y-116465186D01*
X136152797Y-116410001D01*
X136152795Y-116410000D01*
X136050010Y-116399500D01*
X134749998Y-116399500D01*
X134749981Y-116399501D01*
X134647203Y-116410000D01*
X134647200Y-116410001D01*
X134480668Y-116465185D01*
X134480663Y-116465187D01*
X134331342Y-116557289D01*
X134207289Y-116681342D01*
X134115187Y-116830663D01*
X134115185Y-116830668D01*
X134110325Y-116845334D01*
X134060001Y-116997203D01*
X134060001Y-116997204D01*
X134060000Y-116997204D01*
X134049500Y-117099983D01*
X120296295Y-117099983D01*
X120300500Y-117078842D01*
X120300500Y-116921158D01*
X120300500Y-116921155D01*
X120300499Y-116921153D01*
X120288077Y-116858706D01*
X120269737Y-116766503D01*
X120250432Y-116719896D01*
X120209397Y-116620827D01*
X120209390Y-116620814D01*
X120121789Y-116489711D01*
X120121786Y-116489707D01*
X120010292Y-116378213D01*
X120010288Y-116378210D01*
X119879185Y-116290609D01*
X119879172Y-116290602D01*
X119733501Y-116230264D01*
X119733489Y-116230261D01*
X119578845Y-116199500D01*
X119578842Y-116199500D01*
X119421158Y-116199500D01*
X119421155Y-116199500D01*
X119266510Y-116230261D01*
X119266498Y-116230264D01*
X119120827Y-116290602D01*
X119120814Y-116290609D01*
X118989711Y-116378210D01*
X118989707Y-116378213D01*
X118878213Y-116489707D01*
X118853102Y-116527289D01*
X118799489Y-116572093D01*
X118730164Y-116580800D01*
X118667137Y-116550645D01*
X118646898Y-116527289D01*
X118627624Y-116498444D01*
X118621789Y-116489711D01*
X118621788Y-116489710D01*
X118621786Y-116489707D01*
X118510292Y-116378213D01*
X118510288Y-116378210D01*
X118379185Y-116290609D01*
X118379172Y-116290602D01*
X118233501Y-116230264D01*
X118233489Y-116230261D01*
X118078845Y-116199500D01*
X118078842Y-116199500D01*
X117921158Y-116199500D01*
X117921155Y-116199500D01*
X117766510Y-116230261D01*
X117766498Y-116230264D01*
X117620827Y-116290602D01*
X117620814Y-116290609D01*
X117489711Y-116378210D01*
X117489707Y-116378213D01*
X117378213Y-116489707D01*
X117378210Y-116489711D01*
X117290609Y-116620814D01*
X117290602Y-116620827D01*
X117230264Y-116766498D01*
X117230261Y-116766510D01*
X117199500Y-116921153D01*
X102500500Y-116921153D01*
X102500500Y-110121153D01*
X114699500Y-110121153D01*
X114699500Y-110278846D01*
X114730261Y-110433489D01*
X114730264Y-110433501D01*
X114790602Y-110579172D01*
X114790609Y-110579185D01*
X114878210Y-110710288D01*
X114878213Y-110710292D01*
X114989707Y-110821786D01*
X114989711Y-110821789D01*
X115120814Y-110909390D01*
X115120827Y-110909397D01*
X115266498Y-110969735D01*
X115266503Y-110969737D01*
X115421153Y-111000499D01*
X115421156Y-111000500D01*
X115421158Y-111000500D01*
X115578844Y-111000500D01*
X115578845Y-111000499D01*
X115733497Y-110969737D01*
X115879179Y-110909394D01*
X116010289Y-110821789D01*
X116121789Y-110710289D01*
X116209394Y-110579179D01*
X116269737Y-110433497D01*
X116300500Y-110278842D01*
X116300500Y-110121158D01*
X116300500Y-110121155D01*
X116300499Y-110121153D01*
X116275353Y-109994737D01*
X116269737Y-109966503D01*
X116269735Y-109966498D01*
X116209397Y-109820827D01*
X116209390Y-109820814D01*
X116121789Y-109689711D01*
X116121786Y-109689707D01*
X116010292Y-109578213D01*
X116010288Y-109578210D01*
X115879185Y-109490609D01*
X115879172Y-109490602D01*
X115733501Y-109430264D01*
X115733489Y-109430261D01*
X115578845Y-109399500D01*
X115578842Y-109399500D01*
X115421158Y-109399500D01*
X115421155Y-109399500D01*
X115266510Y-109430261D01*
X115266498Y-109430264D01*
X115120827Y-109490602D01*
X115120814Y-109490609D01*
X114989711Y-109578210D01*
X114989707Y-109578213D01*
X114878213Y-109689707D01*
X114878210Y-109689711D01*
X114790609Y-109820814D01*
X114790602Y-109820827D01*
X114730264Y-109966498D01*
X114730261Y-109966510D01*
X114699500Y-110121153D01*
X102500500Y-110121153D01*
X102500500Y-109146153D01*
X120324500Y-109146153D01*
X120324500Y-109303846D01*
X120355261Y-109458489D01*
X120355264Y-109458501D01*
X120415602Y-109604172D01*
X120415609Y-109604185D01*
X120503210Y-109735288D01*
X120503213Y-109735292D01*
X120614707Y-109846786D01*
X120614711Y-109846789D01*
X120745814Y-109934390D01*
X120745827Y-109934397D01*
X120823356Y-109966510D01*
X120891503Y-109994737D01*
X121046153Y-110025499D01*
X121046156Y-110025500D01*
X121046158Y-110025500D01*
X121203844Y-110025500D01*
X121203845Y-110025499D01*
X121358497Y-109994737D01*
X121504179Y-109934394D01*
X121635289Y-109846789D01*
X121746789Y-109735289D01*
X121834394Y-109604179D01*
X121894737Y-109458497D01*
X121925500Y-109303842D01*
X121925500Y-109146158D01*
X121925500Y-109146155D01*
X121925499Y-109146153D01*
X121894738Y-108991510D01*
X121894737Y-108991503D01*
X121834794Y-108846786D01*
X121834397Y-108845827D01*
X121834390Y-108845814D01*
X121746789Y-108714711D01*
X121746786Y-108714707D01*
X121643232Y-108611153D01*
X131179500Y-108611153D01*
X131179500Y-108768846D01*
X131210261Y-108923489D01*
X131210264Y-108923501D01*
X131270602Y-109069172D01*
X131270609Y-109069185D01*
X131358210Y-109200288D01*
X131358213Y-109200292D01*
X131469707Y-109311786D01*
X131469711Y-109311789D01*
X131600814Y-109399390D01*
X131600827Y-109399397D01*
X131675348Y-109430264D01*
X131746503Y-109459737D01*
X131901153Y-109490499D01*
X131901156Y-109490500D01*
X131901158Y-109490500D01*
X132058844Y-109490500D01*
X132058845Y-109490499D01*
X132213497Y-109459737D01*
X132359179Y-109399394D01*
X132490289Y-109311789D01*
X132601789Y-109200289D01*
X132689394Y-109069179D01*
X132749737Y-108923497D01*
X132780500Y-108768842D01*
X132780500Y-108611158D01*
X132780500Y-108611155D01*
X132780499Y-108611153D01*
X132761493Y-108515606D01*
X132749737Y-108456503D01*
X132736481Y-108424500D01*
X132689397Y-108310827D01*
X132689390Y-108310814D01*
X132601789Y-108179711D01*
X132601786Y-108179707D01*
X132490292Y-108068213D01*
X132490288Y-108068210D01*
X132359185Y-107980609D01*
X132359172Y-107980602D01*
X132213501Y-107920264D01*
X132213489Y-107920261D01*
X132058845Y-107889500D01*
X132058842Y-107889500D01*
X131901158Y-107889500D01*
X131901155Y-107889500D01*
X131746510Y-107920261D01*
X131746498Y-107920264D01*
X131600827Y-107980602D01*
X131600814Y-107980609D01*
X131469711Y-108068210D01*
X131469707Y-108068213D01*
X131358213Y-108179707D01*
X131358210Y-108179711D01*
X131270609Y-108310814D01*
X131270602Y-108310827D01*
X131210264Y-108456498D01*
X131210261Y-108456510D01*
X131179500Y-108611153D01*
X121643232Y-108611153D01*
X121635292Y-108603213D01*
X121635288Y-108603210D01*
X121504185Y-108515609D01*
X121504172Y-108515602D01*
X121358501Y-108455264D01*
X121358489Y-108455261D01*
X121203845Y-108424500D01*
X121203842Y-108424500D01*
X121046158Y-108424500D01*
X121046155Y-108424500D01*
X120891510Y-108455261D01*
X120891498Y-108455264D01*
X120745827Y-108515602D01*
X120745814Y-108515609D01*
X120614711Y-108603210D01*
X120614707Y-108603213D01*
X120503213Y-108714707D01*
X120503210Y-108714711D01*
X120415609Y-108845814D01*
X120415602Y-108845827D01*
X120355264Y-108991498D01*
X120355261Y-108991510D01*
X120324500Y-109146153D01*
X102500500Y-109146153D01*
X102500500Y-107421153D01*
X110199500Y-107421153D01*
X110199500Y-107578846D01*
X110230261Y-107733489D01*
X110230264Y-107733501D01*
X110290602Y-107879172D01*
X110290609Y-107879185D01*
X110378210Y-108010288D01*
X110378213Y-108010292D01*
X110489707Y-108121786D01*
X110489711Y-108121789D01*
X110620814Y-108209390D01*
X110620827Y-108209397D01*
X110766498Y-108269735D01*
X110766503Y-108269737D01*
X110921153Y-108300499D01*
X110921156Y-108300500D01*
X110921158Y-108300500D01*
X111078844Y-108300500D01*
X111078845Y-108300499D01*
X111233497Y-108269737D01*
X111379179Y-108209394D01*
X111473826Y-108146153D01*
X116549500Y-108146153D01*
X116549500Y-108303846D01*
X116580261Y-108458489D01*
X116580264Y-108458501D01*
X116640602Y-108604172D01*
X116640609Y-108604185D01*
X116728210Y-108735288D01*
X116728213Y-108735292D01*
X116839707Y-108846786D01*
X116839711Y-108846789D01*
X116970814Y-108934390D01*
X116970827Y-108934397D01*
X117108683Y-108991498D01*
X117116503Y-108994737D01*
X117271153Y-109025499D01*
X117271156Y-109025500D01*
X117271158Y-109025500D01*
X117428844Y-109025500D01*
X117428845Y-109025499D01*
X117439179Y-109023443D01*
X117464287Y-109018450D01*
X117464292Y-109018449D01*
X117549800Y-109001439D01*
X117583497Y-108994737D01*
X117729179Y-108934394D01*
X117860289Y-108846789D01*
X117971789Y-108735289D01*
X118059394Y-108604179D01*
X118119737Y-108458497D01*
X118150500Y-108303842D01*
X118150500Y-108146158D01*
X118150500Y-108146155D01*
X118150499Y-108146153D01*
X118145652Y-108121786D01*
X118119737Y-107991503D01*
X118090010Y-107919735D01*
X118059397Y-107845827D01*
X118059390Y-107845814D01*
X117971789Y-107714711D01*
X117971786Y-107714707D01*
X117860292Y-107603213D01*
X117860288Y-107603210D01*
X117729185Y-107515609D01*
X117729172Y-107515602D01*
X117583501Y-107455264D01*
X117583489Y-107455261D01*
X117428845Y-107424500D01*
X117428842Y-107424500D01*
X117271158Y-107424500D01*
X117271155Y-107424500D01*
X117116510Y-107455261D01*
X117116498Y-107455264D01*
X116970827Y-107515602D01*
X116970814Y-107515609D01*
X116839711Y-107603210D01*
X116839707Y-107603213D01*
X116728213Y-107714707D01*
X116728210Y-107714711D01*
X116640609Y-107845814D01*
X116640602Y-107845827D01*
X116580264Y-107991498D01*
X116580261Y-107991510D01*
X116549500Y-108146153D01*
X111473826Y-108146153D01*
X111510289Y-108121789D01*
X111510292Y-108121786D01*
X111579694Y-108052385D01*
X111621786Y-108010292D01*
X111621789Y-108010289D01*
X111709394Y-107879179D01*
X111769737Y-107733497D01*
X111800500Y-107578842D01*
X111800500Y-107421158D01*
X111800500Y-107421155D01*
X111800499Y-107421153D01*
X111799795Y-107417614D01*
X111769737Y-107266503D01*
X111754138Y-107228844D01*
X111709394Y-107120820D01*
X111676207Y-107071153D01*
X119199500Y-107071153D01*
X119199500Y-107228846D01*
X119230261Y-107383489D01*
X119230264Y-107383501D01*
X119290602Y-107529172D01*
X119290609Y-107529185D01*
X119378210Y-107660288D01*
X119378213Y-107660292D01*
X119489707Y-107771786D01*
X119489711Y-107771789D01*
X119620814Y-107859390D01*
X119620827Y-107859397D01*
X119766498Y-107919735D01*
X119766503Y-107919737D01*
X119921153Y-107950499D01*
X119921156Y-107950500D01*
X119921158Y-107950500D01*
X120078844Y-107950500D01*
X120078845Y-107950499D01*
X120233497Y-107919737D01*
X120379179Y-107859394D01*
X120510289Y-107771789D01*
X120621789Y-107660289D01*
X120709394Y-107529179D01*
X120733429Y-107471153D01*
X122474500Y-107471153D01*
X122474500Y-107628846D01*
X122505261Y-107783489D01*
X122505264Y-107783501D01*
X122565602Y-107929172D01*
X122565609Y-107929185D01*
X122653210Y-108060288D01*
X122653213Y-108060292D01*
X122764707Y-108171786D01*
X122764711Y-108171789D01*
X122895814Y-108259390D01*
X122895827Y-108259397D01*
X123019992Y-108310827D01*
X123041503Y-108319737D01*
X123196153Y-108350499D01*
X123196156Y-108350500D01*
X123196158Y-108350500D01*
X123353844Y-108350500D01*
X123353845Y-108350499D01*
X123508497Y-108319737D01*
X123654179Y-108259394D01*
X123785289Y-108171789D01*
X123896789Y-108060289D01*
X123984394Y-107929179D01*
X124044737Y-107783497D01*
X124075500Y-107628842D01*
X124075500Y-107471158D01*
X124075500Y-107471155D01*
X124075499Y-107471153D01*
X124044738Y-107316510D01*
X124044737Y-107316503D01*
X124044735Y-107316498D01*
X123984397Y-107170827D01*
X123984390Y-107170814D01*
X123896789Y-107039711D01*
X123896786Y-107039707D01*
X123785292Y-106928213D01*
X123785288Y-106928210D01*
X123654185Y-106840609D01*
X123654172Y-106840602D01*
X123508501Y-106780264D01*
X123508489Y-106780261D01*
X123353845Y-106749500D01*
X123353842Y-106749500D01*
X123196158Y-106749500D01*
X123196155Y-106749500D01*
X123041510Y-106780261D01*
X123041498Y-106780264D01*
X122895827Y-106840602D01*
X122895814Y-106840609D01*
X122764711Y-106928210D01*
X122764707Y-106928213D01*
X122653213Y-107039707D01*
X122653210Y-107039711D01*
X122565609Y-107170814D01*
X122565602Y-107170827D01*
X122505264Y-107316498D01*
X122505261Y-107316510D01*
X122474500Y-107471153D01*
X120733429Y-107471153D01*
X120755603Y-107417621D01*
X120755605Y-107417614D01*
X120769737Y-107383497D01*
X120800500Y-107228842D01*
X120800500Y-107071158D01*
X120800500Y-107071155D01*
X120800499Y-107071153D01*
X120772066Y-106928211D01*
X120769737Y-106916503D01*
X120738298Y-106840602D01*
X120709397Y-106770827D01*
X120709390Y-106770814D01*
X120621789Y-106639711D01*
X120621786Y-106639707D01*
X120510292Y-106528213D01*
X120510288Y-106528210D01*
X120379185Y-106440609D01*
X120379172Y-106440602D01*
X120233501Y-106380264D01*
X120233489Y-106380261D01*
X120078845Y-106349500D01*
X120078842Y-106349500D01*
X119921158Y-106349500D01*
X119921155Y-106349500D01*
X119766510Y-106380261D01*
X119766498Y-106380264D01*
X119620827Y-106440602D01*
X119620814Y-106440609D01*
X119489711Y-106528210D01*
X119489707Y-106528213D01*
X119378213Y-106639707D01*
X119378210Y-106639711D01*
X119290609Y-106770814D01*
X119290602Y-106770827D01*
X119230264Y-106916498D01*
X119230261Y-106916510D01*
X119199500Y-107071153D01*
X111676207Y-107071153D01*
X111621789Y-106989711D01*
X111621786Y-106989707D01*
X111510292Y-106878213D01*
X111510288Y-106878210D01*
X111379185Y-106790609D01*
X111379172Y-106790602D01*
X111233501Y-106730264D01*
X111233489Y-106730261D01*
X111078845Y-106699500D01*
X111078842Y-106699500D01*
X110921158Y-106699500D01*
X110921155Y-106699500D01*
X110766510Y-106730261D01*
X110766498Y-106730264D01*
X110620827Y-106790602D01*
X110620814Y-106790609D01*
X110489711Y-106878210D01*
X110489707Y-106878213D01*
X110378213Y-106989707D01*
X110378210Y-106989711D01*
X110290609Y-107120814D01*
X110290602Y-107120827D01*
X110230264Y-107266498D01*
X110230261Y-107266510D01*
X110199500Y-107421153D01*
X102500500Y-107421153D01*
X102500500Y-103371361D01*
X116174196Y-103371361D01*
X116174196Y-103529054D01*
X116204957Y-103683697D01*
X116204960Y-103683709D01*
X116265298Y-103829380D01*
X116265305Y-103829393D01*
X116352906Y-103960496D01*
X116352909Y-103960500D01*
X116464403Y-104071994D01*
X116464407Y-104071997D01*
X116595510Y-104159598D01*
X116595523Y-104159605D01*
X116741194Y-104219943D01*
X116741199Y-104219945D01*
X116895849Y-104250707D01*
X116895852Y-104250708D01*
X116895854Y-104250708D01*
X117053540Y-104250708D01*
X117053541Y-104250707D01*
X117208193Y-104219945D01*
X117353875Y-104159602D01*
X117484985Y-104071997D01*
X117596485Y-103960497D01*
X117684090Y-103829387D01*
X117744433Y-103683705D01*
X117775196Y-103529050D01*
X117775196Y-103371366D01*
X117775196Y-103371363D01*
X117775195Y-103371361D01*
X117744434Y-103216714D01*
X117744433Y-103216712D01*
X117744433Y-103216711D01*
X117729704Y-103181153D01*
X120469500Y-103181153D01*
X120469500Y-103338846D01*
X120500261Y-103493489D01*
X120500264Y-103493501D01*
X120560602Y-103639172D01*
X120560609Y-103639185D01*
X120648210Y-103770288D01*
X120648213Y-103770292D01*
X120759707Y-103881786D01*
X120759711Y-103881789D01*
X120890814Y-103969390D01*
X120890827Y-103969397D01*
X121036498Y-104029735D01*
X121036503Y-104029737D01*
X121191153Y-104060499D01*
X121191156Y-104060500D01*
X121191158Y-104060500D01*
X121348844Y-104060500D01*
X121348845Y-104060499D01*
X121503497Y-104029737D01*
X121649179Y-103969394D01*
X121780289Y-103881789D01*
X121891789Y-103770289D01*
X121979394Y-103639179D01*
X122039737Y-103493497D01*
X122070500Y-103338842D01*
X122070500Y-103181158D01*
X122070500Y-103181155D01*
X122070499Y-103181153D01*
X122039738Y-103026510D01*
X122039737Y-103026503D01*
X122003873Y-102939919D01*
X121979397Y-102880827D01*
X121979390Y-102880814D01*
X121891789Y-102749711D01*
X121891786Y-102749707D01*
X121780292Y-102638213D01*
X121780288Y-102638210D01*
X121649185Y-102550609D01*
X121649172Y-102550602D01*
X121503501Y-102490264D01*
X121503489Y-102490261D01*
X121348845Y-102459500D01*
X121348842Y-102459500D01*
X121191158Y-102459500D01*
X121191155Y-102459500D01*
X121036510Y-102490261D01*
X121036498Y-102490264D01*
X120890827Y-102550602D01*
X120890814Y-102550609D01*
X120759711Y-102638210D01*
X120759707Y-102638213D01*
X120648213Y-102749707D01*
X120648210Y-102749711D01*
X120560609Y-102880814D01*
X120560602Y-102880827D01*
X120500264Y-103026498D01*
X120500261Y-103026510D01*
X120469500Y-103181153D01*
X117729704Y-103181153D01*
X117712314Y-103139169D01*
X117684093Y-103071035D01*
X117684086Y-103071022D01*
X117596485Y-102939919D01*
X117596482Y-102939915D01*
X117484988Y-102828421D01*
X117484984Y-102828418D01*
X117353881Y-102740817D01*
X117353868Y-102740810D01*
X117208197Y-102680472D01*
X117208185Y-102680469D01*
X117053541Y-102649708D01*
X117053538Y-102649708D01*
X116895854Y-102649708D01*
X116895851Y-102649708D01*
X116741206Y-102680469D01*
X116741194Y-102680472D01*
X116595523Y-102740810D01*
X116595510Y-102740817D01*
X116464407Y-102828418D01*
X116464403Y-102828421D01*
X116352909Y-102939915D01*
X116352906Y-102939919D01*
X116265305Y-103071022D01*
X116265298Y-103071035D01*
X116204960Y-103216706D01*
X116204957Y-103216718D01*
X116174196Y-103371361D01*
X102500500Y-103371361D01*
X102500500Y-101741153D01*
X112989500Y-101741153D01*
X112989500Y-101898846D01*
X113020261Y-102053489D01*
X113020264Y-102053501D01*
X113080602Y-102199172D01*
X113080609Y-102199185D01*
X113168210Y-102330288D01*
X113168213Y-102330292D01*
X113279707Y-102441786D01*
X113279711Y-102441789D01*
X113410814Y-102529390D01*
X113410827Y-102529397D01*
X113556498Y-102589735D01*
X113556503Y-102589737D01*
X113711153Y-102620499D01*
X113711156Y-102620500D01*
X113711158Y-102620500D01*
X113868844Y-102620500D01*
X113868845Y-102620499D01*
X114023497Y-102589737D01*
X114169179Y-102529394D01*
X114300289Y-102441789D01*
X114411789Y-102330289D01*
X114499394Y-102199179D01*
X114559737Y-102053497D01*
X114590500Y-101898842D01*
X114590500Y-101741158D01*
X114590500Y-101741155D01*
X114590499Y-101741153D01*
X114567694Y-101626507D01*
X114559737Y-101586503D01*
X114552792Y-101569735D01*
X114499397Y-101440827D01*
X114499390Y-101440814D01*
X114411789Y-101309711D01*
X114411786Y-101309707D01*
X114300292Y-101198213D01*
X114300288Y-101198210D01*
X114169185Y-101110609D01*
X114169172Y-101110602D01*
X114023501Y-101050264D01*
X114023489Y-101050261D01*
X113868845Y-101019500D01*
X113868842Y-101019500D01*
X113711158Y-101019500D01*
X113711155Y-101019500D01*
X113556510Y-101050261D01*
X113556498Y-101050264D01*
X113410827Y-101110602D01*
X113410814Y-101110609D01*
X113279711Y-101198210D01*
X113279707Y-101198213D01*
X113168213Y-101309707D01*
X113168210Y-101309711D01*
X113080609Y-101440814D01*
X113080602Y-101440827D01*
X113020264Y-101586498D01*
X113020261Y-101586510D01*
X112989500Y-101741153D01*
X102500500Y-101741153D01*
X102500500Y-99811153D01*
X108369500Y-99811153D01*
X108369500Y-99968846D01*
X108400261Y-100123489D01*
X108400264Y-100123501D01*
X108460602Y-100269172D01*
X108460609Y-100269185D01*
X108548210Y-100400288D01*
X108548213Y-100400292D01*
X108659707Y-100511786D01*
X108659711Y-100511789D01*
X108790814Y-100599390D01*
X108790827Y-100599397D01*
X108936498Y-100659735D01*
X108936503Y-100659737D01*
X109091153Y-100690499D01*
X109091156Y-100690500D01*
X109091158Y-100690500D01*
X109248844Y-100690500D01*
X109248845Y-100690499D01*
X109403497Y-100659737D01*
X109539264Y-100603501D01*
X109549172Y-100599397D01*
X109549172Y-100599396D01*
X109549179Y-100599394D01*
X109680289Y-100511789D01*
X109791789Y-100400289D01*
X109864711Y-100291153D01*
X111119500Y-100291153D01*
X111119500Y-100448846D01*
X111150261Y-100603489D01*
X111150264Y-100603501D01*
X111210602Y-100749172D01*
X111210609Y-100749185D01*
X111298210Y-100880288D01*
X111298213Y-100880292D01*
X111409707Y-100991786D01*
X111409711Y-100991789D01*
X111540814Y-101079390D01*
X111540827Y-101079397D01*
X111648138Y-101123846D01*
X111686503Y-101139737D01*
X111841153Y-101170499D01*
X111841156Y-101170500D01*
X111841158Y-101170500D01*
X111998844Y-101170500D01*
X111998845Y-101170499D01*
X112153497Y-101139737D01*
X112299179Y-101079394D01*
X112430289Y-100991789D01*
X112541789Y-100880289D01*
X112629394Y-100749179D01*
X112641003Y-100721153D01*
X120459500Y-100721153D01*
X120459500Y-100878846D01*
X120490261Y-101033489D01*
X120490264Y-101033501D01*
X120550602Y-101179172D01*
X120550609Y-101179185D01*
X120638210Y-101310288D01*
X120638213Y-101310292D01*
X120749707Y-101421786D01*
X120749711Y-101421789D01*
X120880814Y-101509390D01*
X120880827Y-101509397D01*
X120953320Y-101539424D01*
X121026503Y-101569737D01*
X121181153Y-101600499D01*
X121181156Y-101600500D01*
X121181158Y-101600500D01*
X121338844Y-101600500D01*
X121338845Y-101600499D01*
X121493497Y-101569737D01*
X121639179Y-101509394D01*
X121770289Y-101421789D01*
X121881789Y-101310289D01*
X121969394Y-101179179D01*
X122029737Y-101033497D01*
X122038034Y-100991786D01*
X122043133Y-100966153D01*
X129914500Y-100966153D01*
X129914500Y-101123846D01*
X129945261Y-101278489D01*
X129945264Y-101278501D01*
X130005604Y-101424177D01*
X130008476Y-101429549D01*
X130007125Y-101430271D01*
X130025750Y-101489766D01*
X130016331Y-101539424D01*
X129980263Y-101626503D01*
X129980262Y-101626506D01*
X129980262Y-101626507D01*
X129980261Y-101626510D01*
X129949500Y-101781153D01*
X129949500Y-101938846D01*
X129980261Y-102093489D01*
X129980264Y-102093501D01*
X130040602Y-102239172D01*
X130040609Y-102239185D01*
X130128210Y-102370288D01*
X130128213Y-102370292D01*
X130239707Y-102481786D01*
X130239711Y-102481789D01*
X130370814Y-102569390D01*
X130370827Y-102569397D01*
X130516498Y-102629735D01*
X130516503Y-102629737D01*
X130671153Y-102660499D01*
X130671156Y-102660500D01*
X130671158Y-102660500D01*
X130828844Y-102660500D01*
X130828845Y-102660499D01*
X130983497Y-102629737D01*
X131129179Y-102569394D01*
X131260289Y-102481789D01*
X131371789Y-102370289D01*
X131459394Y-102239179D01*
X131519737Y-102093497D01*
X131550500Y-101938842D01*
X131550500Y-101781158D01*
X131550500Y-101781155D01*
X131550499Y-101781153D01*
X131519738Y-101626510D01*
X131519737Y-101626503D01*
X131508966Y-101600499D01*
X131459397Y-101480827D01*
X131456521Y-101475446D01*
X131457876Y-101474721D01*
X131439249Y-101415255D01*
X131448667Y-101365577D01*
X131484737Y-101278497D01*
X131515500Y-101123842D01*
X131515500Y-101073773D01*
X131535185Y-101006734D01*
X131587989Y-100960979D01*
X131657147Y-100951035D01*
X131686944Y-100959209D01*
X131736503Y-100979737D01*
X131872225Y-101006734D01*
X131891153Y-101010499D01*
X131891156Y-101010500D01*
X131891158Y-101010500D01*
X132048844Y-101010500D01*
X132048845Y-101010499D01*
X132203497Y-100979737D01*
X132349179Y-100919394D01*
X132480289Y-100831789D01*
X132591789Y-100720289D01*
X132679394Y-100589179D01*
X132739737Y-100443497D01*
X132770500Y-100288842D01*
X132770500Y-100131158D01*
X132770500Y-100131155D01*
X132770499Y-100131153D01*
X132750431Y-100030264D01*
X132739737Y-99976503D01*
X132691359Y-99859707D01*
X132679397Y-99830827D01*
X132679390Y-99830814D01*
X132591789Y-99699711D01*
X132591786Y-99699707D01*
X132516085Y-99624006D01*
X132482600Y-99562683D01*
X132487584Y-99492991D01*
X132529456Y-99437058D01*
X132556313Y-99421765D01*
X132579179Y-99412294D01*
X132710289Y-99324689D01*
X132821789Y-99213189D01*
X132909394Y-99082079D01*
X132969737Y-98936397D01*
X133000500Y-98781742D01*
X133000500Y-98624058D01*
X133000500Y-98624055D01*
X133000499Y-98624053D01*
X132969737Y-98469403D01*
X132969735Y-98469398D01*
X132909397Y-98323727D01*
X132909390Y-98323714D01*
X132821789Y-98192611D01*
X132821786Y-98192607D01*
X132710292Y-98081113D01*
X132710288Y-98081110D01*
X132579185Y-97993509D01*
X132579172Y-97993502D01*
X132433501Y-97933164D01*
X132433489Y-97933161D01*
X132278845Y-97902400D01*
X132278842Y-97902400D01*
X132121158Y-97902400D01*
X132121155Y-97902400D01*
X131966510Y-97933161D01*
X131966498Y-97933164D01*
X131820827Y-97993502D01*
X131820814Y-97993509D01*
X131689711Y-98081110D01*
X131689707Y-98081113D01*
X131578213Y-98192607D01*
X131578210Y-98192611D01*
X131490609Y-98323714D01*
X131490602Y-98323727D01*
X131430264Y-98469398D01*
X131430261Y-98469410D01*
X131399500Y-98624053D01*
X131399500Y-98781746D01*
X131430261Y-98936389D01*
X131430264Y-98936401D01*
X131490602Y-99082072D01*
X131490609Y-99082085D01*
X131578210Y-99213188D01*
X131578213Y-99213192D01*
X131653913Y-99288892D01*
X131687398Y-99350215D01*
X131682414Y-99419907D01*
X131640542Y-99475840D01*
X131613689Y-99491132D01*
X131590828Y-99500601D01*
X131590814Y-99500609D01*
X131459711Y-99588210D01*
X131459707Y-99588213D01*
X131348213Y-99699707D01*
X131348210Y-99699711D01*
X131260609Y-99830814D01*
X131260602Y-99830827D01*
X131200264Y-99976498D01*
X131200261Y-99976510D01*
X131169500Y-100131153D01*
X131169500Y-100181226D01*
X131149815Y-100248265D01*
X131097011Y-100294020D01*
X131027853Y-100303964D01*
X130998048Y-100295787D01*
X130948501Y-100275264D01*
X130948489Y-100275261D01*
X130793845Y-100244500D01*
X130793842Y-100244500D01*
X130636158Y-100244500D01*
X130636155Y-100244500D01*
X130481510Y-100275261D01*
X130481498Y-100275264D01*
X130335827Y-100335602D01*
X130335814Y-100335609D01*
X130204711Y-100423210D01*
X130204707Y-100423213D01*
X130093213Y-100534707D01*
X130093210Y-100534711D01*
X130005609Y-100665814D01*
X130005602Y-100665827D01*
X129945264Y-100811498D01*
X129945261Y-100811510D01*
X129914500Y-100966153D01*
X122043133Y-100966153D01*
X122049156Y-100935874D01*
X122049156Y-100935873D01*
X122055373Y-100904615D01*
X122060500Y-100878842D01*
X122060500Y-100721158D01*
X122060500Y-100721155D01*
X122060499Y-100721153D01*
X122054402Y-100690500D01*
X122029737Y-100566503D01*
X122029735Y-100566498D01*
X121969397Y-100420827D01*
X121969390Y-100420814D01*
X121881789Y-100289711D01*
X121881786Y-100289707D01*
X121770292Y-100178213D01*
X121770288Y-100178210D01*
X121639185Y-100090609D01*
X121639172Y-100090602D01*
X121493501Y-100030264D01*
X121493489Y-100030261D01*
X121338845Y-99999500D01*
X121338842Y-99999500D01*
X121181158Y-99999500D01*
X121181155Y-99999500D01*
X121026510Y-100030261D01*
X121026498Y-100030264D01*
X120880827Y-100090602D01*
X120880814Y-100090609D01*
X120749711Y-100178210D01*
X120749707Y-100178213D01*
X120638213Y-100289707D01*
X120638210Y-100289711D01*
X120550609Y-100420814D01*
X120550602Y-100420827D01*
X120490264Y-100566498D01*
X120490261Y-100566510D01*
X120459500Y-100721153D01*
X112641003Y-100721153D01*
X112689737Y-100603497D01*
X112720500Y-100448842D01*
X112720500Y-100291158D01*
X112720500Y-100291155D01*
X112720499Y-100291153D01*
X112698633Y-100181226D01*
X112689737Y-100136503D01*
X112687521Y-100131153D01*
X112629397Y-99990827D01*
X112629390Y-99990814D01*
X112541789Y-99859711D01*
X112541786Y-99859707D01*
X112430292Y-99748213D01*
X112430288Y-99748210D01*
X112330573Y-99681582D01*
X112330571Y-99681580D01*
X112299190Y-99660612D01*
X112299172Y-99660602D01*
X112153501Y-99600264D01*
X112153489Y-99600261D01*
X112074591Y-99584567D01*
X117213420Y-99584567D01*
X117213420Y-99742260D01*
X117244181Y-99896903D01*
X117244184Y-99896915D01*
X117304522Y-100042586D01*
X117304529Y-100042599D01*
X117392130Y-100173702D01*
X117392133Y-100173706D01*
X117503627Y-100285200D01*
X117503631Y-100285203D01*
X117634734Y-100372804D01*
X117634747Y-100372811D01*
X117756430Y-100423213D01*
X117780423Y-100433151D01*
X117935073Y-100463913D01*
X117935076Y-100463914D01*
X117935078Y-100463914D01*
X118092764Y-100463914D01*
X118092765Y-100463913D01*
X118247417Y-100433151D01*
X118393099Y-100372808D01*
X118524209Y-100285203D01*
X118635709Y-100173703D01*
X118723314Y-100042593D01*
X118783657Y-99896911D01*
X118814420Y-99742256D01*
X118814420Y-99584572D01*
X118814420Y-99584569D01*
X118814419Y-99584567D01*
X118799750Y-99510821D01*
X118783657Y-99429917D01*
X118779511Y-99419907D01*
X118723317Y-99284241D01*
X118723310Y-99284228D01*
X118635709Y-99153125D01*
X118635706Y-99153121D01*
X118524212Y-99041627D01*
X118524208Y-99041624D01*
X118393105Y-98954023D01*
X118393092Y-98954016D01*
X118247421Y-98893678D01*
X118247409Y-98893675D01*
X118092765Y-98862914D01*
X118092762Y-98862914D01*
X117935078Y-98862914D01*
X117935075Y-98862914D01*
X117780430Y-98893675D01*
X117780418Y-98893678D01*
X117634747Y-98954016D01*
X117634734Y-98954023D01*
X117503631Y-99041624D01*
X117503627Y-99041627D01*
X117392133Y-99153121D01*
X117392130Y-99153125D01*
X117304529Y-99284228D01*
X117304522Y-99284241D01*
X117244184Y-99429912D01*
X117244181Y-99429924D01*
X117213420Y-99584567D01*
X112074591Y-99584567D01*
X111998845Y-99569500D01*
X111998842Y-99569500D01*
X111841158Y-99569500D01*
X111841155Y-99569500D01*
X111686510Y-99600261D01*
X111686498Y-99600264D01*
X111540827Y-99660602D01*
X111540814Y-99660609D01*
X111409711Y-99748210D01*
X111409707Y-99748213D01*
X111298213Y-99859707D01*
X111298210Y-99859711D01*
X111210609Y-99990814D01*
X111210602Y-99990827D01*
X111150264Y-100136498D01*
X111150261Y-100136510D01*
X111119500Y-100291153D01*
X109864711Y-100291153D01*
X109879394Y-100269179D01*
X109888057Y-100248265D01*
X109892469Y-100237614D01*
X109934352Y-100136498D01*
X109939737Y-100123497D01*
X109970500Y-99968842D01*
X109970500Y-99811158D01*
X109970500Y-99811155D01*
X109970499Y-99811153D01*
X109956794Y-99742256D01*
X109939737Y-99656503D01*
X109939735Y-99656498D01*
X109879397Y-99510827D01*
X109879390Y-99510814D01*
X109791789Y-99379711D01*
X109791786Y-99379707D01*
X109680292Y-99268213D01*
X109680288Y-99268210D01*
X109549185Y-99180609D01*
X109549172Y-99180602D01*
X109403501Y-99120264D01*
X109403489Y-99120261D01*
X109248845Y-99089500D01*
X109248842Y-99089500D01*
X109091158Y-99089500D01*
X109091155Y-99089500D01*
X108936510Y-99120261D01*
X108936498Y-99120264D01*
X108790827Y-99180602D01*
X108790814Y-99180609D01*
X108659711Y-99268210D01*
X108659707Y-99268213D01*
X108548213Y-99379707D01*
X108548210Y-99379711D01*
X108460609Y-99510814D01*
X108460602Y-99510827D01*
X108400264Y-99656498D01*
X108400261Y-99656510D01*
X108369500Y-99811153D01*
X102500500Y-99811153D01*
X102500500Y-98411153D01*
X124509500Y-98411153D01*
X124509500Y-98568846D01*
X124540261Y-98723489D01*
X124540264Y-98723501D01*
X124600602Y-98869172D01*
X124600609Y-98869185D01*
X124688210Y-99000288D01*
X124688213Y-99000292D01*
X124799707Y-99111786D01*
X124799711Y-99111789D01*
X124930814Y-99199390D01*
X124930827Y-99199397D01*
X125076498Y-99259735D01*
X125076503Y-99259737D01*
X125223074Y-99288892D01*
X125231153Y-99290499D01*
X125231156Y-99290500D01*
X125231158Y-99290500D01*
X125388844Y-99290500D01*
X125388845Y-99290499D01*
X125543497Y-99259737D01*
X125689179Y-99199394D01*
X125820289Y-99111789D01*
X125931789Y-99000289D01*
X126019394Y-98869179D01*
X126079737Y-98723497D01*
X126080203Y-98721153D01*
X127949500Y-98721153D01*
X127949500Y-98878846D01*
X127980261Y-99033489D01*
X127980264Y-99033501D01*
X128040602Y-99179172D01*
X128040609Y-99179185D01*
X128128210Y-99310288D01*
X128128213Y-99310292D01*
X128239707Y-99421786D01*
X128239711Y-99421789D01*
X128370814Y-99509390D01*
X128370827Y-99509397D01*
X128499473Y-99562683D01*
X128516503Y-99569737D01*
X128669967Y-99600263D01*
X128671153Y-99600499D01*
X128671156Y-99600500D01*
X128671158Y-99600500D01*
X128828844Y-99600500D01*
X128828845Y-99600499D01*
X128983497Y-99569737D01*
X129096166Y-99523067D01*
X129129172Y-99509397D01*
X129129172Y-99509396D01*
X129129179Y-99509394D01*
X129260289Y-99421789D01*
X129371789Y-99310289D01*
X129459394Y-99179179D01*
X129470188Y-99153121D01*
X129516370Y-99041625D01*
X129519737Y-99033497D01*
X129550500Y-98878842D01*
X129550500Y-98721158D01*
X129550500Y-98721155D01*
X129550499Y-98721153D01*
X129544476Y-98690873D01*
X129519737Y-98566503D01*
X129479520Y-98469410D01*
X129459397Y-98420827D01*
X129459390Y-98420814D01*
X129371789Y-98289711D01*
X129371786Y-98289707D01*
X129260292Y-98178213D01*
X129260288Y-98178210D01*
X129129185Y-98090609D01*
X129129172Y-98090602D01*
X128983501Y-98030264D01*
X128983489Y-98030261D01*
X128828845Y-97999500D01*
X128828842Y-97999500D01*
X128671158Y-97999500D01*
X128671155Y-97999500D01*
X128516510Y-98030261D01*
X128516498Y-98030264D01*
X128370827Y-98090602D01*
X128370814Y-98090609D01*
X128239711Y-98178210D01*
X128239707Y-98178213D01*
X128128213Y-98289707D01*
X128128210Y-98289711D01*
X128040609Y-98420814D01*
X128040602Y-98420827D01*
X127980264Y-98566498D01*
X127980261Y-98566510D01*
X127949500Y-98721153D01*
X126080203Y-98721153D01*
X126086227Y-98690873D01*
X126086227Y-98690871D01*
X126110499Y-98568846D01*
X126110500Y-98568844D01*
X126110500Y-98411155D01*
X126110499Y-98411153D01*
X126093109Y-98323727D01*
X126079737Y-98256503D01*
X126079735Y-98256498D01*
X126019397Y-98110827D01*
X126019390Y-98110814D01*
X125931789Y-97979711D01*
X125931786Y-97979707D01*
X125820292Y-97868213D01*
X125820288Y-97868210D01*
X125689185Y-97780609D01*
X125689172Y-97780602D01*
X125543501Y-97720264D01*
X125543489Y-97720261D01*
X125388845Y-97689500D01*
X125388842Y-97689500D01*
X125231158Y-97689500D01*
X125231155Y-97689500D01*
X125076510Y-97720261D01*
X125076498Y-97720264D01*
X124930827Y-97780602D01*
X124930814Y-97780609D01*
X124799711Y-97868210D01*
X124799707Y-97868213D01*
X124688213Y-97979707D01*
X124688210Y-97979711D01*
X124600609Y-98110814D01*
X124600602Y-98110827D01*
X124540264Y-98256498D01*
X124540261Y-98256510D01*
X124509500Y-98411153D01*
X102500500Y-98411153D01*
X102500500Y-96371153D01*
X117699500Y-96371153D01*
X117699500Y-96528846D01*
X117730261Y-96683489D01*
X117730264Y-96683501D01*
X117790602Y-96829172D01*
X117790609Y-96829185D01*
X117878210Y-96960288D01*
X117878213Y-96960292D01*
X117989707Y-97071786D01*
X117989711Y-97071789D01*
X118120814Y-97159390D01*
X118120827Y-97159397D01*
X118266498Y-97219735D01*
X118266503Y-97219737D01*
X118421153Y-97250499D01*
X118421156Y-97250500D01*
X118421158Y-97250500D01*
X118578844Y-97250500D01*
X118578845Y-97250499D01*
X118733497Y-97219737D01*
X118879179Y-97159394D01*
X119010289Y-97071789D01*
X119121789Y-96960289D01*
X119209394Y-96829179D01*
X119269737Y-96683497D01*
X119300500Y-96528842D01*
X119300500Y-96371158D01*
X119300500Y-96371155D01*
X119300499Y-96371153D01*
X119291104Y-96323920D01*
X119269737Y-96216503D01*
X119269735Y-96216498D01*
X119209397Y-96070827D01*
X119209390Y-96070814D01*
X119127690Y-95948543D01*
X137579499Y-95948543D01*
X137617947Y-96141829D01*
X137617950Y-96141839D01*
X137693364Y-96323907D01*
X137693371Y-96323920D01*
X137802860Y-96487781D01*
X137802863Y-96487785D01*
X137942214Y-96627136D01*
X137942218Y-96627139D01*
X138106079Y-96736628D01*
X138106092Y-96736635D01*
X138288160Y-96812049D01*
X138288165Y-96812051D01*
X138288169Y-96812051D01*
X138288170Y-96812052D01*
X138481456Y-96850500D01*
X138481459Y-96850500D01*
X139778543Y-96850500D01*
X139908582Y-96824632D01*
X139971835Y-96812051D01*
X140153914Y-96736632D01*
X140317782Y-96627139D01*
X140457139Y-96487782D01*
X140566632Y-96323914D01*
X140642051Y-96141835D01*
X140680500Y-95948543D01*
X141909499Y-95948543D01*
X141947947Y-96141829D01*
X141947950Y-96141839D01*
X142023364Y-96323907D01*
X142023371Y-96323920D01*
X142132860Y-96487781D01*
X142132863Y-96487785D01*
X142272214Y-96627136D01*
X142272218Y-96627139D01*
X142436079Y-96736628D01*
X142436092Y-96736635D01*
X142618160Y-96812049D01*
X142618165Y-96812051D01*
X142618169Y-96812051D01*
X142618170Y-96812052D01*
X142811456Y-96850500D01*
X142811459Y-96850500D01*
X143808543Y-96850500D01*
X143938582Y-96824632D01*
X144001835Y-96812051D01*
X144183914Y-96736632D01*
X144347782Y-96627139D01*
X144487139Y-96487782D01*
X144596632Y-96323914D01*
X144672051Y-96141835D01*
X144710500Y-95948541D01*
X144710500Y-95751459D01*
X144710500Y-95751456D01*
X144672052Y-95558170D01*
X144672051Y-95558169D01*
X144672051Y-95558165D01*
X144672049Y-95558160D01*
X144596635Y-95376092D01*
X144596628Y-95376079D01*
X144487139Y-95212218D01*
X144487136Y-95212214D01*
X144347785Y-95072863D01*
X144347781Y-95072860D01*
X144183920Y-94963371D01*
X144183907Y-94963364D01*
X144001839Y-94887950D01*
X144001829Y-94887947D01*
X143808543Y-94849500D01*
X143808541Y-94849500D01*
X142811459Y-94849500D01*
X142811457Y-94849500D01*
X142618170Y-94887947D01*
X142618160Y-94887950D01*
X142436092Y-94963364D01*
X142436079Y-94963371D01*
X142272218Y-95072860D01*
X142272214Y-95072863D01*
X142132863Y-95212214D01*
X142132860Y-95212218D01*
X142023371Y-95376079D01*
X142023364Y-95376092D01*
X141947950Y-95558160D01*
X141947947Y-95558170D01*
X141909500Y-95751456D01*
X141909500Y-95751459D01*
X141909500Y-95948541D01*
X141909500Y-95948543D01*
X141909499Y-95948543D01*
X140680500Y-95948543D01*
X140680500Y-95948541D01*
X140680500Y-95751459D01*
X140680500Y-95751456D01*
X140642052Y-95558170D01*
X140642051Y-95558169D01*
X140642051Y-95558165D01*
X140642049Y-95558160D01*
X140566635Y-95376092D01*
X140566628Y-95376079D01*
X140457139Y-95212218D01*
X140457136Y-95212214D01*
X140317785Y-95072863D01*
X140317777Y-95072857D01*
X140163894Y-94970036D01*
X140119088Y-94916424D01*
X140110381Y-94847099D01*
X140129683Y-94798042D01*
X140184306Y-94716294D01*
X140184307Y-94716291D01*
X140184311Y-94716286D01*
X140231463Y-94602452D01*
X140255500Y-94481606D01*
X140255500Y-94358394D01*
X140231463Y-94237548D01*
X140184311Y-94123714D01*
X140184310Y-94123713D01*
X140184307Y-94123707D01*
X140115858Y-94021267D01*
X140115855Y-94021263D01*
X140028736Y-93934144D01*
X140028732Y-93934141D01*
X139926292Y-93865692D01*
X139926283Y-93865687D01*
X139812454Y-93818538D01*
X139812455Y-93818538D01*
X139812452Y-93818537D01*
X139812448Y-93818536D01*
X139812444Y-93818535D01*
X139691610Y-93794500D01*
X139691606Y-93794500D01*
X139568394Y-93794500D01*
X139568389Y-93794500D01*
X139447555Y-93818535D01*
X139447545Y-93818538D01*
X139333716Y-93865687D01*
X139333707Y-93865692D01*
X139231267Y-93934141D01*
X139231263Y-93934144D01*
X139144144Y-94021263D01*
X139144141Y-94021267D01*
X139075692Y-94123707D01*
X139075687Y-94123716D01*
X139028538Y-94237545D01*
X139028535Y-94237555D01*
X139004500Y-94358389D01*
X139004500Y-94481610D01*
X139028535Y-94602444D01*
X139028538Y-94602454D01*
X139059850Y-94678047D01*
X139067319Y-94747516D01*
X139036044Y-94809996D01*
X138975955Y-94845648D01*
X138945289Y-94849500D01*
X138481457Y-94849500D01*
X138288170Y-94887947D01*
X138288160Y-94887950D01*
X138106092Y-94963364D01*
X138106079Y-94963371D01*
X137942218Y-95072860D01*
X137942214Y-95072863D01*
X137802863Y-95212214D01*
X137802860Y-95212218D01*
X137693371Y-95376079D01*
X137693364Y-95376092D01*
X137617950Y-95558160D01*
X137617947Y-95558170D01*
X137579500Y-95751456D01*
X137579500Y-95751459D01*
X137579500Y-95948541D01*
X137579500Y-95948543D01*
X137579499Y-95948543D01*
X119127690Y-95948543D01*
X119121789Y-95939711D01*
X119121786Y-95939707D01*
X119010292Y-95828213D01*
X119010288Y-95828210D01*
X118879185Y-95740609D01*
X118879172Y-95740602D01*
X118733501Y-95680264D01*
X118733489Y-95680261D01*
X118578845Y-95649500D01*
X118578842Y-95649500D01*
X118421158Y-95649500D01*
X118421155Y-95649500D01*
X118266510Y-95680261D01*
X118266498Y-95680264D01*
X118120827Y-95740602D01*
X118120814Y-95740609D01*
X117989711Y-95828210D01*
X117989707Y-95828213D01*
X117878213Y-95939707D01*
X117878210Y-95939711D01*
X117790609Y-96070814D01*
X117790602Y-96070827D01*
X117730264Y-96216498D01*
X117730261Y-96216510D01*
X117699500Y-96371153D01*
X102500500Y-96371153D01*
X102500500Y-90082135D01*
X104789500Y-90082135D01*
X104789500Y-91977870D01*
X104789501Y-91977876D01*
X104795908Y-92037483D01*
X104846202Y-92172328D01*
X104846206Y-92172335D01*
X104932452Y-92287544D01*
X104932455Y-92287547D01*
X105047664Y-92373793D01*
X105047671Y-92373797D01*
X105182517Y-92424091D01*
X105182516Y-92424091D01*
X105189444Y-92424835D01*
X105242127Y-92430500D01*
X107137872Y-92430499D01*
X107197483Y-92424091D01*
X107332331Y-92373796D01*
X107362578Y-92351153D01*
X119874500Y-92351153D01*
X119874500Y-92508846D01*
X119905261Y-92663489D01*
X119905264Y-92663501D01*
X119965602Y-92809172D01*
X119965609Y-92809185D01*
X120053210Y-92940288D01*
X120053213Y-92940292D01*
X120164707Y-93051786D01*
X120164711Y-93051789D01*
X120295814Y-93139390D01*
X120295827Y-93139397D01*
X120406738Y-93185337D01*
X120441503Y-93199737D01*
X120596153Y-93230499D01*
X120596156Y-93230500D01*
X120596158Y-93230500D01*
X120753843Y-93230500D01*
X120784746Y-93224352D01*
X120887567Y-93203900D01*
X120957156Y-93210127D01*
X120980648Y-93222415D01*
X121110814Y-93309390D01*
X121110827Y-93309397D01*
X121256498Y-93369735D01*
X121256503Y-93369737D01*
X121411153Y-93400499D01*
X121411156Y-93400500D01*
X121411158Y-93400500D01*
X121568844Y-93400500D01*
X121568845Y-93400499D01*
X121723497Y-93369737D01*
X121869179Y-93309394D01*
X122000289Y-93221789D01*
X122111789Y-93110289D01*
X122199394Y-92979179D01*
X122259737Y-92833497D01*
X122290500Y-92678842D01*
X122290500Y-92521158D01*
X122290500Y-92521155D01*
X122290499Y-92521153D01*
X122285699Y-92497024D01*
X122259737Y-92366503D01*
X122239777Y-92318314D01*
X122199397Y-92220827D01*
X122199390Y-92220814D01*
X122111789Y-92089711D01*
X122111786Y-92089707D01*
X122000292Y-91978213D01*
X122000288Y-91978210D01*
X121869185Y-91890609D01*
X121869172Y-91890602D01*
X121723501Y-91830264D01*
X121723489Y-91830261D01*
X121568845Y-91799500D01*
X121568842Y-91799500D01*
X121411158Y-91799500D01*
X121411155Y-91799500D01*
X121277433Y-91826099D01*
X121207842Y-91819872D01*
X121184351Y-91807584D01*
X121054185Y-91720609D01*
X121054172Y-91720602D01*
X120908501Y-91660264D01*
X120908489Y-91660261D01*
X120753845Y-91629500D01*
X120753842Y-91629500D01*
X120596158Y-91629500D01*
X120596155Y-91629500D01*
X120441510Y-91660261D01*
X120441498Y-91660264D01*
X120295827Y-91720602D01*
X120295814Y-91720609D01*
X120164711Y-91808210D01*
X120164707Y-91808213D01*
X120053213Y-91919707D01*
X120053210Y-91919711D01*
X119965609Y-92050814D01*
X119965602Y-92050827D01*
X119905264Y-92196498D01*
X119905261Y-92196510D01*
X119874500Y-92351153D01*
X107362578Y-92351153D01*
X107447546Y-92287546D01*
X107533796Y-92172331D01*
X107584091Y-92037483D01*
X107590500Y-91977873D01*
X107590499Y-90846153D01*
X122329500Y-90846153D01*
X122329500Y-91003846D01*
X122360261Y-91158489D01*
X122360264Y-91158501D01*
X122420602Y-91304172D01*
X122420609Y-91304185D01*
X122508210Y-91435288D01*
X122508213Y-91435292D01*
X122518994Y-91446073D01*
X122552479Y-91507396D01*
X122552930Y-91557945D01*
X122541048Y-91617678D01*
X122541048Y-91775371D01*
X122571809Y-91930014D01*
X122571812Y-91930026D01*
X122632150Y-92075697D01*
X122632157Y-92075710D01*
X122719758Y-92206813D01*
X122719761Y-92206817D01*
X122831255Y-92318311D01*
X122831259Y-92318314D01*
X122962362Y-92405915D01*
X122962375Y-92405922D01*
X123108046Y-92466260D01*
X123108051Y-92466262D01*
X123262701Y-92497024D01*
X123262704Y-92497025D01*
X123262706Y-92497025D01*
X123420392Y-92497025D01*
X123420393Y-92497024D01*
X123575045Y-92466262D01*
X123720727Y-92405919D01*
X123851837Y-92318314D01*
X123963337Y-92206814D01*
X124050942Y-92075704D01*
X124111285Y-91930022D01*
X124142048Y-91775367D01*
X124142048Y-91617683D01*
X124142048Y-91617680D01*
X124142047Y-91617678D01*
X124120110Y-91507396D01*
X124111285Y-91463028D01*
X124104262Y-91446073D01*
X124050945Y-91317352D01*
X124050938Y-91317339D01*
X123963337Y-91186236D01*
X123963334Y-91186232D01*
X123952553Y-91175451D01*
X123919068Y-91114128D01*
X123918617Y-91063577D01*
X123930500Y-91003842D01*
X123930500Y-90846155D01*
X123930499Y-90846153D01*
X123899739Y-90691512D01*
X123899738Y-90691509D01*
X123899737Y-90691503D01*
X123891308Y-90671153D01*
X131849500Y-90671153D01*
X131849500Y-90828846D01*
X131880261Y-90983489D01*
X131880264Y-90983501D01*
X131940602Y-91129172D01*
X131940609Y-91129185D01*
X132028210Y-91260288D01*
X132028213Y-91260292D01*
X132139707Y-91371786D01*
X132139711Y-91371789D01*
X132270814Y-91459390D01*
X132270827Y-91459397D01*
X132351806Y-91492939D01*
X132416503Y-91519737D01*
X132571153Y-91550499D01*
X132571156Y-91550500D01*
X132571158Y-91550500D01*
X132728844Y-91550500D01*
X132728845Y-91550499D01*
X132883497Y-91519737D01*
X133029179Y-91459394D01*
X133160289Y-91371789D01*
X133271789Y-91260289D01*
X133359394Y-91129179D01*
X133419737Y-90983497D01*
X133450500Y-90828842D01*
X133450500Y-90671158D01*
X133450500Y-90671155D01*
X133450499Y-90671153D01*
X133425570Y-90545827D01*
X133419737Y-90516503D01*
X133377572Y-90414707D01*
X133359397Y-90370827D01*
X133359390Y-90370814D01*
X133271789Y-90239711D01*
X133271786Y-90239707D01*
X133160292Y-90128213D01*
X133160288Y-90128210D01*
X133029185Y-90040609D01*
X133029172Y-90040602D01*
X132883501Y-89980264D01*
X132883489Y-89980261D01*
X132728845Y-89949500D01*
X132728842Y-89949500D01*
X132571158Y-89949500D01*
X132571155Y-89949500D01*
X132416510Y-89980261D01*
X132416498Y-89980264D01*
X132270827Y-90040602D01*
X132270814Y-90040609D01*
X132139711Y-90128210D01*
X132139707Y-90128213D01*
X132028213Y-90239707D01*
X132028210Y-90239711D01*
X131940609Y-90370814D01*
X131940602Y-90370827D01*
X131880264Y-90516498D01*
X131880261Y-90516510D01*
X131849500Y-90671153D01*
X123891308Y-90671153D01*
X123839397Y-90545827D01*
X123839390Y-90545814D01*
X123751789Y-90414711D01*
X123751786Y-90414707D01*
X123640292Y-90303213D01*
X123640288Y-90303210D01*
X123509185Y-90215609D01*
X123509172Y-90215602D01*
X123363501Y-90155264D01*
X123363489Y-90155261D01*
X123208845Y-90124500D01*
X123208842Y-90124500D01*
X123051158Y-90124500D01*
X123051155Y-90124500D01*
X122896510Y-90155261D01*
X122896498Y-90155264D01*
X122750827Y-90215602D01*
X122750814Y-90215609D01*
X122619711Y-90303210D01*
X122619707Y-90303213D01*
X122508213Y-90414707D01*
X122508210Y-90414711D01*
X122420609Y-90545814D01*
X122420602Y-90545827D01*
X122360264Y-90691498D01*
X122360261Y-90691510D01*
X122329500Y-90846153D01*
X107590499Y-90846153D01*
X107590499Y-90082128D01*
X107584091Y-90022517D01*
X107568331Y-89980263D01*
X107533797Y-89887671D01*
X107533793Y-89887664D01*
X107447547Y-89772455D01*
X107447544Y-89772452D01*
X107332335Y-89686206D01*
X107332328Y-89686202D01*
X107197482Y-89635908D01*
X107197483Y-89635908D01*
X107137883Y-89629501D01*
X107137881Y-89629500D01*
X107137873Y-89629500D01*
X107137864Y-89629500D01*
X105242129Y-89629500D01*
X105242123Y-89629501D01*
X105182516Y-89635908D01*
X105047671Y-89686202D01*
X105047664Y-89686206D01*
X104932455Y-89772452D01*
X104932452Y-89772455D01*
X104846206Y-89887664D01*
X104846202Y-89887671D01*
X104795908Y-90022517D01*
X104789501Y-90082116D01*
X104789501Y-90082123D01*
X104789500Y-90082135D01*
X102500500Y-90082135D01*
X102500500Y-89361153D01*
X125959500Y-89361153D01*
X125959500Y-89518846D01*
X125990261Y-89673489D01*
X125990264Y-89673501D01*
X126050602Y-89819172D01*
X126050609Y-89819185D01*
X126138210Y-89950288D01*
X126138213Y-89950292D01*
X126249707Y-90061786D01*
X126249711Y-90061789D01*
X126380814Y-90149390D01*
X126380827Y-90149397D01*
X126526498Y-90209735D01*
X126526503Y-90209737D01*
X126681153Y-90240499D01*
X126681156Y-90240500D01*
X126681158Y-90240500D01*
X126838844Y-90240500D01*
X126838845Y-90240499D01*
X126993497Y-90209737D01*
X127106166Y-90163067D01*
X127139172Y-90149397D01*
X127139172Y-90149396D01*
X127139179Y-90149394D01*
X127270289Y-90061789D01*
X127381789Y-89950289D01*
X127469394Y-89819179D01*
X127529737Y-89673497D01*
X127560500Y-89518842D01*
X127560500Y-89361158D01*
X127560500Y-89361155D01*
X127560499Y-89361153D01*
X127536691Y-89241463D01*
X127529737Y-89206503D01*
X127496332Y-89125855D01*
X127469397Y-89060827D01*
X127469390Y-89060814D01*
X127381789Y-88929711D01*
X127381786Y-88929707D01*
X127270292Y-88818213D01*
X127270288Y-88818210D01*
X127139185Y-88730609D01*
X127139172Y-88730602D01*
X126993501Y-88670264D01*
X126993489Y-88670261D01*
X126838845Y-88639500D01*
X126838842Y-88639500D01*
X126681158Y-88639500D01*
X126681155Y-88639500D01*
X126526510Y-88670261D01*
X126526498Y-88670264D01*
X126380827Y-88730602D01*
X126380814Y-88730609D01*
X126249711Y-88818210D01*
X126249707Y-88818213D01*
X126138213Y-88929707D01*
X126138210Y-88929711D01*
X126050609Y-89060814D01*
X126050602Y-89060827D01*
X125990264Y-89206498D01*
X125990261Y-89206510D01*
X125959500Y-89361153D01*
X102500500Y-89361153D01*
X102500500Y-87109778D01*
X104789500Y-87109778D01*
X104789500Y-87330222D01*
X104789648Y-87331155D01*
X104823985Y-87547952D01*
X104892103Y-87757603D01*
X104892104Y-87757606D01*
X104908192Y-87789179D01*
X104974996Y-87920288D01*
X104992187Y-87954025D01*
X105121752Y-88132358D01*
X105121756Y-88132363D01*
X105277636Y-88288243D01*
X105277641Y-88288247D01*
X105365593Y-88352147D01*
X105455978Y-88417815D01*
X105584375Y-88483237D01*
X105652393Y-88517895D01*
X105652396Y-88517896D01*
X105757221Y-88551955D01*
X105862049Y-88586015D01*
X106079778Y-88620500D01*
X106079779Y-88620500D01*
X106300221Y-88620500D01*
X106300222Y-88620500D01*
X106517951Y-88586015D01*
X106727606Y-88517895D01*
X106924022Y-88417815D01*
X107102365Y-88288242D01*
X107258242Y-88132365D01*
X107387815Y-87954022D01*
X107487895Y-87757606D01*
X107556015Y-87547951D01*
X107590353Y-87331153D01*
X125709500Y-87331153D01*
X125709500Y-87488846D01*
X125740261Y-87643489D01*
X125740264Y-87643501D01*
X125800602Y-87789172D01*
X125800609Y-87789185D01*
X125888210Y-87920288D01*
X125888213Y-87920292D01*
X125999707Y-88031786D01*
X125999711Y-88031789D01*
X126130814Y-88119390D01*
X126130827Y-88119397D01*
X126276498Y-88179735D01*
X126276503Y-88179737D01*
X126431153Y-88210499D01*
X126431156Y-88210500D01*
X126431158Y-88210500D01*
X126588844Y-88210500D01*
X126588845Y-88210499D01*
X126743497Y-88179737D01*
X126889179Y-88119394D01*
X127020289Y-88031789D01*
X127131789Y-87920289D01*
X127219394Y-87789179D01*
X127279737Y-87643497D01*
X127310500Y-87488842D01*
X127310500Y-87331158D01*
X127310500Y-87331155D01*
X127310499Y-87331153D01*
X127306002Y-87308543D01*
X137579499Y-87308543D01*
X137617947Y-87501829D01*
X137617950Y-87501839D01*
X137693364Y-87683907D01*
X137693371Y-87683920D01*
X137802860Y-87847781D01*
X137802863Y-87847785D01*
X137942214Y-87987136D01*
X137942218Y-87987139D01*
X138106079Y-88096628D01*
X138106092Y-88096635D01*
X138288160Y-88172049D01*
X138288165Y-88172051D01*
X138288169Y-88172051D01*
X138288170Y-88172052D01*
X138481456Y-88210500D01*
X138481459Y-88210500D01*
X138945289Y-88210500D01*
X139012328Y-88230185D01*
X139058083Y-88282989D01*
X139068027Y-88352147D01*
X139059850Y-88381953D01*
X139028538Y-88457545D01*
X139028535Y-88457555D01*
X139004500Y-88578389D01*
X139004500Y-88701610D01*
X139028535Y-88822444D01*
X139028538Y-88822454D01*
X139075687Y-88936283D01*
X139075692Y-88936292D01*
X139144141Y-89038732D01*
X139144144Y-89038736D01*
X139231263Y-89125855D01*
X139231267Y-89125858D01*
X139333707Y-89194307D01*
X139333713Y-89194310D01*
X139333714Y-89194311D01*
X139447548Y-89241463D01*
X139568389Y-89265499D01*
X139568393Y-89265500D01*
X139568394Y-89265500D01*
X139691607Y-89265500D01*
X139691608Y-89265499D01*
X139812452Y-89241463D01*
X139926286Y-89194311D01*
X140028733Y-89125858D01*
X140115858Y-89038733D01*
X140184311Y-88936286D01*
X140231463Y-88822452D01*
X140255500Y-88701606D01*
X140255500Y-88578394D01*
X140231463Y-88457548D01*
X140184311Y-88343714D01*
X140129682Y-88261956D01*
X140108804Y-88195279D01*
X140127288Y-88127899D01*
X140163889Y-88089966D01*
X140317782Y-87987139D01*
X140457139Y-87847782D01*
X140566632Y-87683914D01*
X140642051Y-87501835D01*
X140676002Y-87331153D01*
X140680500Y-87308543D01*
X141909499Y-87308543D01*
X141947947Y-87501829D01*
X141947950Y-87501839D01*
X142023364Y-87683907D01*
X142023371Y-87683920D01*
X142132860Y-87847781D01*
X142132863Y-87847785D01*
X142272214Y-87987136D01*
X142272218Y-87987139D01*
X142436079Y-88096628D01*
X142436092Y-88096635D01*
X142618160Y-88172049D01*
X142618165Y-88172051D01*
X142618169Y-88172051D01*
X142618170Y-88172052D01*
X142811456Y-88210500D01*
X142811459Y-88210500D01*
X143808543Y-88210500D01*
X143963205Y-88179735D01*
X144001835Y-88172051D01*
X144183914Y-88096632D01*
X144347782Y-87987139D01*
X144487139Y-87847782D01*
X144596632Y-87683914D01*
X144672051Y-87501835D01*
X144706002Y-87331153D01*
X144710500Y-87308543D01*
X144710500Y-87111456D01*
X144672052Y-86918170D01*
X144672051Y-86918169D01*
X144672051Y-86918165D01*
X144664406Y-86899707D01*
X144596635Y-86736092D01*
X144596628Y-86736079D01*
X144487139Y-86572218D01*
X144487136Y-86572214D01*
X144347785Y-86432863D01*
X144347781Y-86432860D01*
X144183920Y-86323371D01*
X144183907Y-86323364D01*
X144001839Y-86247950D01*
X144001829Y-86247947D01*
X143808543Y-86209500D01*
X143808541Y-86209500D01*
X142811459Y-86209500D01*
X142811457Y-86209500D01*
X142618170Y-86247947D01*
X142618160Y-86247950D01*
X142436092Y-86323364D01*
X142436079Y-86323371D01*
X142272218Y-86432860D01*
X142272214Y-86432863D01*
X142132863Y-86572214D01*
X142132860Y-86572218D01*
X142023371Y-86736079D01*
X142023364Y-86736092D01*
X141947950Y-86918160D01*
X141947947Y-86918170D01*
X141909500Y-87111456D01*
X141909500Y-87111459D01*
X141909500Y-87308541D01*
X141909500Y-87308543D01*
X141909499Y-87308543D01*
X140680500Y-87308543D01*
X140680500Y-87111456D01*
X140642052Y-86918170D01*
X140642051Y-86918169D01*
X140642051Y-86918165D01*
X140634406Y-86899707D01*
X140566635Y-86736092D01*
X140566628Y-86736079D01*
X140457139Y-86572218D01*
X140457136Y-86572214D01*
X140317785Y-86432863D01*
X140317781Y-86432860D01*
X140153920Y-86323371D01*
X140153907Y-86323364D01*
X139971839Y-86247950D01*
X139971829Y-86247947D01*
X139778543Y-86209500D01*
X139778541Y-86209500D01*
X138481459Y-86209500D01*
X138481457Y-86209500D01*
X138288170Y-86247947D01*
X138288160Y-86247950D01*
X138106092Y-86323364D01*
X138106079Y-86323371D01*
X137942218Y-86432860D01*
X137942214Y-86432863D01*
X137802863Y-86572214D01*
X137802860Y-86572218D01*
X137693371Y-86736079D01*
X137693364Y-86736092D01*
X137617950Y-86918160D01*
X137617947Y-86918170D01*
X137579500Y-87111456D01*
X137579500Y-87111459D01*
X137579500Y-87308541D01*
X137579500Y-87308543D01*
X137579499Y-87308543D01*
X127306002Y-87308543D01*
X127285097Y-87203449D01*
X127279737Y-87176503D01*
X127221865Y-87036786D01*
X127219397Y-87030827D01*
X127219390Y-87030814D01*
X127131789Y-86899711D01*
X127131786Y-86899707D01*
X127020292Y-86788213D01*
X127020288Y-86788210D01*
X126889185Y-86700609D01*
X126889172Y-86700602D01*
X126743501Y-86640264D01*
X126743489Y-86640261D01*
X126588845Y-86609500D01*
X126588842Y-86609500D01*
X126431158Y-86609500D01*
X126431155Y-86609500D01*
X126276510Y-86640261D01*
X126276498Y-86640264D01*
X126130827Y-86700602D01*
X126130814Y-86700609D01*
X125999711Y-86788210D01*
X125999707Y-86788213D01*
X125888213Y-86899707D01*
X125888210Y-86899711D01*
X125800609Y-87030814D01*
X125800602Y-87030827D01*
X125740264Y-87176498D01*
X125740261Y-87176510D01*
X125709500Y-87331153D01*
X107590353Y-87331153D01*
X107590500Y-87330222D01*
X107590500Y-87109778D01*
X107556015Y-86892049D01*
X107505338Y-86736079D01*
X107487896Y-86682396D01*
X107487895Y-86682393D01*
X107387815Y-86485978D01*
X107327493Y-86402951D01*
X107327492Y-86402948D01*
X107278962Y-86336153D01*
X121369500Y-86336153D01*
X121369500Y-86493846D01*
X121400261Y-86648489D01*
X121400264Y-86648501D01*
X121460602Y-86794172D01*
X121460609Y-86794185D01*
X121548210Y-86925288D01*
X121548213Y-86925292D01*
X121659707Y-87036786D01*
X121659711Y-87036789D01*
X121790814Y-87124390D01*
X121790827Y-87124397D01*
X121916624Y-87176503D01*
X121936503Y-87184737D01*
X122091153Y-87215499D01*
X122091156Y-87215500D01*
X122091158Y-87215500D01*
X122248844Y-87215500D01*
X122309428Y-87203449D01*
X122309428Y-87203448D01*
X122403497Y-87184737D01*
X122549179Y-87124394D01*
X122680289Y-87036789D01*
X122791789Y-86925289D01*
X122879394Y-86794179D01*
X122881867Y-86788210D01*
X122903460Y-86736079D01*
X122939737Y-86648497D01*
X122970500Y-86493842D01*
X122970500Y-86336158D01*
X122970500Y-86336155D01*
X122970499Y-86336153D01*
X122952954Y-86247949D01*
X122939737Y-86181503D01*
X122927416Y-86151758D01*
X122879397Y-86035827D01*
X122879390Y-86035814D01*
X122791789Y-85904711D01*
X122791786Y-85904707D01*
X122680292Y-85793213D01*
X122680288Y-85793210D01*
X122549185Y-85705609D01*
X122549172Y-85705602D01*
X122403501Y-85645264D01*
X122403489Y-85645261D01*
X122248845Y-85614500D01*
X122248842Y-85614500D01*
X122091158Y-85614500D01*
X122091155Y-85614500D01*
X121936510Y-85645261D01*
X121936498Y-85645264D01*
X121790827Y-85705602D01*
X121790814Y-85705609D01*
X121659711Y-85793210D01*
X121659707Y-85793213D01*
X121548213Y-85904707D01*
X121548210Y-85904711D01*
X121460609Y-86035814D01*
X121460602Y-86035827D01*
X121400264Y-86181498D01*
X121400261Y-86181510D01*
X121369500Y-86336153D01*
X107278962Y-86336153D01*
X107258247Y-86307641D01*
X107258243Y-86307636D01*
X107102363Y-86151756D01*
X107102358Y-86151752D01*
X106924025Y-86022187D01*
X106924024Y-86022186D01*
X106924022Y-86022185D01*
X106861096Y-85990122D01*
X106727606Y-85922104D01*
X106727603Y-85922103D01*
X106517952Y-85853985D01*
X106409086Y-85836742D01*
X106300222Y-85819500D01*
X106079778Y-85819500D01*
X106007201Y-85830995D01*
X105862047Y-85853985D01*
X105652396Y-85922103D01*
X105652393Y-85922104D01*
X105455974Y-86022187D01*
X105277641Y-86151752D01*
X105277636Y-86151756D01*
X105121756Y-86307636D01*
X105121752Y-86307641D01*
X104992187Y-86485974D01*
X104892104Y-86682393D01*
X104892103Y-86682396D01*
X104823985Y-86892047D01*
X104802005Y-87030827D01*
X104789500Y-87109778D01*
X102500500Y-87109778D01*
X102500500Y-84871153D01*
X126279500Y-84871153D01*
X126279500Y-85028846D01*
X126310261Y-85183489D01*
X126310264Y-85183501D01*
X126370602Y-85329172D01*
X126370609Y-85329185D01*
X126458210Y-85460288D01*
X126458213Y-85460292D01*
X126569707Y-85571786D01*
X126569711Y-85571789D01*
X126700814Y-85659390D01*
X126700827Y-85659397D01*
X126846498Y-85719735D01*
X126846503Y-85719737D01*
X127001153Y-85750499D01*
X127001156Y-85750500D01*
X127001158Y-85750500D01*
X127158844Y-85750500D01*
X127158845Y-85750499D01*
X127313497Y-85719737D01*
X127459179Y-85659394D01*
X127590289Y-85571789D01*
X127701789Y-85460289D01*
X127789394Y-85329179D01*
X127849737Y-85183497D01*
X127880500Y-85028842D01*
X127880500Y-84871158D01*
X127880500Y-84871155D01*
X127880499Y-84871153D01*
X127849738Y-84716510D01*
X127849737Y-84716503D01*
X127849735Y-84716498D01*
X127789397Y-84570827D01*
X127789390Y-84570814D01*
X127701789Y-84439711D01*
X127701786Y-84439707D01*
X127590292Y-84328213D01*
X127590288Y-84328210D01*
X127459185Y-84240609D01*
X127459172Y-84240602D01*
X127313501Y-84180264D01*
X127313489Y-84180261D01*
X127158845Y-84149500D01*
X127158842Y-84149500D01*
X127001158Y-84149500D01*
X127001155Y-84149500D01*
X126846510Y-84180261D01*
X126846498Y-84180264D01*
X126700827Y-84240602D01*
X126700814Y-84240609D01*
X126569711Y-84328210D01*
X126569707Y-84328213D01*
X126458213Y-84439707D01*
X126458210Y-84439711D01*
X126370609Y-84570814D01*
X126370602Y-84570827D01*
X126310264Y-84716498D01*
X126310261Y-84716510D01*
X126279500Y-84871153D01*
X102500500Y-84871153D01*
X102500500Y-81262135D01*
X104709500Y-81262135D01*
X104709500Y-83157870D01*
X104709501Y-83157876D01*
X104715908Y-83217483D01*
X104766202Y-83352328D01*
X104766206Y-83352335D01*
X104852452Y-83467544D01*
X104852455Y-83467547D01*
X104967664Y-83553793D01*
X104967671Y-83553797D01*
X105102517Y-83604091D01*
X105102516Y-83604091D01*
X105109444Y-83604835D01*
X105162127Y-83610500D01*
X107057872Y-83610499D01*
X107117483Y-83604091D01*
X107252331Y-83553796D01*
X107367546Y-83467546D01*
X107453796Y-83352331D01*
X107504091Y-83217483D01*
X107510500Y-83157873D01*
X107510499Y-81971153D01*
X128749500Y-81971153D01*
X128749500Y-82128846D01*
X128780261Y-82283489D01*
X128780264Y-82283501D01*
X128840602Y-82429172D01*
X128840609Y-82429185D01*
X128928210Y-82560288D01*
X128928213Y-82560292D01*
X129039707Y-82671786D01*
X129039711Y-82671789D01*
X129170814Y-82759390D01*
X129170827Y-82759397D01*
X129316498Y-82819735D01*
X129316503Y-82819737D01*
X129471153Y-82850499D01*
X129471156Y-82850500D01*
X129471158Y-82850500D01*
X129628844Y-82850500D01*
X129628845Y-82850499D01*
X129783497Y-82819737D01*
X129929179Y-82759394D01*
X130060289Y-82671789D01*
X130171789Y-82560289D01*
X130259394Y-82429179D01*
X130319737Y-82283497D01*
X130350500Y-82128842D01*
X130350500Y-81971158D01*
X130350500Y-81971155D01*
X130350499Y-81971153D01*
X130319738Y-81816510D01*
X130319737Y-81816503D01*
X130319735Y-81816498D01*
X130259397Y-81670827D01*
X130259390Y-81670814D01*
X130171789Y-81539711D01*
X130171786Y-81539707D01*
X130060292Y-81428213D01*
X130060288Y-81428210D01*
X129929185Y-81340609D01*
X129929172Y-81340602D01*
X129783501Y-81280264D01*
X129783489Y-81280261D01*
X129628845Y-81249500D01*
X129628842Y-81249500D01*
X129471158Y-81249500D01*
X129471155Y-81249500D01*
X129316510Y-81280261D01*
X129316498Y-81280264D01*
X129170827Y-81340602D01*
X129170814Y-81340609D01*
X129039711Y-81428210D01*
X129039707Y-81428213D01*
X128928213Y-81539707D01*
X128928210Y-81539711D01*
X128840609Y-81670814D01*
X128840602Y-81670827D01*
X128780264Y-81816498D01*
X128780261Y-81816510D01*
X128749500Y-81971153D01*
X107510499Y-81971153D01*
X107510499Y-81262128D01*
X107504091Y-81202517D01*
X107453796Y-81067669D01*
X107453795Y-81067668D01*
X107453793Y-81067664D01*
X107367547Y-80952455D01*
X107367544Y-80952452D01*
X107252335Y-80866206D01*
X107252328Y-80866202D01*
X107117482Y-80815908D01*
X107117483Y-80815908D01*
X107057883Y-80809501D01*
X107057881Y-80809500D01*
X107057873Y-80809500D01*
X107057864Y-80809500D01*
X105162129Y-80809500D01*
X105162123Y-80809501D01*
X105102516Y-80815908D01*
X104967671Y-80866202D01*
X104967664Y-80866206D01*
X104852455Y-80952452D01*
X104852452Y-80952455D01*
X104766206Y-81067664D01*
X104766202Y-81067671D01*
X104715908Y-81202517D01*
X104709501Y-81262116D01*
X104709501Y-81262123D01*
X104709500Y-81262135D01*
X102500500Y-81262135D01*
X102500500Y-78289778D01*
X104709500Y-78289778D01*
X104709500Y-78510221D01*
X104743985Y-78727952D01*
X104812103Y-78937603D01*
X104812104Y-78937606D01*
X104854569Y-79020946D01*
X104889008Y-79088536D01*
X104912187Y-79134025D01*
X105041752Y-79312358D01*
X105041756Y-79312363D01*
X105197636Y-79468243D01*
X105197641Y-79468247D01*
X105253077Y-79508523D01*
X105375978Y-79597815D01*
X105504375Y-79663237D01*
X105572393Y-79697895D01*
X105572396Y-79697896D01*
X105677221Y-79731955D01*
X105782049Y-79766015D01*
X105999778Y-79800500D01*
X105999779Y-79800500D01*
X106220221Y-79800500D01*
X106220222Y-79800500D01*
X106437951Y-79766015D01*
X106647606Y-79697895D01*
X106812821Y-79613713D01*
X129859500Y-79613713D01*
X129859500Y-79826286D01*
X129892753Y-80036239D01*
X129958444Y-80238414D01*
X130054951Y-80427820D01*
X130179890Y-80599786D01*
X130330213Y-80750109D01*
X130502179Y-80875048D01*
X130502181Y-80875049D01*
X130502184Y-80875051D01*
X130691588Y-80971557D01*
X130893757Y-81037246D01*
X131103713Y-81070500D01*
X131103714Y-81070500D01*
X131316286Y-81070500D01*
X131316287Y-81070500D01*
X131526243Y-81037246D01*
X131728412Y-80971557D01*
X131917816Y-80875051D01*
X132004138Y-80812335D01*
X132089786Y-80750109D01*
X132089788Y-80750106D01*
X132089792Y-80750104D01*
X132240104Y-80599792D01*
X132240106Y-80599788D01*
X132240109Y-80599786D01*
X132365048Y-80427820D01*
X132365047Y-80427820D01*
X132365051Y-80427816D01*
X132369514Y-80419054D01*
X132417488Y-80368259D01*
X132485308Y-80351463D01*
X132551444Y-80373999D01*
X132590486Y-80419056D01*
X132594951Y-80427820D01*
X132719890Y-80599786D01*
X132870213Y-80750109D01*
X133042179Y-80875048D01*
X133042181Y-80875049D01*
X133042184Y-80875051D01*
X133231588Y-80971557D01*
X133433757Y-81037246D01*
X133643713Y-81070500D01*
X133643714Y-81070500D01*
X133856286Y-81070500D01*
X133856287Y-81070500D01*
X134066243Y-81037246D01*
X134268412Y-80971557D01*
X134457816Y-80875051D01*
X134544138Y-80812335D01*
X134629786Y-80750109D01*
X134629788Y-80750106D01*
X134629792Y-80750104D01*
X134780104Y-80599792D01*
X134780106Y-80599788D01*
X134780109Y-80599786D01*
X134905048Y-80427820D01*
X134905047Y-80427820D01*
X134905051Y-80427816D01*
X134909514Y-80419054D01*
X134957488Y-80368259D01*
X135025308Y-80351463D01*
X135091444Y-80373999D01*
X135130486Y-80419056D01*
X135134951Y-80427820D01*
X135259890Y-80599786D01*
X135410213Y-80750109D01*
X135582179Y-80875048D01*
X135582181Y-80875049D01*
X135582184Y-80875051D01*
X135771588Y-80971557D01*
X135973757Y-81037246D01*
X136183713Y-81070500D01*
X136183714Y-81070500D01*
X136396286Y-81070500D01*
X136396287Y-81070500D01*
X136606243Y-81037246D01*
X136808412Y-80971557D01*
X136997816Y-80875051D01*
X137084147Y-80812328D01*
X137169784Y-80750110D01*
X137169784Y-80750109D01*
X137169792Y-80750104D01*
X137283329Y-80636566D01*
X137344648Y-80603084D01*
X137414340Y-80608068D01*
X137470274Y-80649939D01*
X137487189Y-80680917D01*
X137536202Y-80812328D01*
X137536206Y-80812335D01*
X137622452Y-80927544D01*
X137622455Y-80927547D01*
X137737664Y-81013793D01*
X137737671Y-81013797D01*
X137872517Y-81064091D01*
X137872516Y-81064091D01*
X137879444Y-81064835D01*
X137932127Y-81070500D01*
X139727872Y-81070499D01*
X139787483Y-81064091D01*
X139922331Y-81013796D01*
X140037546Y-80927546D01*
X140123796Y-80812331D01*
X140174091Y-80677483D01*
X140180500Y-80617873D01*
X140180499Y-78822128D01*
X140174091Y-78762517D01*
X140172810Y-78759083D01*
X140123797Y-78627671D01*
X140123793Y-78627664D01*
X140037547Y-78512455D01*
X140037544Y-78512452D01*
X139922335Y-78426206D01*
X139922328Y-78426202D01*
X139787482Y-78375908D01*
X139787483Y-78375908D01*
X139727883Y-78369501D01*
X139727881Y-78369500D01*
X139727873Y-78369500D01*
X139727864Y-78369500D01*
X137932129Y-78369500D01*
X137932123Y-78369501D01*
X137872516Y-78375908D01*
X137737671Y-78426202D01*
X137737664Y-78426206D01*
X137622455Y-78512452D01*
X137622452Y-78512455D01*
X137536206Y-78627664D01*
X137536203Y-78627669D01*
X137487189Y-78759083D01*
X137445317Y-78815016D01*
X137379853Y-78839433D01*
X137311580Y-78824581D01*
X137283326Y-78803430D01*
X137169786Y-78689890D01*
X136997820Y-78564951D01*
X136808414Y-78468444D01*
X136808413Y-78468443D01*
X136808412Y-78468443D01*
X136606243Y-78402754D01*
X136606241Y-78402753D01*
X136606240Y-78402753D01*
X136444957Y-78377208D01*
X136396287Y-78369500D01*
X136183713Y-78369500D01*
X136135042Y-78377208D01*
X135973760Y-78402753D01*
X135771585Y-78468444D01*
X135582179Y-78564951D01*
X135410213Y-78689890D01*
X135259890Y-78840213D01*
X135134949Y-79012182D01*
X135130484Y-79020946D01*
X135082509Y-79071742D01*
X135014688Y-79088536D01*
X134948553Y-79065998D01*
X134909516Y-79020946D01*
X134905050Y-79012182D01*
X134780109Y-78840213D01*
X134629786Y-78689890D01*
X134457820Y-78564951D01*
X134268414Y-78468444D01*
X134268413Y-78468443D01*
X134268412Y-78468443D01*
X134066243Y-78402754D01*
X134066241Y-78402753D01*
X134066240Y-78402753D01*
X133904957Y-78377208D01*
X133856287Y-78369500D01*
X133643713Y-78369500D01*
X133595042Y-78377208D01*
X133433760Y-78402753D01*
X133231585Y-78468444D01*
X133042179Y-78564951D01*
X132870213Y-78689890D01*
X132719890Y-78840213D01*
X132594949Y-79012182D01*
X132590484Y-79020946D01*
X132542509Y-79071742D01*
X132474688Y-79088536D01*
X132408553Y-79065998D01*
X132369516Y-79020946D01*
X132365050Y-79012182D01*
X132240109Y-78840213D01*
X132089786Y-78689890D01*
X131917820Y-78564951D01*
X131728414Y-78468444D01*
X131728413Y-78468443D01*
X131728412Y-78468443D01*
X131526243Y-78402754D01*
X131526241Y-78402753D01*
X131526240Y-78402753D01*
X131364957Y-78377208D01*
X131316287Y-78369500D01*
X131103713Y-78369500D01*
X131055042Y-78377208D01*
X130893760Y-78402753D01*
X130691585Y-78468444D01*
X130502179Y-78564951D01*
X130330213Y-78689890D01*
X130179890Y-78840213D01*
X130054951Y-79012179D01*
X129958444Y-79201585D01*
X129892753Y-79403760D01*
X129859500Y-79613713D01*
X106812821Y-79613713D01*
X106844022Y-79597815D01*
X106899523Y-79557491D01*
X106966924Y-79508523D01*
X107022358Y-79468247D01*
X107022356Y-79468247D01*
X107022365Y-79468242D01*
X107178242Y-79312365D01*
X107307815Y-79134022D01*
X107407895Y-78937606D01*
X107476015Y-78727951D01*
X107510500Y-78510222D01*
X107510500Y-78289778D01*
X107476015Y-78072049D01*
X107407895Y-77862394D01*
X107407895Y-77862393D01*
X107373237Y-77794375D01*
X107307815Y-77665978D01*
X107284514Y-77633907D01*
X107178247Y-77487641D01*
X107178243Y-77487636D01*
X107022363Y-77331756D01*
X107022358Y-77331752D01*
X106921593Y-77258543D01*
X139519499Y-77258543D01*
X139557947Y-77451829D01*
X139557950Y-77451839D01*
X139633364Y-77633907D01*
X139633371Y-77633920D01*
X139742860Y-77797781D01*
X139742863Y-77797785D01*
X139882214Y-77937136D01*
X139882218Y-77937139D01*
X140046079Y-78046628D01*
X140046092Y-78046635D01*
X140228160Y-78122049D01*
X140228165Y-78122051D01*
X140228169Y-78122051D01*
X140228170Y-78122052D01*
X140421456Y-78160500D01*
X140421459Y-78160500D01*
X140618543Y-78160500D01*
X140748582Y-78134632D01*
X140811835Y-78122051D01*
X140993914Y-78046632D01*
X141157782Y-77937139D01*
X141297139Y-77797782D01*
X141406632Y-77633914D01*
X141482051Y-77451835D01*
X141505936Y-77331758D01*
X141520500Y-77258543D01*
X141520500Y-77061456D01*
X141482052Y-76868170D01*
X141482051Y-76868169D01*
X141482051Y-76868165D01*
X141457304Y-76808419D01*
X141406635Y-76686092D01*
X141406628Y-76686079D01*
X141297139Y-76522218D01*
X141297136Y-76522214D01*
X141178842Y-76403920D01*
X143589499Y-76403920D01*
X143618340Y-76548907D01*
X143618343Y-76548917D01*
X143674912Y-76685488D01*
X143674919Y-76685501D01*
X143757048Y-76808415D01*
X143757051Y-76808419D01*
X143861580Y-76912948D01*
X143861584Y-76912951D01*
X143984498Y-76995080D01*
X143984511Y-76995087D01*
X144121082Y-77051656D01*
X144121087Y-77051658D01*
X144121091Y-77051658D01*
X144121092Y-77051659D01*
X144266079Y-77080500D01*
X144266082Y-77080500D01*
X144413920Y-77080500D01*
X144511462Y-77061096D01*
X144558913Y-77051658D01*
X144695495Y-76995084D01*
X144818416Y-76912951D01*
X144922951Y-76808416D01*
X145005084Y-76685495D01*
X145061658Y-76548913D01*
X145090500Y-76403918D01*
X145090500Y-76256082D01*
X145090500Y-76256079D01*
X145061659Y-76111092D01*
X145061658Y-76111091D01*
X145061658Y-76111087D01*
X145061656Y-76111082D01*
X145005087Y-75974511D01*
X145005080Y-75974498D01*
X144922951Y-75851584D01*
X144922948Y-75851580D01*
X144818419Y-75747051D01*
X144818415Y-75747048D01*
X144695501Y-75664919D01*
X144695488Y-75664912D01*
X144558917Y-75608343D01*
X144558907Y-75608340D01*
X144413920Y-75579500D01*
X144413918Y-75579500D01*
X144266082Y-75579500D01*
X144266080Y-75579500D01*
X144121092Y-75608340D01*
X144121082Y-75608343D01*
X143984511Y-75664912D01*
X143984498Y-75664919D01*
X143861584Y-75747048D01*
X143861580Y-75747051D01*
X143757051Y-75851580D01*
X143757048Y-75851584D01*
X143674919Y-75974498D01*
X143674912Y-75974511D01*
X143618343Y-76111082D01*
X143618340Y-76111092D01*
X143589500Y-76256079D01*
X143589500Y-76256082D01*
X143589500Y-76403918D01*
X143589500Y-76403920D01*
X143589499Y-76403920D01*
X141178842Y-76403920D01*
X141157785Y-76382863D01*
X141157781Y-76382860D01*
X141113230Y-76353092D01*
X140993920Y-76273371D01*
X140993907Y-76273364D01*
X140811839Y-76197950D01*
X140811829Y-76197947D01*
X140618543Y-76159500D01*
X140618541Y-76159500D01*
X140421459Y-76159500D01*
X140421457Y-76159500D01*
X140228170Y-76197947D01*
X140228160Y-76197950D01*
X140046092Y-76273364D01*
X140046079Y-76273371D01*
X139882218Y-76382860D01*
X139882214Y-76382863D01*
X139742863Y-76522214D01*
X139742860Y-76522218D01*
X139633371Y-76686079D01*
X139633364Y-76686092D01*
X139557950Y-76868160D01*
X139557947Y-76868170D01*
X139519500Y-77061456D01*
X139519500Y-77061459D01*
X139519500Y-77258541D01*
X139519500Y-77258543D01*
X139519499Y-77258543D01*
X106921593Y-77258543D01*
X106844025Y-77202187D01*
X106844024Y-77202186D01*
X106844022Y-77202185D01*
X106772714Y-77165851D01*
X106772712Y-77165849D01*
X106647616Y-77102109D01*
X106647603Y-77102103D01*
X106437952Y-77033985D01*
X106329086Y-77016742D01*
X106220222Y-76999500D01*
X105999778Y-76999500D01*
X105927201Y-77010995D01*
X105782047Y-77033985D01*
X105572396Y-77102103D01*
X105572393Y-77102104D01*
X105375974Y-77202187D01*
X105197641Y-77331752D01*
X105197636Y-77331756D01*
X105041756Y-77487636D01*
X105041752Y-77487641D01*
X104912187Y-77665974D01*
X104812104Y-77862393D01*
X104812103Y-77862396D01*
X104743985Y-78072047D01*
X104709500Y-78289778D01*
X102500500Y-78289778D01*
X102500500Y-73921153D01*
X123699500Y-73921153D01*
X123699500Y-74078846D01*
X123730261Y-74233489D01*
X123730264Y-74233501D01*
X123790602Y-74379172D01*
X123790609Y-74379185D01*
X123878210Y-74510288D01*
X123878213Y-74510292D01*
X123989707Y-74621786D01*
X123989711Y-74621789D01*
X124120814Y-74709390D01*
X124120827Y-74709397D01*
X124266498Y-74769735D01*
X124266503Y-74769737D01*
X124421153Y-74800499D01*
X124421156Y-74800500D01*
X124421158Y-74800500D01*
X124578844Y-74800500D01*
X124578845Y-74800499D01*
X124733497Y-74769737D01*
X124879179Y-74709394D01*
X125010289Y-74621789D01*
X125121789Y-74510289D01*
X125209394Y-74379179D01*
X125269737Y-74233497D01*
X125300500Y-74078842D01*
X125300500Y-73921158D01*
X125300500Y-73921155D01*
X125300499Y-73921153D01*
X125269737Y-73766503D01*
X125260654Y-73744574D01*
X125209397Y-73620827D01*
X125209390Y-73620814D01*
X125121789Y-73489711D01*
X125121786Y-73489707D01*
X125035999Y-73403920D01*
X143589499Y-73403920D01*
X143618340Y-73548907D01*
X143618343Y-73548917D01*
X143674912Y-73685488D01*
X143674919Y-73685501D01*
X143757048Y-73808415D01*
X143757051Y-73808419D01*
X143861580Y-73912948D01*
X143861584Y-73912951D01*
X143984498Y-73995080D01*
X143984511Y-73995087D01*
X144121082Y-74051656D01*
X144121087Y-74051658D01*
X144121091Y-74051658D01*
X144121092Y-74051659D01*
X144266079Y-74080500D01*
X144266082Y-74080500D01*
X144413920Y-74080500D01*
X144511462Y-74061096D01*
X144558913Y-74051658D01*
X144695495Y-73995084D01*
X144818416Y-73912951D01*
X144922951Y-73808416D01*
X145005084Y-73685495D01*
X145061658Y-73548913D01*
X145090500Y-73403918D01*
X145090500Y-73256082D01*
X145090500Y-73256079D01*
X145061659Y-73111092D01*
X145061658Y-73111091D01*
X145061658Y-73111087D01*
X145061656Y-73111082D01*
X145005087Y-72974511D01*
X145005080Y-72974498D01*
X144922951Y-72851584D01*
X144922948Y-72851580D01*
X144818419Y-72747051D01*
X144818415Y-72747048D01*
X144695501Y-72664919D01*
X144695488Y-72664912D01*
X144558917Y-72608343D01*
X144558907Y-72608340D01*
X144413920Y-72579500D01*
X144413918Y-72579500D01*
X144266082Y-72579500D01*
X144266080Y-72579500D01*
X144121092Y-72608340D01*
X144121082Y-72608343D01*
X143984511Y-72664912D01*
X143984498Y-72664919D01*
X143861584Y-72747048D01*
X143861580Y-72747051D01*
X143757051Y-72851580D01*
X143757048Y-72851584D01*
X143674919Y-72974498D01*
X143674912Y-72974511D01*
X143618343Y-73111082D01*
X143618340Y-73111092D01*
X143589500Y-73256079D01*
X143589500Y-73256082D01*
X143589500Y-73403918D01*
X143589500Y-73403920D01*
X143589499Y-73403920D01*
X125035999Y-73403920D01*
X125010292Y-73378213D01*
X125010284Y-73378207D01*
X124972746Y-73353125D01*
X124972696Y-73353092D01*
X124879185Y-73290609D01*
X124879172Y-73290602D01*
X124733501Y-73230264D01*
X124733489Y-73230261D01*
X124578845Y-73199500D01*
X124578842Y-73199500D01*
X124421158Y-73199500D01*
X124421155Y-73199500D01*
X124266510Y-73230261D01*
X124266498Y-73230264D01*
X124120827Y-73290602D01*
X124120814Y-73290609D01*
X123989711Y-73378210D01*
X123989707Y-73378213D01*
X123878213Y-73489707D01*
X123878210Y-73489711D01*
X123790609Y-73620814D01*
X123790602Y-73620827D01*
X123730264Y-73766498D01*
X123730261Y-73766510D01*
X123699500Y-73921153D01*
X102500500Y-73921153D01*
X102500500Y-66275186D01*
X103599500Y-66275186D01*
X103599500Y-66544813D01*
X103629686Y-66812719D01*
X103629688Y-66812731D01*
X103689684Y-67075594D01*
X103689687Y-67075602D01*
X103778734Y-67330082D01*
X103895714Y-67572994D01*
X103895716Y-67572997D01*
X104039162Y-67801289D01*
X104207266Y-68012085D01*
X104397915Y-68202734D01*
X104608711Y-68370838D01*
X104837003Y-68514284D01*
X105079921Y-68631267D01*
X105249491Y-68690602D01*
X105334397Y-68720312D01*
X105334405Y-68720315D01*
X105334408Y-68720315D01*
X105334409Y-68720316D01*
X105528470Y-68764609D01*
X105589448Y-68798718D01*
X105622306Y-68860379D01*
X105616611Y-68930016D01*
X105574171Y-68985520D01*
X105508461Y-69009268D01*
X105500877Y-69009500D01*
X104795260Y-69009500D01*
X104662017Y-69019987D01*
X104441997Y-69075426D01*
X104235420Y-69169258D01*
X104235410Y-69169263D01*
X104048909Y-69298473D01*
X103888473Y-69458909D01*
X103759263Y-69645410D01*
X103759258Y-69645420D01*
X103665426Y-69851997D01*
X103609987Y-70072017D01*
X103599500Y-70205260D01*
X103599500Y-72614739D01*
X103604645Y-72680104D01*
X103609913Y-72747049D01*
X103609987Y-72747982D01*
X103665426Y-72968002D01*
X103759258Y-73174579D01*
X103759263Y-73174589D01*
X103888473Y-73361090D01*
X104048909Y-73521526D01*
X104235410Y-73650736D01*
X104235420Y-73650741D01*
X104441997Y-73744573D01*
X104441998Y-73744573D01*
X104442000Y-73744574D01*
X104662017Y-73800013D01*
X104795264Y-73810500D01*
X104795270Y-73810500D01*
X107204730Y-73810500D01*
X107204736Y-73810500D01*
X107337983Y-73800013D01*
X107558000Y-73744574D01*
X107764582Y-73650740D01*
X107764584Y-73650738D01*
X107764589Y-73650736D01*
X107911560Y-73548913D01*
X107951089Y-73521527D01*
X108111527Y-73361089D01*
X108160361Y-73290602D01*
X108240736Y-73174589D01*
X108240741Y-73174579D01*
X108269579Y-73111092D01*
X108334574Y-72968000D01*
X108390013Y-72747983D01*
X108400500Y-72614736D01*
X108400500Y-71243713D01*
X111999500Y-71243713D01*
X111999500Y-71756286D01*
X112032753Y-71966239D01*
X112098444Y-72168414D01*
X112194951Y-72357820D01*
X112319890Y-72529786D01*
X112470213Y-72680109D01*
X112642179Y-72805048D01*
X112642181Y-72805049D01*
X112642184Y-72805051D01*
X112831588Y-72901557D01*
X113033757Y-72967246D01*
X113243713Y-73000500D01*
X113243714Y-73000500D01*
X113456286Y-73000500D01*
X113456287Y-73000500D01*
X113666243Y-72967246D01*
X113868412Y-72901557D01*
X114057816Y-72805051D01*
X114137647Y-72747051D01*
X114229784Y-72680110D01*
X114229784Y-72680109D01*
X114229792Y-72680104D01*
X114368604Y-72541291D01*
X114429923Y-72507809D01*
X114499615Y-72512793D01*
X114555549Y-72554664D01*
X114561821Y-72563878D01*
X114565185Y-72569333D01*
X114565186Y-72569334D01*
X114657288Y-72718656D01*
X114781344Y-72842712D01*
X114930666Y-72934814D01*
X115097203Y-72989999D01*
X115199991Y-73000500D01*
X116500008Y-73000499D01*
X116602797Y-72989999D01*
X116769334Y-72934814D01*
X116918656Y-72842712D01*
X117042712Y-72718656D01*
X117134814Y-72569334D01*
X117189999Y-72402797D01*
X117200500Y-72300009D01*
X117200499Y-70699992D01*
X117189999Y-70597203D01*
X117134814Y-70430666D01*
X117042712Y-70281344D01*
X116918656Y-70157288D01*
X116769334Y-70065186D01*
X116602797Y-70010001D01*
X116602795Y-70010000D01*
X116500016Y-69999500D01*
X115304167Y-69999500D01*
X115237128Y-69979815D01*
X115191373Y-69927011D01*
X115181429Y-69857853D01*
X115201065Y-69806608D01*
X115219394Y-69779179D01*
X115279737Y-69633497D01*
X115310500Y-69478842D01*
X115310500Y-69321158D01*
X115310500Y-69321155D01*
X115310499Y-69321153D01*
X115279738Y-69166510D01*
X115279737Y-69166503D01*
X115242012Y-69075426D01*
X115219397Y-69020827D01*
X115219390Y-69020814D01*
X115131789Y-68889711D01*
X115131786Y-68889707D01*
X115020292Y-68778213D01*
X115020288Y-68778210D01*
X114889185Y-68690609D01*
X114889172Y-68690602D01*
X114743501Y-68630264D01*
X114743489Y-68630261D01*
X114588845Y-68599500D01*
X114588842Y-68599500D01*
X114431158Y-68599500D01*
X114431155Y-68599500D01*
X114276510Y-68630261D01*
X114276498Y-68630264D01*
X114130827Y-68690602D01*
X114130814Y-68690609D01*
X113999711Y-68778210D01*
X113999707Y-68778213D01*
X113888213Y-68889707D01*
X113888210Y-68889711D01*
X113800609Y-69020814D01*
X113800602Y-69020827D01*
X113740264Y-69166498D01*
X113740261Y-69166510D01*
X113709500Y-69321153D01*
X113709500Y-69478846D01*
X113740261Y-69633489D01*
X113740264Y-69633501D01*
X113800602Y-69779172D01*
X113800609Y-69779185D01*
X113855620Y-69861514D01*
X113876498Y-69928192D01*
X113858014Y-69995572D01*
X113806035Y-70042262D01*
X113737065Y-70053438D01*
X113714201Y-70048336D01*
X113666244Y-70032754D01*
X113666240Y-70032753D01*
X113504957Y-70007208D01*
X113456287Y-69999500D01*
X113243713Y-69999500D01*
X113195042Y-70007208D01*
X113033760Y-70032753D01*
X112831585Y-70098444D01*
X112642179Y-70194951D01*
X112470213Y-70319890D01*
X112319890Y-70470213D01*
X112194951Y-70642179D01*
X112098444Y-70831585D01*
X112032753Y-71033760D01*
X111999500Y-71243713D01*
X108400500Y-71243713D01*
X108400500Y-70205264D01*
X108390013Y-70072017D01*
X108334574Y-69852000D01*
X108240740Y-69645418D01*
X108240736Y-69645410D01*
X108111526Y-69458909D01*
X107951090Y-69298473D01*
X107764589Y-69169263D01*
X107764579Y-69169258D01*
X107558002Y-69075426D01*
X107411322Y-69038466D01*
X107337983Y-69019987D01*
X107304671Y-69017365D01*
X107204739Y-69009500D01*
X107204736Y-69009500D01*
X106499123Y-69009500D01*
X106432084Y-68989815D01*
X106386329Y-68937011D01*
X106376385Y-68867853D01*
X106405410Y-68804297D01*
X106464188Y-68766523D01*
X106471521Y-68764611D01*
X106665591Y-68720316D01*
X106920079Y-68631267D01*
X107162997Y-68514284D01*
X107391289Y-68370838D01*
X107602085Y-68202734D01*
X107792734Y-68012085D01*
X107960838Y-67801289D01*
X108104284Y-67572997D01*
X108221267Y-67330079D01*
X108310316Y-67075591D01*
X108370312Y-66812732D01*
X108400500Y-66544809D01*
X108400500Y-66275191D01*
X108370312Y-66007268D01*
X108310316Y-65744409D01*
X108221267Y-65489921D01*
X108104284Y-65247003D01*
X107960838Y-65018711D01*
X107792734Y-64807915D01*
X107602085Y-64617266D01*
X107391289Y-64449162D01*
X107162997Y-64305716D01*
X107162994Y-64305714D01*
X106920082Y-64188734D01*
X106665602Y-64099687D01*
X106665594Y-64099684D01*
X106468446Y-64054687D01*
X106402732Y-64039688D01*
X106402728Y-64039687D01*
X106402719Y-64039686D01*
X106134813Y-64009500D01*
X106134809Y-64009500D01*
X105865191Y-64009500D01*
X105865186Y-64009500D01*
X105597280Y-64039686D01*
X105597268Y-64039688D01*
X105334405Y-64099684D01*
X105334397Y-64099687D01*
X105079917Y-64188734D01*
X104837005Y-64305714D01*
X104608712Y-64449161D01*
X104397915Y-64617265D01*
X104207265Y-64807915D01*
X104039161Y-65018712D01*
X103895714Y-65247005D01*
X103778734Y-65489917D01*
X103689687Y-65744397D01*
X103689684Y-65744405D01*
X103629688Y-66007268D01*
X103629686Y-66007280D01*
X103599500Y-66275186D01*
X102500500Y-66275186D01*
X102500500Y-61843713D01*
X111949500Y-61843713D01*
X111949500Y-62356286D01*
X111982753Y-62566239D01*
X112048444Y-62768414D01*
X112144951Y-62957820D01*
X112269890Y-63129786D01*
X112420213Y-63280109D01*
X112592179Y-63405048D01*
X112592181Y-63405049D01*
X112592184Y-63405051D01*
X112781588Y-63501557D01*
X112983757Y-63567246D01*
X113193713Y-63600500D01*
X113193714Y-63600500D01*
X113406286Y-63600500D01*
X113406287Y-63600500D01*
X113616243Y-63567246D01*
X113818412Y-63501557D01*
X114007816Y-63405051D01*
X114179792Y-63280104D01*
X114318604Y-63141291D01*
X114379923Y-63107809D01*
X114449615Y-63112793D01*
X114505549Y-63154664D01*
X114511821Y-63163878D01*
X114515185Y-63169333D01*
X114515186Y-63169334D01*
X114607288Y-63318656D01*
X114731344Y-63442712D01*
X114880666Y-63534814D01*
X115047203Y-63589999D01*
X115149991Y-63600500D01*
X116450008Y-63600499D01*
X116552797Y-63589999D01*
X116719334Y-63534814D01*
X116868656Y-63442712D01*
X116992712Y-63318656D01*
X117084814Y-63169334D01*
X117139999Y-63002797D01*
X117150500Y-62900009D01*
X117150499Y-61299992D01*
X117144446Y-61240741D01*
X117139999Y-61197203D01*
X117139998Y-61197200D01*
X117084814Y-61030666D01*
X116992712Y-60881344D01*
X116868656Y-60757288D01*
X116719334Y-60665186D01*
X116552797Y-60610001D01*
X116552795Y-60610000D01*
X116450010Y-60599500D01*
X115149998Y-60599500D01*
X115149981Y-60599501D01*
X115047203Y-60610000D01*
X115047200Y-60610001D01*
X114880668Y-60665185D01*
X114880663Y-60665187D01*
X114731342Y-60757289D01*
X114607289Y-60881342D01*
X114511821Y-61036121D01*
X114459873Y-61082845D01*
X114390910Y-61094068D01*
X114326828Y-61066224D01*
X114318601Y-61058705D01*
X114179786Y-60919890D01*
X114007820Y-60794951D01*
X113818414Y-60698444D01*
X113818413Y-60698443D01*
X113818412Y-60698443D01*
X113616243Y-60632754D01*
X113616241Y-60632753D01*
X113616240Y-60632753D01*
X113454957Y-60607208D01*
X113406287Y-60599500D01*
X113193713Y-60599500D01*
X113145042Y-60607208D01*
X112983760Y-60632753D01*
X112781585Y-60698444D01*
X112592179Y-60794951D01*
X112420213Y-60919890D01*
X112269890Y-61070213D01*
X112144951Y-61242179D01*
X112048444Y-61431585D01*
X111982753Y-61633760D01*
X111949500Y-61843713D01*
X102500500Y-61843713D01*
X102500500Y-58275441D01*
X103999500Y-58275441D01*
X103999500Y-58524558D01*
X103999501Y-58524575D01*
X104032017Y-58771561D01*
X104096498Y-59012207D01*
X104191830Y-59242361D01*
X104191837Y-59242376D01*
X104316400Y-59458126D01*
X104468060Y-59655774D01*
X104468066Y-59655781D01*
X104644218Y-59831933D01*
X104644225Y-59831939D01*
X104841873Y-59983599D01*
X105057623Y-60108162D01*
X105057638Y-60108169D01*
X105156825Y-60149253D01*
X105287793Y-60203502D01*
X105528435Y-60267982D01*
X105775435Y-60300500D01*
X105775442Y-60300500D01*
X106024558Y-60300500D01*
X106024565Y-60300500D01*
X106271565Y-60267982D01*
X106512207Y-60203502D01*
X106742373Y-60108164D01*
X106958127Y-59983599D01*
X107155776Y-59831938D01*
X107331938Y-59655776D01*
X107483599Y-59458127D01*
X107608164Y-59242373D01*
X107703502Y-59012207D01*
X107767982Y-58771565D01*
X107800500Y-58524565D01*
X107800500Y-58275435D01*
X107767982Y-58028435D01*
X107713451Y-57824922D01*
X107713451Y-57824920D01*
X107705503Y-57795260D01*
X133099500Y-57795260D01*
X133099500Y-60204739D01*
X133109987Y-60337982D01*
X133165426Y-60558002D01*
X133259258Y-60764579D01*
X133259263Y-60764589D01*
X133388473Y-60951090D01*
X133548909Y-61111526D01*
X133735410Y-61240736D01*
X133735420Y-61240741D01*
X133941997Y-61334573D01*
X133941998Y-61334573D01*
X133942000Y-61334574D01*
X134162017Y-61390013D01*
X134295264Y-61400500D01*
X134295270Y-61400500D01*
X135000877Y-61400500D01*
X135067916Y-61420185D01*
X135113671Y-61472989D01*
X135123615Y-61542147D01*
X135094590Y-61605703D01*
X135035812Y-61643477D01*
X135028478Y-61645388D01*
X134984613Y-61655400D01*
X134834405Y-61689684D01*
X134834397Y-61689687D01*
X134579917Y-61778734D01*
X134337005Y-61895714D01*
X134108712Y-62039161D01*
X133897915Y-62207265D01*
X133707265Y-62397915D01*
X133539161Y-62608712D01*
X133395714Y-62837005D01*
X133278734Y-63079917D01*
X133189687Y-63334397D01*
X133189684Y-63334405D01*
X133129688Y-63597268D01*
X133129686Y-63597280D01*
X133099500Y-63865186D01*
X133099500Y-64134813D01*
X133129686Y-64402719D01*
X133129688Y-64402731D01*
X133189684Y-64665594D01*
X133189687Y-64665602D01*
X133278734Y-64920082D01*
X133395714Y-65162994D01*
X133395716Y-65162997D01*
X133539162Y-65391289D01*
X133707266Y-65602085D01*
X133897915Y-65792734D01*
X134108711Y-65960838D01*
X134337003Y-66104284D01*
X134579921Y-66221267D01*
X134771049Y-66288145D01*
X134834397Y-66310312D01*
X134834405Y-66310315D01*
X134834408Y-66310315D01*
X134834409Y-66310316D01*
X135097268Y-66370312D01*
X135365187Y-66400499D01*
X135365188Y-66400500D01*
X135365191Y-66400500D01*
X135634812Y-66400500D01*
X135634812Y-66400499D01*
X135902732Y-66370312D01*
X136165591Y-66310316D01*
X136420079Y-66221267D01*
X136662997Y-66104284D01*
X136891289Y-65960838D01*
X137102085Y-65792734D01*
X137292734Y-65602085D01*
X137460838Y-65391289D01*
X137604284Y-65162997D01*
X137721267Y-64920079D01*
X137810316Y-64665591D01*
X137870312Y-64402732D01*
X137900500Y-64134809D01*
X137900500Y-63865191D01*
X137870312Y-63597268D01*
X137810316Y-63334409D01*
X137721267Y-63079921D01*
X137604284Y-62837003D01*
X137460838Y-62608711D01*
X137292734Y-62397915D01*
X137102085Y-62207266D01*
X136891289Y-62039162D01*
X136662997Y-61895716D01*
X136662994Y-61895714D01*
X136420082Y-61778734D01*
X136165602Y-61689687D01*
X136165594Y-61689684D01*
X136025909Y-61657802D01*
X135971529Y-61645390D01*
X135910552Y-61611282D01*
X135877694Y-61549621D01*
X135883389Y-61479984D01*
X135925829Y-61424480D01*
X135991539Y-61400732D01*
X135999123Y-61400500D01*
X136704730Y-61400500D01*
X136704736Y-61400500D01*
X136837983Y-61390013D01*
X137058000Y-61334574D01*
X137264582Y-61240740D01*
X137264584Y-61240738D01*
X137264589Y-61240736D01*
X137451090Y-61111526D01*
X137611526Y-60951090D01*
X137740736Y-60764589D01*
X137740741Y-60764579D01*
X137744053Y-60757289D01*
X137834574Y-60558000D01*
X137890013Y-60337983D01*
X137900500Y-60204736D01*
X137900500Y-58275441D01*
X140699500Y-58275441D01*
X140699500Y-58524558D01*
X140699501Y-58524575D01*
X140732017Y-58771561D01*
X140796498Y-59012207D01*
X140891830Y-59242361D01*
X140891837Y-59242376D01*
X141016400Y-59458126D01*
X141168060Y-59655774D01*
X141168066Y-59655781D01*
X141344218Y-59831933D01*
X141344225Y-59831939D01*
X141541873Y-59983599D01*
X141757623Y-60108162D01*
X141757638Y-60108169D01*
X141856825Y-60149253D01*
X141987793Y-60203502D01*
X142228435Y-60267982D01*
X142475435Y-60300500D01*
X142475442Y-60300500D01*
X142724558Y-60300500D01*
X142724565Y-60300500D01*
X142971565Y-60267982D01*
X143212207Y-60203502D01*
X143442373Y-60108164D01*
X143658127Y-59983599D01*
X143855776Y-59831938D01*
X144031938Y-59655776D01*
X144183599Y-59458127D01*
X144308164Y-59242373D01*
X144403502Y-59012207D01*
X144467982Y-58771565D01*
X144500500Y-58524565D01*
X144500500Y-58275435D01*
X144467982Y-58028435D01*
X144403502Y-57787793D01*
X144308164Y-57557627D01*
X144298686Y-57541211D01*
X144183599Y-57341873D01*
X144031939Y-57144225D01*
X144031933Y-57144218D01*
X143855781Y-56968066D01*
X143855774Y-56968060D01*
X143658126Y-56816400D01*
X143442376Y-56691837D01*
X143442361Y-56691830D01*
X143212207Y-56596498D01*
X142971561Y-56532017D01*
X142724575Y-56499501D01*
X142724570Y-56499500D01*
X142724565Y-56499500D01*
X142475435Y-56499500D01*
X142475429Y-56499500D01*
X142475424Y-56499501D01*
X142228438Y-56532017D01*
X141987792Y-56596498D01*
X141757638Y-56691830D01*
X141757623Y-56691837D01*
X141541873Y-56816400D01*
X141344225Y-56968060D01*
X141344218Y-56968066D01*
X141168066Y-57144218D01*
X141168060Y-57144225D01*
X141016400Y-57341873D01*
X140891837Y-57557623D01*
X140891830Y-57557638D01*
X140796498Y-57787792D01*
X140732017Y-58028438D01*
X140699501Y-58275424D01*
X140699500Y-58275441D01*
X137900500Y-58275441D01*
X137900500Y-57795264D01*
X137890013Y-57662017D01*
X137834574Y-57442000D01*
X137740740Y-57235418D01*
X137740736Y-57235410D01*
X137611526Y-57048909D01*
X137451090Y-56888473D01*
X137264589Y-56759263D01*
X137264579Y-56759258D01*
X137058002Y-56665426D01*
X136911322Y-56628466D01*
X136837983Y-56609987D01*
X136804671Y-56607365D01*
X136704739Y-56599500D01*
X136704736Y-56599500D01*
X134295264Y-56599500D01*
X134295260Y-56599500D01*
X134162017Y-56609987D01*
X133941997Y-56665426D01*
X133735420Y-56759258D01*
X133735410Y-56759263D01*
X133548909Y-56888473D01*
X133388473Y-57048909D01*
X133259263Y-57235410D01*
X133259258Y-57235420D01*
X133165426Y-57441997D01*
X133109987Y-57662017D01*
X133099500Y-57795260D01*
X107705503Y-57795260D01*
X107703503Y-57787797D01*
X107703502Y-57787793D01*
X107608164Y-57557627D01*
X107598686Y-57541211D01*
X107483599Y-57341873D01*
X107331939Y-57144225D01*
X107331933Y-57144218D01*
X107155781Y-56968066D01*
X107155774Y-56968060D01*
X106958126Y-56816400D01*
X106742376Y-56691837D01*
X106742361Y-56691830D01*
X106512207Y-56596498D01*
X106271561Y-56532017D01*
X106024575Y-56499501D01*
X106024570Y-56499500D01*
X106024565Y-56499500D01*
X105775435Y-56499500D01*
X105775429Y-56499500D01*
X105775424Y-56499501D01*
X105528438Y-56532017D01*
X105287792Y-56596498D01*
X105057638Y-56691830D01*
X105057623Y-56691837D01*
X104841873Y-56816400D01*
X104644225Y-56968060D01*
X104644218Y-56968066D01*
X104468066Y-57144218D01*
X104468060Y-57144225D01*
X104316400Y-57341873D01*
X104191837Y-57557623D01*
X104191830Y-57557638D01*
X104096498Y-57787792D01*
X104032017Y-58028438D01*
X103999501Y-58275424D01*
X103999500Y-58275441D01*
X102500500Y-58275441D01*
X102500500Y-58203246D01*
X102500670Y-58196756D01*
X102509491Y-58028435D01*
X102517687Y-57872045D01*
X102519044Y-57859139D01*
X102569401Y-57541201D01*
X102572094Y-57528525D01*
X102655416Y-57217564D01*
X102659425Y-57205229D01*
X102774784Y-56904707D01*
X102780054Y-56892868D01*
X102926214Y-56606014D01*
X102932680Y-56594815D01*
X103108015Y-56324823D01*
X103115630Y-56314342D01*
X103318229Y-56064153D01*
X103326896Y-56054528D01*
X103554528Y-55826896D01*
X103564153Y-55818229D01*
X103814342Y-55615630D01*
X103824823Y-55608015D01*
X104094815Y-55432680D01*
X104106014Y-55426214D01*
X104392868Y-55280054D01*
X104404707Y-55274784D01*
X104705236Y-55159422D01*
X104717564Y-55155416D01*
X105028525Y-55072094D01*
X105041201Y-55069401D01*
X105359141Y-55019043D01*
X105372045Y-55017687D01*
X105696756Y-55000669D01*
X105703246Y-55000500D01*
X105765892Y-55000500D01*
X142734108Y-55000500D01*
X142796754Y-55000500D01*
X142803243Y-55000669D01*
G37*
%TD.AperFunction*%
%TD*%
M02*
