%TF.GenerationSoftware,KiCad,Pcbnew,10.0.4*%
%TF.CreationDate,2026-09-07T21:10:45+05:30*%
%TF.ProjectId,STM 32 RU First Prototype,53544d20-3332-4205-9255-204669727374,rev?*%
%TF.SameCoordinates,Original*%
%TF.FileFunction,Soldermask,Top*%
%TF.FilePolarity,Negative*%
%FSLAX46Y46*%
G04 Gerber Fmt 4.6, Leading zero omitted, Abs format (unit mm)*
G04 Created by KiCad (PCBNEW 10.0.4) date 2026-09-07 21:10:45*
%MOMM*%
%LPD*%
G01*
G04 APERTURE LIST*
G04 Aperture macros list*
%AMRoundRect*
0 Rectangle with rounded corners*
0 $1 Rounding radius*
0 $2 $3 $4 $5 $6 $7 $8 $9 X,Y pos of 4 corners*
0 Add a 4 corners polygon primitive as box body*
4,1,4,$2,$3,$4,$5,$6,$7,$8,$9,$2,$3,0*
0 Add four circle primitives for the rounded corners*
1,1,$1+$1,$2,$3*
1,1,$1+$1,$4,$5*
1,1,$1+$1,$6,$7*
1,1,$1+$1,$8,$9*
0 Add four rect primitives between the rounded corners*
20,1,$1+$1,$2,$3,$4,$5,0*
20,1,$1+$1,$4,$5,$6,$7,0*
20,1,$1+$1,$6,$7,$8,$9,0*
20,1,$1+$1,$8,$9,$2,$3,0*%
G04 Aperture macros list end*
%ADD10C,0.150000*%
%ADD11C,0.300000*%
%ADD12C,0.400000*%
%ADD13C,0.010000*%
%ADD14RoundRect,0.200000X-0.200000X-0.275000X0.200000X-0.275000X0.200000X0.275000X-0.200000X0.275000X0*%
%ADD15C,0.650000*%
%ADD16RoundRect,0.150000X0.425000X-0.150000X0.425000X0.150000X-0.425000X0.150000X-0.425000X-0.150000X0*%
%ADD17RoundRect,0.075000X0.500000X-0.075000X0.500000X0.075000X-0.500000X0.075000X-0.500000X-0.075000X0*%
%ADD18O,2.100000X1.000000*%
%ADD19O,1.800000X1.000000*%
%ADD20RoundRect,0.760000X1.140000X-1.140000X1.140000X1.140000X-1.140000X1.140000X-1.140000X-1.140000X0*%
%ADD21C,3.800000*%
%ADD22RoundRect,0.225000X-0.225000X-0.250000X0.225000X-0.250000X0.225000X0.250000X-0.225000X0.250000X0*%
%ADD23RoundRect,0.225000X0.335876X0.017678X0.017678X0.335876X-0.335876X-0.017678X-0.017678X-0.335876X0*%
%ADD24RoundRect,0.250000X0.600000X0.750000X-0.600000X0.750000X-0.600000X-0.750000X0.600000X-0.750000X0*%
%ADD25O,1.700000X2.000000*%
%ADD26RoundRect,0.200000X0.200000X0.275000X-0.200000X0.275000X-0.200000X-0.275000X0.200000X-0.275000X0*%
%ADD27RoundRect,0.218750X-0.218750X-0.256250X0.218750X-0.256250X0.218750X0.256250X-0.218750X0.256250X0*%
%ADD28RoundRect,0.250000X-0.800000X0.450000X-0.800000X-0.450000X0.800000X-0.450000X0.800000X0.450000X0*%
%ADD29R,0.457200X1.016000*%
%ADD30RoundRect,0.150000X-0.150000X0.825000X-0.150000X-0.825000X0.150000X-0.825000X0.150000X0.825000X0*%
%ADD31RoundRect,0.250000X0.600000X-0.800000X0.600000X0.800000X-0.600000X0.800000X-0.600000X-0.800000X0*%
%ADD32RoundRect,0.250000X-0.600000X-0.750000X0.600000X-0.750000X0.600000X0.750000X-0.600000X0.750000X0*%
%ADD33RoundRect,0.225000X-0.017678X0.335876X-0.335876X0.017678X0.017678X-0.335876X0.335876X-0.017678X0*%
%ADD34RoundRect,0.225000X0.225000X0.250000X-0.225000X0.250000X-0.225000X-0.250000X0.225000X-0.250000X0*%
%ADD35RoundRect,0.200000X-0.275000X0.200000X-0.275000X-0.200000X0.275000X-0.200000X0.275000X0.200000X0*%
%ADD36RoundRect,0.075000X-0.700000X-0.075000X0.700000X-0.075000X0.700000X0.075000X-0.700000X0.075000X0*%
%ADD37RoundRect,0.075000X-0.075000X-0.700000X0.075000X-0.700000X0.075000X0.700000X-0.075000X0.700000X0*%
%ADD38RoundRect,0.225000X0.250000X-0.225000X0.250000X0.225000X-0.250000X0.225000X-0.250000X-0.225000X0*%
%ADD39RoundRect,0.102000X1.250000X-1.250000X1.250000X1.250000X-1.250000X1.250000X-1.250000X-1.250000X0*%
%ADD40R,2.000000X2.000000*%
%ADD41RoundRect,0.225000X-0.250000X0.225000X-0.250000X-0.225000X0.250000X-0.225000X0.250000X0.225000X0*%
%ADD42RoundRect,0.101600X0.550000X0.300000X-0.550000X0.300000X-0.550000X-0.300000X0.550000X-0.300000X0*%
%ADD43RoundRect,0.162500X-0.650000X-0.162500X0.650000X-0.162500X0.650000X0.162500X-0.650000X0.162500X0*%
%ADD44R,0.700000X0.700000*%
%ADD45RoundRect,0.200000X0.275000X-0.200000X0.275000X0.200000X-0.275000X0.200000X-0.275000X-0.200000X0*%
%ADD46RoundRect,0.150000X0.150000X-0.825000X0.150000X0.825000X-0.150000X0.825000X-0.150000X-0.825000X0*%
%ADD47R,0.800000X1.000000*%
%ADD48C,0.900000*%
%ADD49R,1.500000X0.700000*%
%ADD50RoundRect,0.102000X0.400000X-0.500000X0.400000X0.500000X-0.400000X0.500000X-0.400000X-0.500000X0*%
%ADD51RoundRect,0.760000X-1.140000X1.140000X-1.140000X-1.140000X1.140000X-1.140000X1.140000X1.140000X0*%
%ADD52R,1.700000X1.700000*%
%ADD53C,1.700000*%
%ADD54RoundRect,0.102000X0.900000X-0.900000X0.900000X0.900000X-0.900000X0.900000X-0.900000X-0.900000X0*%
%ADD55C,2.004000*%
%ADD56C,3.200000*%
G04 APERTURE END LIST*
D10*
X177002200Y-166007200D02*
X285002200Y-166007200D01*
X285002200Y-198007200D01*
X177002200Y-198007200D01*
X177002200Y-166007200D01*
X10000000Y-10000000D02*
X287002200Y-10000000D01*
X287002200Y-200007200D01*
X10000000Y-200007200D01*
X10000000Y-10000000D01*
X12000000Y-12000000D02*
X285002200Y-12000000D01*
X285002200Y-198007200D01*
X12000000Y-198007200D01*
X12000000Y-12000000D01*
X60000000Y-12000000D02*
X60000000Y-10000000D01*
X110000000Y-12000000D02*
X110000000Y-10000000D01*
X160000000Y-12000000D02*
X160000000Y-10000000D01*
X210000000Y-12000000D02*
X210000000Y-10000000D01*
X260000000Y-12000000D02*
X260000000Y-10000000D01*
X36089160Y-11593604D02*
X35346303Y-11593604D01*
X35717731Y-11593604D02*
X35717731Y-10293604D01*
X35717731Y-10293604D02*
X35593922Y-10479319D01*
X35593922Y-10479319D02*
X35470112Y-10603128D01*
X35470112Y-10603128D02*
X35346303Y-10665033D01*
X85346303Y-10417414D02*
X85408207Y-10355509D01*
X85408207Y-10355509D02*
X85532017Y-10293604D01*
X85532017Y-10293604D02*
X85841541Y-10293604D01*
X85841541Y-10293604D02*
X85965350Y-10355509D01*
X85965350Y-10355509D02*
X86027255Y-10417414D01*
X86027255Y-10417414D02*
X86089160Y-10541223D01*
X86089160Y-10541223D02*
X86089160Y-10665033D01*
X86089160Y-10665033D02*
X86027255Y-10850747D01*
X86027255Y-10850747D02*
X85284398Y-11593604D01*
X85284398Y-11593604D02*
X86089160Y-11593604D01*
X135284398Y-10293604D02*
X136089160Y-10293604D01*
X136089160Y-10293604D02*
X135655826Y-10788842D01*
X135655826Y-10788842D02*
X135841541Y-10788842D01*
X135841541Y-10788842D02*
X135965350Y-10850747D01*
X135965350Y-10850747D02*
X136027255Y-10912652D01*
X136027255Y-10912652D02*
X136089160Y-11036461D01*
X136089160Y-11036461D02*
X136089160Y-11345985D01*
X136089160Y-11345985D02*
X136027255Y-11469795D01*
X136027255Y-11469795D02*
X135965350Y-11531700D01*
X135965350Y-11531700D02*
X135841541Y-11593604D01*
X135841541Y-11593604D02*
X135470112Y-11593604D01*
X135470112Y-11593604D02*
X135346303Y-11531700D01*
X135346303Y-11531700D02*
X135284398Y-11469795D01*
X185965350Y-10726938D02*
X185965350Y-11593604D01*
X185655826Y-10231700D02*
X185346303Y-11160271D01*
X185346303Y-11160271D02*
X186151064Y-11160271D01*
X236027255Y-10293604D02*
X235408207Y-10293604D01*
X235408207Y-10293604D02*
X235346303Y-10912652D01*
X235346303Y-10912652D02*
X235408207Y-10850747D01*
X235408207Y-10850747D02*
X235532017Y-10788842D01*
X235532017Y-10788842D02*
X235841541Y-10788842D01*
X235841541Y-10788842D02*
X235965350Y-10850747D01*
X235965350Y-10850747D02*
X236027255Y-10912652D01*
X236027255Y-10912652D02*
X236089160Y-11036461D01*
X236089160Y-11036461D02*
X236089160Y-11345985D01*
X236089160Y-11345985D02*
X236027255Y-11469795D01*
X236027255Y-11469795D02*
X235965350Y-11531700D01*
X235965350Y-11531700D02*
X235841541Y-11593604D01*
X235841541Y-11593604D02*
X235532017Y-11593604D01*
X235532017Y-11593604D02*
X235408207Y-11531700D01*
X235408207Y-11531700D02*
X235346303Y-11469795D01*
X285965350Y-10293604D02*
X285717731Y-10293604D01*
X285717731Y-10293604D02*
X285593922Y-10355509D01*
X285593922Y-10355509D02*
X285532017Y-10417414D01*
X285532017Y-10417414D02*
X285408207Y-10603128D01*
X285408207Y-10603128D02*
X285346303Y-10850747D01*
X285346303Y-10850747D02*
X285346303Y-11345985D01*
X285346303Y-11345985D02*
X285408207Y-11469795D01*
X285408207Y-11469795D02*
X285470112Y-11531700D01*
X285470112Y-11531700D02*
X285593922Y-11593604D01*
X285593922Y-11593604D02*
X285841541Y-11593604D01*
X285841541Y-11593604D02*
X285965350Y-11531700D01*
X285965350Y-11531700D02*
X286027255Y-11469795D01*
X286027255Y-11469795D02*
X286089160Y-11345985D01*
X286089160Y-11345985D02*
X286089160Y-11036461D01*
X286089160Y-11036461D02*
X286027255Y-10912652D01*
X286027255Y-10912652D02*
X285965350Y-10850747D01*
X285965350Y-10850747D02*
X285841541Y-10788842D01*
X285841541Y-10788842D02*
X285593922Y-10788842D01*
X285593922Y-10788842D02*
X285470112Y-10850747D01*
X285470112Y-10850747D02*
X285408207Y-10912652D01*
X285408207Y-10912652D02*
X285346303Y-11036461D01*
X60000000Y-198007200D02*
X60000000Y-200007200D01*
X110000000Y-198007200D02*
X110000000Y-200007200D01*
X160000000Y-198007200D02*
X160000000Y-200007200D01*
X210000000Y-198007200D02*
X210000000Y-200007200D01*
X260000000Y-198007200D02*
X260000000Y-200007200D01*
X36089160Y-199600804D02*
X35346303Y-199600804D01*
X35717731Y-199600804D02*
X35717731Y-198300804D01*
X35717731Y-198300804D02*
X35593922Y-198486519D01*
X35593922Y-198486519D02*
X35470112Y-198610328D01*
X35470112Y-198610328D02*
X35346303Y-198672233D01*
X85346303Y-198424614D02*
X85408207Y-198362709D01*
X85408207Y-198362709D02*
X85532017Y-198300804D01*
X85532017Y-198300804D02*
X85841541Y-198300804D01*
X85841541Y-198300804D02*
X85965350Y-198362709D01*
X85965350Y-198362709D02*
X86027255Y-198424614D01*
X86027255Y-198424614D02*
X86089160Y-198548423D01*
X86089160Y-198548423D02*
X86089160Y-198672233D01*
X86089160Y-198672233D02*
X86027255Y-198857947D01*
X86027255Y-198857947D02*
X85284398Y-199600804D01*
X85284398Y-199600804D02*
X86089160Y-199600804D01*
X135284398Y-198300804D02*
X136089160Y-198300804D01*
X136089160Y-198300804D02*
X135655826Y-198796042D01*
X135655826Y-198796042D02*
X135841541Y-198796042D01*
X135841541Y-198796042D02*
X135965350Y-198857947D01*
X135965350Y-198857947D02*
X136027255Y-198919852D01*
X136027255Y-198919852D02*
X136089160Y-199043661D01*
X136089160Y-199043661D02*
X136089160Y-199353185D01*
X136089160Y-199353185D02*
X136027255Y-199476995D01*
X136027255Y-199476995D02*
X135965350Y-199538900D01*
X135965350Y-199538900D02*
X135841541Y-199600804D01*
X135841541Y-199600804D02*
X135470112Y-199600804D01*
X135470112Y-199600804D02*
X135346303Y-199538900D01*
X135346303Y-199538900D02*
X135284398Y-199476995D01*
X185965350Y-198734138D02*
X185965350Y-199600804D01*
X185655826Y-198238900D02*
X185346303Y-199167471D01*
X185346303Y-199167471D02*
X186151064Y-199167471D01*
X236027255Y-198300804D02*
X235408207Y-198300804D01*
X235408207Y-198300804D02*
X235346303Y-198919852D01*
X235346303Y-198919852D02*
X235408207Y-198857947D01*
X235408207Y-198857947D02*
X235532017Y-198796042D01*
X235532017Y-198796042D02*
X235841541Y-198796042D01*
X235841541Y-198796042D02*
X235965350Y-198857947D01*
X235965350Y-198857947D02*
X236027255Y-198919852D01*
X236027255Y-198919852D02*
X236089160Y-199043661D01*
X236089160Y-199043661D02*
X236089160Y-199353185D01*
X236089160Y-199353185D02*
X236027255Y-199476995D01*
X236027255Y-199476995D02*
X235965350Y-199538900D01*
X235965350Y-199538900D02*
X235841541Y-199600804D01*
X235841541Y-199600804D02*
X235532017Y-199600804D01*
X235532017Y-199600804D02*
X235408207Y-199538900D01*
X235408207Y-199538900D02*
X235346303Y-199476995D01*
X285965350Y-198300804D02*
X285717731Y-198300804D01*
X285717731Y-198300804D02*
X285593922Y-198362709D01*
X285593922Y-198362709D02*
X285532017Y-198424614D01*
X285532017Y-198424614D02*
X285408207Y-198610328D01*
X285408207Y-198610328D02*
X285346303Y-198857947D01*
X285346303Y-198857947D02*
X285346303Y-199353185D01*
X285346303Y-199353185D02*
X285408207Y-199476995D01*
X285408207Y-199476995D02*
X285470112Y-199538900D01*
X285470112Y-199538900D02*
X285593922Y-199600804D01*
X285593922Y-199600804D02*
X285841541Y-199600804D01*
X285841541Y-199600804D02*
X285965350Y-199538900D01*
X285965350Y-199538900D02*
X286027255Y-199476995D01*
X286027255Y-199476995D02*
X286089160Y-199353185D01*
X286089160Y-199353185D02*
X286089160Y-199043661D01*
X286089160Y-199043661D02*
X286027255Y-198919852D01*
X286027255Y-198919852D02*
X285965350Y-198857947D01*
X285965350Y-198857947D02*
X285841541Y-198796042D01*
X285841541Y-198796042D02*
X285593922Y-198796042D01*
X285593922Y-198796042D02*
X285470112Y-198857947D01*
X285470112Y-198857947D02*
X285408207Y-198919852D01*
X285408207Y-198919852D02*
X285346303Y-199043661D01*
X10000000Y-60000000D02*
X12000000Y-60000000D01*
X10000000Y-110000000D02*
X12000000Y-110000000D01*
X10000000Y-160000000D02*
X12000000Y-160000000D01*
X10690476Y-35222176D02*
X11309523Y-35222176D01*
X10566666Y-35593604D02*
X10999999Y-34293604D01*
X10999999Y-34293604D02*
X11433333Y-35593604D01*
X11092857Y-84912652D02*
X11278571Y-84974557D01*
X11278571Y-84974557D02*
X11340476Y-85036461D01*
X11340476Y-85036461D02*
X11402380Y-85160271D01*
X11402380Y-85160271D02*
X11402380Y-85345985D01*
X11402380Y-85345985D02*
X11340476Y-85469795D01*
X11340476Y-85469795D02*
X11278571Y-85531700D01*
X11278571Y-85531700D02*
X11154761Y-85593604D01*
X11154761Y-85593604D02*
X10659523Y-85593604D01*
X10659523Y-85593604D02*
X10659523Y-84293604D01*
X10659523Y-84293604D02*
X11092857Y-84293604D01*
X11092857Y-84293604D02*
X11216666Y-84355509D01*
X11216666Y-84355509D02*
X11278571Y-84417414D01*
X11278571Y-84417414D02*
X11340476Y-84541223D01*
X11340476Y-84541223D02*
X11340476Y-84665033D01*
X11340476Y-84665033D02*
X11278571Y-84788842D01*
X11278571Y-84788842D02*
X11216666Y-84850747D01*
X11216666Y-84850747D02*
X11092857Y-84912652D01*
X11092857Y-84912652D02*
X10659523Y-84912652D01*
X11402380Y-135469795D02*
X11340476Y-135531700D01*
X11340476Y-135531700D02*
X11154761Y-135593604D01*
X11154761Y-135593604D02*
X11030952Y-135593604D01*
X11030952Y-135593604D02*
X10845238Y-135531700D01*
X10845238Y-135531700D02*
X10721428Y-135407890D01*
X10721428Y-135407890D02*
X10659523Y-135284080D01*
X10659523Y-135284080D02*
X10597619Y-135036461D01*
X10597619Y-135036461D02*
X10597619Y-134850747D01*
X10597619Y-134850747D02*
X10659523Y-134603128D01*
X10659523Y-134603128D02*
X10721428Y-134479319D01*
X10721428Y-134479319D02*
X10845238Y-134355509D01*
X10845238Y-134355509D02*
X11030952Y-134293604D01*
X11030952Y-134293604D02*
X11154761Y-134293604D01*
X11154761Y-134293604D02*
X11340476Y-134355509D01*
X11340476Y-134355509D02*
X11402380Y-134417414D01*
X10659523Y-185593604D02*
X10659523Y-184293604D01*
X10659523Y-184293604D02*
X10969047Y-184293604D01*
X10969047Y-184293604D02*
X11154761Y-184355509D01*
X11154761Y-184355509D02*
X11278571Y-184479319D01*
X11278571Y-184479319D02*
X11340476Y-184603128D01*
X11340476Y-184603128D02*
X11402380Y-184850747D01*
X11402380Y-184850747D02*
X11402380Y-185036461D01*
X11402380Y-185036461D02*
X11340476Y-185284080D01*
X11340476Y-185284080D02*
X11278571Y-185407890D01*
X11278571Y-185407890D02*
X11154761Y-185531700D01*
X11154761Y-185531700D02*
X10969047Y-185593604D01*
X10969047Y-185593604D02*
X10659523Y-185593604D01*
X287002200Y-60000000D02*
X285002200Y-60000000D01*
X287002200Y-110000000D02*
X285002200Y-110000000D01*
X287002200Y-160000000D02*
X285002200Y-160000000D01*
X285692676Y-35222176D02*
X286311723Y-35222176D01*
X285568866Y-35593604D02*
X286002199Y-34293604D01*
X286002199Y-34293604D02*
X286435533Y-35593604D01*
X286095057Y-84912652D02*
X286280771Y-84974557D01*
X286280771Y-84974557D02*
X286342676Y-85036461D01*
X286342676Y-85036461D02*
X286404580Y-85160271D01*
X286404580Y-85160271D02*
X286404580Y-85345985D01*
X286404580Y-85345985D02*
X286342676Y-85469795D01*
X286342676Y-85469795D02*
X286280771Y-85531700D01*
X286280771Y-85531700D02*
X286156961Y-85593604D01*
X286156961Y-85593604D02*
X285661723Y-85593604D01*
X285661723Y-85593604D02*
X285661723Y-84293604D01*
X285661723Y-84293604D02*
X286095057Y-84293604D01*
X286095057Y-84293604D02*
X286218866Y-84355509D01*
X286218866Y-84355509D02*
X286280771Y-84417414D01*
X286280771Y-84417414D02*
X286342676Y-84541223D01*
X286342676Y-84541223D02*
X286342676Y-84665033D01*
X286342676Y-84665033D02*
X286280771Y-84788842D01*
X286280771Y-84788842D02*
X286218866Y-84850747D01*
X286218866Y-84850747D02*
X286095057Y-84912652D01*
X286095057Y-84912652D02*
X285661723Y-84912652D01*
X286404580Y-135469795D02*
X286342676Y-135531700D01*
X286342676Y-135531700D02*
X286156961Y-135593604D01*
X286156961Y-135593604D02*
X286033152Y-135593604D01*
X286033152Y-135593604D02*
X285847438Y-135531700D01*
X285847438Y-135531700D02*
X285723628Y-135407890D01*
X285723628Y-135407890D02*
X285661723Y-135284080D01*
X285661723Y-135284080D02*
X285599819Y-135036461D01*
X285599819Y-135036461D02*
X285599819Y-134850747D01*
X285599819Y-134850747D02*
X285661723Y-134603128D01*
X285661723Y-134603128D02*
X285723628Y-134479319D01*
X285723628Y-134479319D02*
X285847438Y-134355509D01*
X285847438Y-134355509D02*
X286033152Y-134293604D01*
X286033152Y-134293604D02*
X286156961Y-134293604D01*
X286156961Y-134293604D02*
X286342676Y-134355509D01*
X286342676Y-134355509D02*
X286404580Y-134417414D01*
X285661723Y-185593604D02*
X285661723Y-184293604D01*
X285661723Y-184293604D02*
X285971247Y-184293604D01*
X285971247Y-184293604D02*
X286156961Y-184355509D01*
X286156961Y-184355509D02*
X286280771Y-184479319D01*
X286280771Y-184479319D02*
X286342676Y-184603128D01*
X286342676Y-184603128D02*
X286404580Y-184850747D01*
X286404580Y-184850747D02*
X286404580Y-185036461D01*
X286404580Y-185036461D02*
X286342676Y-185284080D01*
X286342676Y-185284080D02*
X286280771Y-185407890D01*
X286280771Y-185407890D02*
X286156961Y-185531700D01*
X286156961Y-185531700D02*
X285971247Y-185593604D01*
X285971247Y-185593604D02*
X285661723Y-185593604D01*
X200458026Y-193793328D02*
X200458026Y-192293328D01*
X200458026Y-192293328D02*
X200815169Y-192293328D01*
X200815169Y-192293328D02*
X201029455Y-192364757D01*
X201029455Y-192364757D02*
X201172312Y-192507614D01*
X201172312Y-192507614D02*
X201243741Y-192650471D01*
X201243741Y-192650471D02*
X201315169Y-192936185D01*
X201315169Y-192936185D02*
X201315169Y-193150471D01*
X201315169Y-193150471D02*
X201243741Y-193436185D01*
X201243741Y-193436185D02*
X201172312Y-193579042D01*
X201172312Y-193579042D02*
X201029455Y-193721900D01*
X201029455Y-193721900D02*
X200815169Y-193793328D01*
X200815169Y-193793328D02*
X200458026Y-193793328D01*
X202600884Y-193793328D02*
X202600884Y-193007614D01*
X202600884Y-193007614D02*
X202529455Y-192864757D01*
X202529455Y-192864757D02*
X202386598Y-192793328D01*
X202386598Y-192793328D02*
X202100884Y-192793328D01*
X202100884Y-192793328D02*
X201958026Y-192864757D01*
X202600884Y-193721900D02*
X202458026Y-193793328D01*
X202458026Y-193793328D02*
X202100884Y-193793328D01*
X202100884Y-193793328D02*
X201958026Y-193721900D01*
X201958026Y-193721900D02*
X201886598Y-193579042D01*
X201886598Y-193579042D02*
X201886598Y-193436185D01*
X201886598Y-193436185D02*
X201958026Y-193293328D01*
X201958026Y-193293328D02*
X202100884Y-193221900D01*
X202100884Y-193221900D02*
X202458026Y-193221900D01*
X202458026Y-193221900D02*
X202600884Y-193150471D01*
X203100884Y-192793328D02*
X203672312Y-192793328D01*
X203315169Y-192293328D02*
X203315169Y-193579042D01*
X203315169Y-193579042D02*
X203386598Y-193721900D01*
X203386598Y-193721900D02*
X203529455Y-193793328D01*
X203529455Y-193793328D02*
X203672312Y-193793328D01*
X204743741Y-193721900D02*
X204600884Y-193793328D01*
X204600884Y-193793328D02*
X204315170Y-193793328D01*
X204315170Y-193793328D02*
X204172312Y-193721900D01*
X204172312Y-193721900D02*
X204100884Y-193579042D01*
X204100884Y-193579042D02*
X204100884Y-193007614D01*
X204100884Y-193007614D02*
X204172312Y-192864757D01*
X204172312Y-192864757D02*
X204315170Y-192793328D01*
X204315170Y-192793328D02*
X204600884Y-192793328D01*
X204600884Y-192793328D02*
X204743741Y-192864757D01*
X204743741Y-192864757D02*
X204815170Y-193007614D01*
X204815170Y-193007614D02*
X204815170Y-193150471D01*
X204815170Y-193150471D02*
X204100884Y-193293328D01*
X205458026Y-193650471D02*
X205529455Y-193721900D01*
X205529455Y-193721900D02*
X205458026Y-193793328D01*
X205458026Y-193793328D02*
X205386598Y-193721900D01*
X205386598Y-193721900D02*
X205458026Y-193650471D01*
X205458026Y-193650471D02*
X205458026Y-193793328D01*
X205458026Y-192864757D02*
X205529455Y-192936185D01*
X205529455Y-192936185D02*
X205458026Y-193007614D01*
X205458026Y-193007614D02*
X205386598Y-192936185D01*
X205386598Y-192936185D02*
X205458026Y-192864757D01*
X205458026Y-192864757D02*
X205458026Y-193007614D01*
X177002200Y-194507200D02*
X285002200Y-194507200D01*
X178458026Y-196593328D02*
X178458026Y-195093328D01*
X179315169Y-196593328D02*
X178672312Y-195736185D01*
X179315169Y-195093328D02*
X178458026Y-195950471D01*
X179958026Y-196593328D02*
X179958026Y-195593328D01*
X179958026Y-195093328D02*
X179886598Y-195164757D01*
X179886598Y-195164757D02*
X179958026Y-195236185D01*
X179958026Y-195236185D02*
X180029455Y-195164757D01*
X180029455Y-195164757D02*
X179958026Y-195093328D01*
X179958026Y-195093328D02*
X179958026Y-195236185D01*
X181529455Y-196450471D02*
X181458027Y-196521900D01*
X181458027Y-196521900D02*
X181243741Y-196593328D01*
X181243741Y-196593328D02*
X181100884Y-196593328D01*
X181100884Y-196593328D02*
X180886598Y-196521900D01*
X180886598Y-196521900D02*
X180743741Y-196379042D01*
X180743741Y-196379042D02*
X180672312Y-196236185D01*
X180672312Y-196236185D02*
X180600884Y-195950471D01*
X180600884Y-195950471D02*
X180600884Y-195736185D01*
X180600884Y-195736185D02*
X180672312Y-195450471D01*
X180672312Y-195450471D02*
X180743741Y-195307614D01*
X180743741Y-195307614D02*
X180886598Y-195164757D01*
X180886598Y-195164757D02*
X181100884Y-195093328D01*
X181100884Y-195093328D02*
X181243741Y-195093328D01*
X181243741Y-195093328D02*
X181458027Y-195164757D01*
X181458027Y-195164757D02*
X181529455Y-195236185D01*
X182815170Y-196593328D02*
X182815170Y-195807614D01*
X182815170Y-195807614D02*
X182743741Y-195664757D01*
X182743741Y-195664757D02*
X182600884Y-195593328D01*
X182600884Y-195593328D02*
X182315170Y-195593328D01*
X182315170Y-195593328D02*
X182172312Y-195664757D01*
X182815170Y-196521900D02*
X182672312Y-196593328D01*
X182672312Y-196593328D02*
X182315170Y-196593328D01*
X182315170Y-196593328D02*
X182172312Y-196521900D01*
X182172312Y-196521900D02*
X182100884Y-196379042D01*
X182100884Y-196379042D02*
X182100884Y-196236185D01*
X182100884Y-196236185D02*
X182172312Y-196093328D01*
X182172312Y-196093328D02*
X182315170Y-196021900D01*
X182315170Y-196021900D02*
X182672312Y-196021900D01*
X182672312Y-196021900D02*
X182815170Y-195950471D01*
X184172313Y-196593328D02*
X184172313Y-195093328D01*
X184172313Y-196521900D02*
X184029455Y-196593328D01*
X184029455Y-196593328D02*
X183743741Y-196593328D01*
X183743741Y-196593328D02*
X183600884Y-196521900D01*
X183600884Y-196521900D02*
X183529455Y-196450471D01*
X183529455Y-196450471D02*
X183458027Y-196307614D01*
X183458027Y-196307614D02*
X183458027Y-195879042D01*
X183458027Y-195879042D02*
X183529455Y-195736185D01*
X183529455Y-195736185D02*
X183600884Y-195664757D01*
X183600884Y-195664757D02*
X183743741Y-195593328D01*
X183743741Y-195593328D02*
X184029455Y-195593328D01*
X184029455Y-195593328D02*
X184172313Y-195664757D01*
X186029455Y-195807614D02*
X186529455Y-195807614D01*
X186743741Y-196593328D02*
X186029455Y-196593328D01*
X186029455Y-196593328D02*
X186029455Y-195093328D01*
X186029455Y-195093328D02*
X186743741Y-195093328D01*
X187386598Y-196450471D02*
X187458027Y-196521900D01*
X187458027Y-196521900D02*
X187386598Y-196593328D01*
X187386598Y-196593328D02*
X187315170Y-196521900D01*
X187315170Y-196521900D02*
X187386598Y-196450471D01*
X187386598Y-196450471D02*
X187386598Y-196593328D01*
X188100884Y-196593328D02*
X188100884Y-195093328D01*
X188100884Y-195093328D02*
X188458027Y-195093328D01*
X188458027Y-195093328D02*
X188672313Y-195164757D01*
X188672313Y-195164757D02*
X188815170Y-195307614D01*
X188815170Y-195307614D02*
X188886599Y-195450471D01*
X188886599Y-195450471D02*
X188958027Y-195736185D01*
X188958027Y-195736185D02*
X188958027Y-195950471D01*
X188958027Y-195950471D02*
X188886599Y-196236185D01*
X188886599Y-196236185D02*
X188815170Y-196379042D01*
X188815170Y-196379042D02*
X188672313Y-196521900D01*
X188672313Y-196521900D02*
X188458027Y-196593328D01*
X188458027Y-196593328D02*
X188100884Y-196593328D01*
X189600884Y-196450471D02*
X189672313Y-196521900D01*
X189672313Y-196521900D02*
X189600884Y-196593328D01*
X189600884Y-196593328D02*
X189529456Y-196521900D01*
X189529456Y-196521900D02*
X189600884Y-196450471D01*
X189600884Y-196450471D02*
X189600884Y-196593328D01*
X190243742Y-196164757D02*
X190958028Y-196164757D01*
X190100885Y-196593328D02*
X190600885Y-195093328D01*
X190600885Y-195093328D02*
X191100885Y-196593328D01*
X191600884Y-196450471D02*
X191672313Y-196521900D01*
X191672313Y-196521900D02*
X191600884Y-196593328D01*
X191600884Y-196593328D02*
X191529456Y-196521900D01*
X191529456Y-196521900D02*
X191600884Y-196450471D01*
X191600884Y-196450471D02*
X191600884Y-196593328D01*
X194243742Y-196593328D02*
X193386599Y-196593328D01*
X193815170Y-196593328D02*
X193815170Y-195093328D01*
X193815170Y-195093328D02*
X193672313Y-195307614D01*
X193672313Y-195307614D02*
X193529456Y-195450471D01*
X193529456Y-195450471D02*
X193386599Y-195521900D01*
X195172313Y-195093328D02*
X195315170Y-195093328D01*
X195315170Y-195093328D02*
X195458027Y-195164757D01*
X195458027Y-195164757D02*
X195529456Y-195236185D01*
X195529456Y-195236185D02*
X195600884Y-195379042D01*
X195600884Y-195379042D02*
X195672313Y-195664757D01*
X195672313Y-195664757D02*
X195672313Y-196021900D01*
X195672313Y-196021900D02*
X195600884Y-196307614D01*
X195600884Y-196307614D02*
X195529456Y-196450471D01*
X195529456Y-196450471D02*
X195458027Y-196521900D01*
X195458027Y-196521900D02*
X195315170Y-196593328D01*
X195315170Y-196593328D02*
X195172313Y-196593328D01*
X195172313Y-196593328D02*
X195029456Y-196521900D01*
X195029456Y-196521900D02*
X194958027Y-196450471D01*
X194958027Y-196450471D02*
X194886598Y-196307614D01*
X194886598Y-196307614D02*
X194815170Y-196021900D01*
X194815170Y-196021900D02*
X194815170Y-195664757D01*
X194815170Y-195664757D02*
X194886598Y-195379042D01*
X194886598Y-195379042D02*
X194958027Y-195236185D01*
X194958027Y-195236185D02*
X195029456Y-195164757D01*
X195029456Y-195164757D02*
X195172313Y-195093328D01*
X196315169Y-196450471D02*
X196386598Y-196521900D01*
X196386598Y-196521900D02*
X196315169Y-196593328D01*
X196315169Y-196593328D02*
X196243741Y-196521900D01*
X196243741Y-196521900D02*
X196315169Y-196450471D01*
X196315169Y-196450471D02*
X196315169Y-196593328D01*
X197315170Y-195093328D02*
X197458027Y-195093328D01*
X197458027Y-195093328D02*
X197600884Y-195164757D01*
X197600884Y-195164757D02*
X197672313Y-195236185D01*
X197672313Y-195236185D02*
X197743741Y-195379042D01*
X197743741Y-195379042D02*
X197815170Y-195664757D01*
X197815170Y-195664757D02*
X197815170Y-196021900D01*
X197815170Y-196021900D02*
X197743741Y-196307614D01*
X197743741Y-196307614D02*
X197672313Y-196450471D01*
X197672313Y-196450471D02*
X197600884Y-196521900D01*
X197600884Y-196521900D02*
X197458027Y-196593328D01*
X197458027Y-196593328D02*
X197315170Y-196593328D01*
X197315170Y-196593328D02*
X197172313Y-196521900D01*
X197172313Y-196521900D02*
X197100884Y-196450471D01*
X197100884Y-196450471D02*
X197029455Y-196307614D01*
X197029455Y-196307614D02*
X196958027Y-196021900D01*
X196958027Y-196021900D02*
X196958027Y-195664757D01*
X196958027Y-195664757D02*
X197029455Y-195379042D01*
X197029455Y-195379042D02*
X197100884Y-195236185D01*
X197100884Y-195236185D02*
X197172313Y-195164757D01*
X197172313Y-195164757D02*
X197315170Y-195093328D01*
X198458026Y-196450471D02*
X198529455Y-196521900D01*
X198529455Y-196521900D02*
X198458026Y-196593328D01*
X198458026Y-196593328D02*
X198386598Y-196521900D01*
X198386598Y-196521900D02*
X198458026Y-196450471D01*
X198458026Y-196450471D02*
X198458026Y-196593328D01*
X199815170Y-195593328D02*
X199815170Y-196593328D01*
X199458027Y-195021900D02*
X199100884Y-196093328D01*
X199100884Y-196093328D02*
X200029455Y-196093328D01*
X177002200Y-191507200D02*
X285002200Y-191507200D01*
D11*
X264413853Y-193785528D02*
X263913853Y-193071242D01*
X263556710Y-193785528D02*
X263556710Y-192285528D01*
X263556710Y-192285528D02*
X264128139Y-192285528D01*
X264128139Y-192285528D02*
X264270996Y-192356957D01*
X264270996Y-192356957D02*
X264342425Y-192428385D01*
X264342425Y-192428385D02*
X264413853Y-192571242D01*
X264413853Y-192571242D02*
X264413853Y-192785528D01*
X264413853Y-192785528D02*
X264342425Y-192928385D01*
X264342425Y-192928385D02*
X264270996Y-192999814D01*
X264270996Y-192999814D02*
X264128139Y-193071242D01*
X264128139Y-193071242D02*
X263556710Y-193071242D01*
X265628139Y-193714100D02*
X265485282Y-193785528D01*
X265485282Y-193785528D02*
X265199568Y-193785528D01*
X265199568Y-193785528D02*
X265056710Y-193714100D01*
X265056710Y-193714100D02*
X264985282Y-193571242D01*
X264985282Y-193571242D02*
X264985282Y-192999814D01*
X264985282Y-192999814D02*
X265056710Y-192856957D01*
X265056710Y-192856957D02*
X265199568Y-192785528D01*
X265199568Y-192785528D02*
X265485282Y-192785528D01*
X265485282Y-192785528D02*
X265628139Y-192856957D01*
X265628139Y-192856957D02*
X265699568Y-192999814D01*
X265699568Y-192999814D02*
X265699568Y-193142671D01*
X265699568Y-193142671D02*
X264985282Y-193285528D01*
X266199567Y-192785528D02*
X266556710Y-193785528D01*
X266556710Y-193785528D02*
X266913853Y-192785528D01*
X267485281Y-193642671D02*
X267556710Y-193714100D01*
X267556710Y-193714100D02*
X267485281Y-193785528D01*
X267485281Y-193785528D02*
X267413853Y-193714100D01*
X267413853Y-193714100D02*
X267485281Y-193642671D01*
X267485281Y-193642671D02*
X267485281Y-193785528D01*
X267485281Y-192856957D02*
X267556710Y-192928385D01*
X267556710Y-192928385D02*
X267485281Y-192999814D01*
X267485281Y-192999814D02*
X267413853Y-192928385D01*
X267413853Y-192928385D02*
X267485281Y-192856957D01*
X267485281Y-192856957D02*
X267485281Y-192999814D01*
D10*
X178386598Y-193721900D02*
X178600884Y-193793328D01*
X178600884Y-193793328D02*
X178958026Y-193793328D01*
X178958026Y-193793328D02*
X179100884Y-193721900D01*
X179100884Y-193721900D02*
X179172312Y-193650471D01*
X179172312Y-193650471D02*
X179243741Y-193507614D01*
X179243741Y-193507614D02*
X179243741Y-193364757D01*
X179243741Y-193364757D02*
X179172312Y-193221900D01*
X179172312Y-193221900D02*
X179100884Y-193150471D01*
X179100884Y-193150471D02*
X178958026Y-193079042D01*
X178958026Y-193079042D02*
X178672312Y-193007614D01*
X178672312Y-193007614D02*
X178529455Y-192936185D01*
X178529455Y-192936185D02*
X178458026Y-192864757D01*
X178458026Y-192864757D02*
X178386598Y-192721900D01*
X178386598Y-192721900D02*
X178386598Y-192579042D01*
X178386598Y-192579042D02*
X178458026Y-192436185D01*
X178458026Y-192436185D02*
X178529455Y-192364757D01*
X178529455Y-192364757D02*
X178672312Y-192293328D01*
X178672312Y-192293328D02*
X179029455Y-192293328D01*
X179029455Y-192293328D02*
X179243741Y-192364757D01*
X179886597Y-193793328D02*
X179886597Y-192793328D01*
X179886597Y-192293328D02*
X179815169Y-192364757D01*
X179815169Y-192364757D02*
X179886597Y-192436185D01*
X179886597Y-192436185D02*
X179958026Y-192364757D01*
X179958026Y-192364757D02*
X179886597Y-192293328D01*
X179886597Y-192293328D02*
X179886597Y-192436185D01*
X180458026Y-192793328D02*
X181243741Y-192793328D01*
X181243741Y-192793328D02*
X180458026Y-193793328D01*
X180458026Y-193793328D02*
X181243741Y-193793328D01*
X182386598Y-193721900D02*
X182243741Y-193793328D01*
X182243741Y-193793328D02*
X181958027Y-193793328D01*
X181958027Y-193793328D02*
X181815169Y-193721900D01*
X181815169Y-193721900D02*
X181743741Y-193579042D01*
X181743741Y-193579042D02*
X181743741Y-193007614D01*
X181743741Y-193007614D02*
X181815169Y-192864757D01*
X181815169Y-192864757D02*
X181958027Y-192793328D01*
X181958027Y-192793328D02*
X182243741Y-192793328D01*
X182243741Y-192793328D02*
X182386598Y-192864757D01*
X182386598Y-192864757D02*
X182458027Y-193007614D01*
X182458027Y-193007614D02*
X182458027Y-193150471D01*
X182458027Y-193150471D02*
X181743741Y-193293328D01*
X183100883Y-193650471D02*
X183172312Y-193721900D01*
X183172312Y-193721900D02*
X183100883Y-193793328D01*
X183100883Y-193793328D02*
X183029455Y-193721900D01*
X183029455Y-193721900D02*
X183100883Y-193650471D01*
X183100883Y-193650471D02*
X183100883Y-193793328D01*
X183100883Y-192864757D02*
X183172312Y-192936185D01*
X183172312Y-192936185D02*
X183100883Y-193007614D01*
X183100883Y-193007614D02*
X183029455Y-192936185D01*
X183029455Y-192936185D02*
X183100883Y-192864757D01*
X183100883Y-192864757D02*
X183100883Y-193007614D01*
X184886598Y-193364757D02*
X185600884Y-193364757D01*
X184743741Y-193793328D02*
X185243741Y-192293328D01*
X185243741Y-192293328D02*
X185743741Y-193793328D01*
X186886598Y-192793328D02*
X186886598Y-193793328D01*
X186529455Y-192221900D02*
X186172312Y-193293328D01*
X186172312Y-193293328D02*
X187100883Y-193293328D01*
X263458026Y-196593328D02*
X263458026Y-195093328D01*
X264815170Y-196593328D02*
X264815170Y-195093328D01*
X264815170Y-196521900D02*
X264672312Y-196593328D01*
X264672312Y-196593328D02*
X264386598Y-196593328D01*
X264386598Y-196593328D02*
X264243741Y-196521900D01*
X264243741Y-196521900D02*
X264172312Y-196450471D01*
X264172312Y-196450471D02*
X264100884Y-196307614D01*
X264100884Y-196307614D02*
X264100884Y-195879042D01*
X264100884Y-195879042D02*
X264172312Y-195736185D01*
X264172312Y-195736185D02*
X264243741Y-195664757D01*
X264243741Y-195664757D02*
X264386598Y-195593328D01*
X264386598Y-195593328D02*
X264672312Y-195593328D01*
X264672312Y-195593328D02*
X264815170Y-195664757D01*
X265529455Y-196450471D02*
X265600884Y-196521900D01*
X265600884Y-196521900D02*
X265529455Y-196593328D01*
X265529455Y-196593328D02*
X265458027Y-196521900D01*
X265458027Y-196521900D02*
X265529455Y-196450471D01*
X265529455Y-196450471D02*
X265529455Y-196593328D01*
X265529455Y-195664757D02*
X265600884Y-195736185D01*
X265600884Y-195736185D02*
X265529455Y-195807614D01*
X265529455Y-195807614D02*
X265458027Y-195736185D01*
X265458027Y-195736185D02*
X265529455Y-195664757D01*
X265529455Y-195664757D02*
X265529455Y-195807614D01*
X267458027Y-196593328D02*
X267743741Y-196593328D01*
X267743741Y-196593328D02*
X267886598Y-196521900D01*
X267886598Y-196521900D02*
X267958027Y-196450471D01*
X267958027Y-196450471D02*
X268100884Y-196236185D01*
X268100884Y-196236185D02*
X268172313Y-195950471D01*
X268172313Y-195950471D02*
X268172313Y-195379042D01*
X268172313Y-195379042D02*
X268100884Y-195236185D01*
X268100884Y-195236185D02*
X268029456Y-195164757D01*
X268029456Y-195164757D02*
X267886598Y-195093328D01*
X267886598Y-195093328D02*
X267600884Y-195093328D01*
X267600884Y-195093328D02*
X267458027Y-195164757D01*
X267458027Y-195164757D02*
X267386598Y-195236185D01*
X267386598Y-195236185D02*
X267315170Y-195379042D01*
X267315170Y-195379042D02*
X267315170Y-195736185D01*
X267315170Y-195736185D02*
X267386598Y-195879042D01*
X267386598Y-195879042D02*
X267458027Y-195950471D01*
X267458027Y-195950471D02*
X267600884Y-196021900D01*
X267600884Y-196021900D02*
X267886598Y-196021900D01*
X267886598Y-196021900D02*
X268029456Y-195950471D01*
X268029456Y-195950471D02*
X268100884Y-195879042D01*
X268100884Y-195879042D02*
X268172313Y-195736185D01*
X269886598Y-195021900D02*
X268600884Y-196950471D01*
X271172313Y-196593328D02*
X270315170Y-196593328D01*
X270743741Y-196593328D02*
X270743741Y-195093328D01*
X270743741Y-195093328D02*
X270600884Y-195307614D01*
X270600884Y-195307614D02*
X270458027Y-195450471D01*
X270458027Y-195450471D02*
X270315170Y-195521900D01*
X272600884Y-196593328D02*
X271743741Y-196593328D01*
X272172312Y-196593328D02*
X272172312Y-195093328D01*
X272172312Y-195093328D02*
X272029455Y-195307614D01*
X272029455Y-195307614D02*
X271886598Y-195450471D01*
X271886598Y-195450471D02*
X271743741Y-195521900D01*
X177002200Y-187507200D02*
X285002200Y-187507200D01*
D12*
X178693928Y-188211638D02*
X179836785Y-188211638D01*
X179015357Y-190211638D02*
X179265357Y-188211638D01*
X180253452Y-190211638D02*
X180420119Y-188878304D01*
X180503452Y-188211638D02*
X180396309Y-188306876D01*
X180396309Y-188306876D02*
X180479643Y-188402114D01*
X180479643Y-188402114D02*
X180586786Y-188306876D01*
X180586786Y-188306876D02*
X180503452Y-188211638D01*
X180503452Y-188211638D02*
X180479643Y-188402114D01*
X181086786Y-188878304D02*
X181848690Y-188878304D01*
X181455833Y-188211638D02*
X181241548Y-189925923D01*
X181241548Y-189925923D02*
X181312976Y-190116400D01*
X181312976Y-190116400D02*
X181491548Y-190211638D01*
X181491548Y-190211638D02*
X181682024Y-190211638D01*
X182634405Y-190211638D02*
X182455833Y-190116400D01*
X182455833Y-190116400D02*
X182384405Y-189925923D01*
X182384405Y-189925923D02*
X182598690Y-188211638D01*
X184170119Y-190116400D02*
X183967738Y-190211638D01*
X183967738Y-190211638D02*
X183586785Y-190211638D01*
X183586785Y-190211638D02*
X183408214Y-190116400D01*
X183408214Y-190116400D02*
X183336785Y-189925923D01*
X183336785Y-189925923D02*
X183432024Y-189164019D01*
X183432024Y-189164019D02*
X183551071Y-188973542D01*
X183551071Y-188973542D02*
X183753452Y-188878304D01*
X183753452Y-188878304D02*
X184134404Y-188878304D01*
X184134404Y-188878304D02*
X184312976Y-188973542D01*
X184312976Y-188973542D02*
X184384404Y-189164019D01*
X184384404Y-189164019D02*
X184360595Y-189354495D01*
X184360595Y-189354495D02*
X183384404Y-189544971D01*
X185134405Y-190021161D02*
X185217738Y-190116400D01*
X185217738Y-190116400D02*
X185110595Y-190211638D01*
X185110595Y-190211638D02*
X185027262Y-190116400D01*
X185027262Y-190116400D02*
X185134405Y-190021161D01*
X185134405Y-190021161D02*
X185110595Y-190211638D01*
X185265357Y-188973542D02*
X185348690Y-189068780D01*
X185348690Y-189068780D02*
X185241548Y-189164019D01*
X185241548Y-189164019D02*
X185158214Y-189068780D01*
X185158214Y-189068780D02*
X185265357Y-188973542D01*
X185265357Y-188973542D02*
X185241548Y-189164019D01*
D10*
X178958026Y-185607614D02*
X178458026Y-185607614D01*
X178458026Y-186393328D02*
X178458026Y-184893328D01*
X178458026Y-184893328D02*
X179172312Y-184893328D01*
X179743740Y-186393328D02*
X179743740Y-185393328D01*
X179743740Y-184893328D02*
X179672312Y-184964757D01*
X179672312Y-184964757D02*
X179743740Y-185036185D01*
X179743740Y-185036185D02*
X179815169Y-184964757D01*
X179815169Y-184964757D02*
X179743740Y-184893328D01*
X179743740Y-184893328D02*
X179743740Y-185036185D01*
X180672312Y-186393328D02*
X180529455Y-186321900D01*
X180529455Y-186321900D02*
X180458026Y-186179042D01*
X180458026Y-186179042D02*
X180458026Y-184893328D01*
X181815169Y-186321900D02*
X181672312Y-186393328D01*
X181672312Y-186393328D02*
X181386598Y-186393328D01*
X181386598Y-186393328D02*
X181243740Y-186321900D01*
X181243740Y-186321900D02*
X181172312Y-186179042D01*
X181172312Y-186179042D02*
X181172312Y-185607614D01*
X181172312Y-185607614D02*
X181243740Y-185464757D01*
X181243740Y-185464757D02*
X181386598Y-185393328D01*
X181386598Y-185393328D02*
X181672312Y-185393328D01*
X181672312Y-185393328D02*
X181815169Y-185464757D01*
X181815169Y-185464757D02*
X181886598Y-185607614D01*
X181886598Y-185607614D02*
X181886598Y-185750471D01*
X181886598Y-185750471D02*
X181172312Y-185893328D01*
X182529454Y-186250471D02*
X182600883Y-186321900D01*
X182600883Y-186321900D02*
X182529454Y-186393328D01*
X182529454Y-186393328D02*
X182458026Y-186321900D01*
X182458026Y-186321900D02*
X182529454Y-186250471D01*
X182529454Y-186250471D02*
X182529454Y-186393328D01*
X182529454Y-185464757D02*
X182600883Y-185536185D01*
X182600883Y-185536185D02*
X182529454Y-185607614D01*
X182529454Y-185607614D02*
X182458026Y-185536185D01*
X182458026Y-185536185D02*
X182529454Y-185464757D01*
X182529454Y-185464757D02*
X182529454Y-185607614D01*
X184315169Y-186321900D02*
X184529455Y-186393328D01*
X184529455Y-186393328D02*
X184886597Y-186393328D01*
X184886597Y-186393328D02*
X185029455Y-186321900D01*
X185029455Y-186321900D02*
X185100883Y-186250471D01*
X185100883Y-186250471D02*
X185172312Y-186107614D01*
X185172312Y-186107614D02*
X185172312Y-185964757D01*
X185172312Y-185964757D02*
X185100883Y-185821900D01*
X185100883Y-185821900D02*
X185029455Y-185750471D01*
X185029455Y-185750471D02*
X184886597Y-185679042D01*
X184886597Y-185679042D02*
X184600883Y-185607614D01*
X184600883Y-185607614D02*
X184458026Y-185536185D01*
X184458026Y-185536185D02*
X184386597Y-185464757D01*
X184386597Y-185464757D02*
X184315169Y-185321900D01*
X184315169Y-185321900D02*
X184315169Y-185179042D01*
X184315169Y-185179042D02*
X184386597Y-185036185D01*
X184386597Y-185036185D02*
X184458026Y-184964757D01*
X184458026Y-184964757D02*
X184600883Y-184893328D01*
X184600883Y-184893328D02*
X184958026Y-184893328D01*
X184958026Y-184893328D02*
X185172312Y-184964757D01*
X185600883Y-184893328D02*
X186458026Y-184893328D01*
X186029454Y-186393328D02*
X186029454Y-184893328D01*
X186958025Y-186393328D02*
X186958025Y-184893328D01*
X186958025Y-184893328D02*
X187458025Y-185964757D01*
X187458025Y-185964757D02*
X187958025Y-184893328D01*
X187958025Y-184893328D02*
X187958025Y-186393328D01*
X189672311Y-184893328D02*
X190600883Y-184893328D01*
X190600883Y-184893328D02*
X190100883Y-185464757D01*
X190100883Y-185464757D02*
X190315168Y-185464757D01*
X190315168Y-185464757D02*
X190458026Y-185536185D01*
X190458026Y-185536185D02*
X190529454Y-185607614D01*
X190529454Y-185607614D02*
X190600883Y-185750471D01*
X190600883Y-185750471D02*
X190600883Y-186107614D01*
X190600883Y-186107614D02*
X190529454Y-186250471D01*
X190529454Y-186250471D02*
X190458026Y-186321900D01*
X190458026Y-186321900D02*
X190315168Y-186393328D01*
X190315168Y-186393328D02*
X189886597Y-186393328D01*
X189886597Y-186393328D02*
X189743740Y-186321900D01*
X189743740Y-186321900D02*
X189672311Y-186250471D01*
X191172311Y-185036185D02*
X191243739Y-184964757D01*
X191243739Y-184964757D02*
X191386597Y-184893328D01*
X191386597Y-184893328D02*
X191743739Y-184893328D01*
X191743739Y-184893328D02*
X191886597Y-184964757D01*
X191886597Y-184964757D02*
X191958025Y-185036185D01*
X191958025Y-185036185D02*
X192029454Y-185179042D01*
X192029454Y-185179042D02*
X192029454Y-185321900D01*
X192029454Y-185321900D02*
X191958025Y-185536185D01*
X191958025Y-185536185D02*
X191100882Y-186393328D01*
X191100882Y-186393328D02*
X192029454Y-186393328D01*
X194672310Y-186393328D02*
X194172310Y-185679042D01*
X193815167Y-186393328D02*
X193815167Y-184893328D01*
X193815167Y-184893328D02*
X194386596Y-184893328D01*
X194386596Y-184893328D02*
X194529453Y-184964757D01*
X194529453Y-184964757D02*
X194600882Y-185036185D01*
X194600882Y-185036185D02*
X194672310Y-185179042D01*
X194672310Y-185179042D02*
X194672310Y-185393328D01*
X194672310Y-185393328D02*
X194600882Y-185536185D01*
X194600882Y-185536185D02*
X194529453Y-185607614D01*
X194529453Y-185607614D02*
X194386596Y-185679042D01*
X194386596Y-185679042D02*
X193815167Y-185679042D01*
X195315167Y-184893328D02*
X195315167Y-186107614D01*
X195315167Y-186107614D02*
X195386596Y-186250471D01*
X195386596Y-186250471D02*
X195458025Y-186321900D01*
X195458025Y-186321900D02*
X195600882Y-186393328D01*
X195600882Y-186393328D02*
X195886596Y-186393328D01*
X195886596Y-186393328D02*
X196029453Y-186321900D01*
X196029453Y-186321900D02*
X196100882Y-186250471D01*
X196100882Y-186250471D02*
X196172310Y-186107614D01*
X196172310Y-186107614D02*
X196172310Y-184893328D01*
X198529453Y-185607614D02*
X198029453Y-185607614D01*
X198029453Y-186393328D02*
X198029453Y-184893328D01*
X198029453Y-184893328D02*
X198743739Y-184893328D01*
X199315167Y-186393328D02*
X199315167Y-185393328D01*
X199315167Y-184893328D02*
X199243739Y-184964757D01*
X199243739Y-184964757D02*
X199315167Y-185036185D01*
X199315167Y-185036185D02*
X199386596Y-184964757D01*
X199386596Y-184964757D02*
X199315167Y-184893328D01*
X199315167Y-184893328D02*
X199315167Y-185036185D01*
X200029453Y-186393328D02*
X200029453Y-185393328D01*
X200029453Y-185679042D02*
X200100882Y-185536185D01*
X200100882Y-185536185D02*
X200172311Y-185464757D01*
X200172311Y-185464757D02*
X200315168Y-185393328D01*
X200315168Y-185393328D02*
X200458025Y-185393328D01*
X200886596Y-186321900D02*
X201029453Y-186393328D01*
X201029453Y-186393328D02*
X201315167Y-186393328D01*
X201315167Y-186393328D02*
X201458024Y-186321900D01*
X201458024Y-186321900D02*
X201529453Y-186179042D01*
X201529453Y-186179042D02*
X201529453Y-186107614D01*
X201529453Y-186107614D02*
X201458024Y-185964757D01*
X201458024Y-185964757D02*
X201315167Y-185893328D01*
X201315167Y-185893328D02*
X201100882Y-185893328D01*
X201100882Y-185893328D02*
X200958024Y-185821900D01*
X200958024Y-185821900D02*
X200886596Y-185679042D01*
X200886596Y-185679042D02*
X200886596Y-185607614D01*
X200886596Y-185607614D02*
X200958024Y-185464757D01*
X200958024Y-185464757D02*
X201100882Y-185393328D01*
X201100882Y-185393328D02*
X201315167Y-185393328D01*
X201315167Y-185393328D02*
X201458024Y-185464757D01*
X201958025Y-185393328D02*
X202529453Y-185393328D01*
X202172310Y-184893328D02*
X202172310Y-186179042D01*
X202172310Y-186179042D02*
X202243739Y-186321900D01*
X202243739Y-186321900D02*
X202386596Y-186393328D01*
X202386596Y-186393328D02*
X202529453Y-186393328D01*
X204172310Y-186393328D02*
X204172310Y-184893328D01*
X204172310Y-184893328D02*
X204743739Y-184893328D01*
X204743739Y-184893328D02*
X204886596Y-184964757D01*
X204886596Y-184964757D02*
X204958025Y-185036185D01*
X204958025Y-185036185D02*
X205029453Y-185179042D01*
X205029453Y-185179042D02*
X205029453Y-185393328D01*
X205029453Y-185393328D02*
X204958025Y-185536185D01*
X204958025Y-185536185D02*
X204886596Y-185607614D01*
X204886596Y-185607614D02*
X204743739Y-185679042D01*
X204743739Y-185679042D02*
X204172310Y-185679042D01*
X205672310Y-186393328D02*
X205672310Y-185393328D01*
X205672310Y-185679042D02*
X205743739Y-185536185D01*
X205743739Y-185536185D02*
X205815168Y-185464757D01*
X205815168Y-185464757D02*
X205958025Y-185393328D01*
X205958025Y-185393328D02*
X206100882Y-185393328D01*
X206815167Y-186393328D02*
X206672310Y-186321900D01*
X206672310Y-186321900D02*
X206600881Y-186250471D01*
X206600881Y-186250471D02*
X206529453Y-186107614D01*
X206529453Y-186107614D02*
X206529453Y-185679042D01*
X206529453Y-185679042D02*
X206600881Y-185536185D01*
X206600881Y-185536185D02*
X206672310Y-185464757D01*
X206672310Y-185464757D02*
X206815167Y-185393328D01*
X206815167Y-185393328D02*
X207029453Y-185393328D01*
X207029453Y-185393328D02*
X207172310Y-185464757D01*
X207172310Y-185464757D02*
X207243739Y-185536185D01*
X207243739Y-185536185D02*
X207315167Y-185679042D01*
X207315167Y-185679042D02*
X207315167Y-186107614D01*
X207315167Y-186107614D02*
X207243739Y-186250471D01*
X207243739Y-186250471D02*
X207172310Y-186321900D01*
X207172310Y-186321900D02*
X207029453Y-186393328D01*
X207029453Y-186393328D02*
X206815167Y-186393328D01*
X207743739Y-185393328D02*
X208315167Y-185393328D01*
X207958024Y-184893328D02*
X207958024Y-186179042D01*
X207958024Y-186179042D02*
X208029453Y-186321900D01*
X208029453Y-186321900D02*
X208172310Y-186393328D01*
X208172310Y-186393328D02*
X208315167Y-186393328D01*
X209029453Y-186393328D02*
X208886596Y-186321900D01*
X208886596Y-186321900D02*
X208815167Y-186250471D01*
X208815167Y-186250471D02*
X208743739Y-186107614D01*
X208743739Y-186107614D02*
X208743739Y-185679042D01*
X208743739Y-185679042D02*
X208815167Y-185536185D01*
X208815167Y-185536185D02*
X208886596Y-185464757D01*
X208886596Y-185464757D02*
X209029453Y-185393328D01*
X209029453Y-185393328D02*
X209243739Y-185393328D01*
X209243739Y-185393328D02*
X209386596Y-185464757D01*
X209386596Y-185464757D02*
X209458025Y-185536185D01*
X209458025Y-185536185D02*
X209529453Y-185679042D01*
X209529453Y-185679042D02*
X209529453Y-186107614D01*
X209529453Y-186107614D02*
X209458025Y-186250471D01*
X209458025Y-186250471D02*
X209386596Y-186321900D01*
X209386596Y-186321900D02*
X209243739Y-186393328D01*
X209243739Y-186393328D02*
X209029453Y-186393328D01*
X209958025Y-185393328D02*
X210529453Y-185393328D01*
X210172310Y-184893328D02*
X210172310Y-186179042D01*
X210172310Y-186179042D02*
X210243739Y-186321900D01*
X210243739Y-186321900D02*
X210386596Y-186393328D01*
X210386596Y-186393328D02*
X210529453Y-186393328D01*
X210886596Y-185393328D02*
X211243739Y-186393328D01*
X211600882Y-185393328D02*
X211243739Y-186393328D01*
X211243739Y-186393328D02*
X211100882Y-186750471D01*
X211100882Y-186750471D02*
X211029453Y-186821900D01*
X211029453Y-186821900D02*
X210886596Y-186893328D01*
X212172310Y-185393328D02*
X212172310Y-186893328D01*
X212172310Y-185464757D02*
X212315168Y-185393328D01*
X212315168Y-185393328D02*
X212600882Y-185393328D01*
X212600882Y-185393328D02*
X212743739Y-185464757D01*
X212743739Y-185464757D02*
X212815168Y-185536185D01*
X212815168Y-185536185D02*
X212886596Y-185679042D01*
X212886596Y-185679042D02*
X212886596Y-186107614D01*
X212886596Y-186107614D02*
X212815168Y-186250471D01*
X212815168Y-186250471D02*
X212743739Y-186321900D01*
X212743739Y-186321900D02*
X212600882Y-186393328D01*
X212600882Y-186393328D02*
X212315168Y-186393328D01*
X212315168Y-186393328D02*
X212172310Y-186321900D01*
X214100882Y-186321900D02*
X213958025Y-186393328D01*
X213958025Y-186393328D02*
X213672311Y-186393328D01*
X213672311Y-186393328D02*
X213529453Y-186321900D01*
X213529453Y-186321900D02*
X213458025Y-186179042D01*
X213458025Y-186179042D02*
X213458025Y-185607614D01*
X213458025Y-185607614D02*
X213529453Y-185464757D01*
X213529453Y-185464757D02*
X213672311Y-185393328D01*
X213672311Y-185393328D02*
X213958025Y-185393328D01*
X213958025Y-185393328D02*
X214100882Y-185464757D01*
X214100882Y-185464757D02*
X214172311Y-185607614D01*
X214172311Y-185607614D02*
X214172311Y-185750471D01*
X214172311Y-185750471D02*
X213458025Y-185893328D01*
X214815167Y-186250471D02*
X214886596Y-186321900D01*
X214886596Y-186321900D02*
X214815167Y-186393328D01*
X214815167Y-186393328D02*
X214743739Y-186321900D01*
X214743739Y-186321900D02*
X214815167Y-186250471D01*
X214815167Y-186250471D02*
X214815167Y-186393328D01*
X215529453Y-186393328D02*
X215529453Y-184893328D01*
X215672311Y-185821900D02*
X216100882Y-186393328D01*
X216100882Y-185393328D02*
X215529453Y-185964757D01*
X216743739Y-186393328D02*
X216743739Y-185393328D01*
X216743739Y-184893328D02*
X216672311Y-184964757D01*
X216672311Y-184964757D02*
X216743739Y-185036185D01*
X216743739Y-185036185D02*
X216815168Y-184964757D01*
X216815168Y-184964757D02*
X216743739Y-184893328D01*
X216743739Y-184893328D02*
X216743739Y-185036185D01*
X218100883Y-186321900D02*
X217958025Y-186393328D01*
X217958025Y-186393328D02*
X217672311Y-186393328D01*
X217672311Y-186393328D02*
X217529454Y-186321900D01*
X217529454Y-186321900D02*
X217458025Y-186250471D01*
X217458025Y-186250471D02*
X217386597Y-186107614D01*
X217386597Y-186107614D02*
X217386597Y-185679042D01*
X217386597Y-185679042D02*
X217458025Y-185536185D01*
X217458025Y-185536185D02*
X217529454Y-185464757D01*
X217529454Y-185464757D02*
X217672311Y-185393328D01*
X217672311Y-185393328D02*
X217958025Y-185393328D01*
X217958025Y-185393328D02*
X218100883Y-185464757D01*
X219386597Y-186393328D02*
X219386597Y-185607614D01*
X219386597Y-185607614D02*
X219315168Y-185464757D01*
X219315168Y-185464757D02*
X219172311Y-185393328D01*
X219172311Y-185393328D02*
X218886597Y-185393328D01*
X218886597Y-185393328D02*
X218743739Y-185464757D01*
X219386597Y-186321900D02*
X219243739Y-186393328D01*
X219243739Y-186393328D02*
X218886597Y-186393328D01*
X218886597Y-186393328D02*
X218743739Y-186321900D01*
X218743739Y-186321900D02*
X218672311Y-186179042D01*
X218672311Y-186179042D02*
X218672311Y-186036185D01*
X218672311Y-186036185D02*
X218743739Y-185893328D01*
X218743739Y-185893328D02*
X218886597Y-185821900D01*
X218886597Y-185821900D02*
X219243739Y-185821900D01*
X219243739Y-185821900D02*
X219386597Y-185750471D01*
X220743740Y-186393328D02*
X220743740Y-184893328D01*
X220743740Y-186321900D02*
X220600882Y-186393328D01*
X220600882Y-186393328D02*
X220315168Y-186393328D01*
X220315168Y-186393328D02*
X220172311Y-186321900D01*
X220172311Y-186321900D02*
X220100882Y-186250471D01*
X220100882Y-186250471D02*
X220029454Y-186107614D01*
X220029454Y-186107614D02*
X220029454Y-185679042D01*
X220029454Y-185679042D02*
X220100882Y-185536185D01*
X220100882Y-185536185D02*
X220172311Y-185464757D01*
X220172311Y-185464757D02*
X220315168Y-185393328D01*
X220315168Y-185393328D02*
X220600882Y-185393328D01*
X220600882Y-185393328D02*
X220743740Y-185464757D01*
X221100883Y-186536185D02*
X222243740Y-186536185D01*
X222600882Y-185393328D02*
X222600882Y-186893328D01*
X222600882Y-185464757D02*
X222743740Y-185393328D01*
X222743740Y-185393328D02*
X223029454Y-185393328D01*
X223029454Y-185393328D02*
X223172311Y-185464757D01*
X223172311Y-185464757D02*
X223243740Y-185536185D01*
X223243740Y-185536185D02*
X223315168Y-185679042D01*
X223315168Y-185679042D02*
X223315168Y-186107614D01*
X223315168Y-186107614D02*
X223243740Y-186250471D01*
X223243740Y-186250471D02*
X223172311Y-186321900D01*
X223172311Y-186321900D02*
X223029454Y-186393328D01*
X223029454Y-186393328D02*
X222743740Y-186393328D01*
X222743740Y-186393328D02*
X222600882Y-186321900D01*
X224600883Y-186321900D02*
X224458025Y-186393328D01*
X224458025Y-186393328D02*
X224172311Y-186393328D01*
X224172311Y-186393328D02*
X224029454Y-186321900D01*
X224029454Y-186321900D02*
X223958025Y-186250471D01*
X223958025Y-186250471D02*
X223886597Y-186107614D01*
X223886597Y-186107614D02*
X223886597Y-185679042D01*
X223886597Y-185679042D02*
X223958025Y-185536185D01*
X223958025Y-185536185D02*
X224029454Y-185464757D01*
X224029454Y-185464757D02*
X224172311Y-185393328D01*
X224172311Y-185393328D02*
X224458025Y-185393328D01*
X224458025Y-185393328D02*
X224600883Y-185464757D01*
X225243739Y-186393328D02*
X225243739Y-184893328D01*
X225243739Y-185464757D02*
X225386597Y-185393328D01*
X225386597Y-185393328D02*
X225672311Y-185393328D01*
X225672311Y-185393328D02*
X225815168Y-185464757D01*
X225815168Y-185464757D02*
X225886597Y-185536185D01*
X225886597Y-185536185D02*
X225958025Y-185679042D01*
X225958025Y-185679042D02*
X225958025Y-186107614D01*
X225958025Y-186107614D02*
X225886597Y-186250471D01*
X225886597Y-186250471D02*
X225815168Y-186321900D01*
X225815168Y-186321900D02*
X225672311Y-186393328D01*
X225672311Y-186393328D02*
X225386597Y-186393328D01*
X225386597Y-186393328D02*
X225243739Y-186321900D01*
X177002200Y-181507200D02*
X285002200Y-181507200D01*
X178386598Y-183621900D02*
X178600884Y-183693328D01*
X178600884Y-183693328D02*
X178958026Y-183693328D01*
X178958026Y-183693328D02*
X179100884Y-183621900D01*
X179100884Y-183621900D02*
X179172312Y-183550471D01*
X179172312Y-183550471D02*
X179243741Y-183407614D01*
X179243741Y-183407614D02*
X179243741Y-183264757D01*
X179243741Y-183264757D02*
X179172312Y-183121900D01*
X179172312Y-183121900D02*
X179100884Y-183050471D01*
X179100884Y-183050471D02*
X178958026Y-182979042D01*
X178958026Y-182979042D02*
X178672312Y-182907614D01*
X178672312Y-182907614D02*
X178529455Y-182836185D01*
X178529455Y-182836185D02*
X178458026Y-182764757D01*
X178458026Y-182764757D02*
X178386598Y-182621900D01*
X178386598Y-182621900D02*
X178386598Y-182479042D01*
X178386598Y-182479042D02*
X178458026Y-182336185D01*
X178458026Y-182336185D02*
X178529455Y-182264757D01*
X178529455Y-182264757D02*
X178672312Y-182193328D01*
X178672312Y-182193328D02*
X179029455Y-182193328D01*
X179029455Y-182193328D02*
X179243741Y-182264757D01*
X179886597Y-183693328D02*
X179886597Y-182193328D01*
X180529455Y-183693328D02*
X180529455Y-182907614D01*
X180529455Y-182907614D02*
X180458026Y-182764757D01*
X180458026Y-182764757D02*
X180315169Y-182693328D01*
X180315169Y-182693328D02*
X180100883Y-182693328D01*
X180100883Y-182693328D02*
X179958026Y-182764757D01*
X179958026Y-182764757D02*
X179886597Y-182836185D01*
X181815169Y-183621900D02*
X181672312Y-183693328D01*
X181672312Y-183693328D02*
X181386598Y-183693328D01*
X181386598Y-183693328D02*
X181243740Y-183621900D01*
X181243740Y-183621900D02*
X181172312Y-183479042D01*
X181172312Y-183479042D02*
X181172312Y-182907614D01*
X181172312Y-182907614D02*
X181243740Y-182764757D01*
X181243740Y-182764757D02*
X181386598Y-182693328D01*
X181386598Y-182693328D02*
X181672312Y-182693328D01*
X181672312Y-182693328D02*
X181815169Y-182764757D01*
X181815169Y-182764757D02*
X181886598Y-182907614D01*
X181886598Y-182907614D02*
X181886598Y-183050471D01*
X181886598Y-183050471D02*
X181172312Y-183193328D01*
X183100883Y-183621900D02*
X182958026Y-183693328D01*
X182958026Y-183693328D02*
X182672312Y-183693328D01*
X182672312Y-183693328D02*
X182529454Y-183621900D01*
X182529454Y-183621900D02*
X182458026Y-183479042D01*
X182458026Y-183479042D02*
X182458026Y-182907614D01*
X182458026Y-182907614D02*
X182529454Y-182764757D01*
X182529454Y-182764757D02*
X182672312Y-182693328D01*
X182672312Y-182693328D02*
X182958026Y-182693328D01*
X182958026Y-182693328D02*
X183100883Y-182764757D01*
X183100883Y-182764757D02*
X183172312Y-182907614D01*
X183172312Y-182907614D02*
X183172312Y-183050471D01*
X183172312Y-183050471D02*
X182458026Y-183193328D01*
X183600883Y-182693328D02*
X184172311Y-182693328D01*
X183815168Y-182193328D02*
X183815168Y-183479042D01*
X183815168Y-183479042D02*
X183886597Y-183621900D01*
X183886597Y-183621900D02*
X184029454Y-183693328D01*
X184029454Y-183693328D02*
X184172311Y-183693328D01*
X184672311Y-183550471D02*
X184743740Y-183621900D01*
X184743740Y-183621900D02*
X184672311Y-183693328D01*
X184672311Y-183693328D02*
X184600883Y-183621900D01*
X184600883Y-183621900D02*
X184672311Y-183550471D01*
X184672311Y-183550471D02*
X184672311Y-183693328D01*
X184672311Y-182764757D02*
X184743740Y-182836185D01*
X184743740Y-182836185D02*
X184672311Y-182907614D01*
X184672311Y-182907614D02*
X184600883Y-182836185D01*
X184600883Y-182836185D02*
X184672311Y-182764757D01*
X184672311Y-182764757D02*
X184672311Y-182907614D01*
X197002200Y-191507200D02*
X197002200Y-194507200D01*
X261002200Y-191507200D02*
X261002200Y-198007200D01*
D13*
%TO.C,U4*%
X122423500Y-90103500D02*
X122021500Y-90103500D01*
X122021500Y-89726500D01*
X122423500Y-89726500D01*
X122423500Y-90103500D01*
G36*
X122423500Y-90103500D02*
G01*
X122021500Y-90103500D01*
X122021500Y-89726500D01*
X122423500Y-89726500D01*
X122423500Y-90103500D01*
G37*
X122423500Y-91103500D02*
X122021500Y-91103500D01*
X122021500Y-90726501D01*
X122423499Y-90726500D01*
X122423500Y-91103500D01*
G36*
X122423500Y-91103500D02*
G01*
X122021500Y-91103500D01*
X122021500Y-90726501D01*
X122423499Y-90726500D01*
X122423500Y-91103500D01*
G37*
X122423500Y-91603500D02*
X122021500Y-91603500D01*
X122021500Y-91226500D01*
X122423500Y-91226500D01*
X122423500Y-91603500D01*
G36*
X122423500Y-91603500D02*
G01*
X122021500Y-91603500D01*
X122021500Y-91226500D01*
X122423500Y-91226500D01*
X122423500Y-91603500D01*
G37*
X122423499Y-90603500D02*
X122021500Y-90603499D01*
X122021500Y-90226500D01*
X122423500Y-90226500D01*
X122423499Y-90603500D01*
G36*
X122423499Y-90603500D02*
G01*
X122021500Y-90603499D01*
X122021500Y-90226500D01*
X122423500Y-90226500D01*
X122423499Y-90603500D01*
G37*
X121898500Y-90103500D02*
X121521501Y-90103500D01*
X121521500Y-89701501D01*
X121898500Y-89701500D01*
X121898500Y-90103500D01*
G36*
X121898500Y-90103500D02*
G01*
X121521501Y-90103500D01*
X121521500Y-89701501D01*
X121898500Y-89701500D01*
X121898500Y-90103500D01*
G37*
X121898500Y-91628500D02*
X121521500Y-91628499D01*
X121521501Y-91226500D01*
X121898500Y-91226500D01*
X121898500Y-91628500D01*
G36*
X121898500Y-91628500D02*
G01*
X121521500Y-91628499D01*
X121521501Y-91226500D01*
X121898500Y-91226500D01*
X121898500Y-91628500D01*
G37*
X121398500Y-91628499D02*
X121021500Y-91628500D01*
X121021500Y-91226500D01*
X121398499Y-91226500D01*
X121398500Y-91628499D01*
G36*
X121398500Y-91628499D02*
G01*
X121021500Y-91628500D01*
X121021500Y-91226500D01*
X121398499Y-91226500D01*
X121398500Y-91628499D01*
G37*
X121398499Y-90103500D02*
X121021500Y-90103500D01*
X121021500Y-89701500D01*
X121398500Y-89701501D01*
X121398499Y-90103500D01*
G36*
X121398500Y-89701501D02*
G01*
X121398499Y-90103500D01*
X121021500Y-90103500D01*
X121021500Y-89701500D01*
X121398500Y-89701501D01*
G37*
X120898500Y-90103500D02*
X120496500Y-90103500D01*
X120496500Y-89726500D01*
X120898500Y-89726500D01*
X120898500Y-90103500D01*
G36*
X120898500Y-90103500D02*
G01*
X120496500Y-90103500D01*
X120496500Y-89726500D01*
X120898500Y-89726500D01*
X120898500Y-90103500D01*
G37*
X120898500Y-90603499D02*
X120496501Y-90603500D01*
X120496500Y-90226500D01*
X120898500Y-90226500D01*
X120898500Y-90603499D01*
G36*
X120898500Y-90603499D02*
G01*
X120496501Y-90603500D01*
X120496500Y-90226500D01*
X120898500Y-90226500D01*
X120898500Y-90603499D01*
G37*
X120898500Y-91103500D02*
X120496500Y-91103500D01*
X120496501Y-90726500D01*
X120898500Y-90726501D01*
X120898500Y-91103500D01*
G36*
X120898500Y-90726501D02*
G01*
X120898500Y-91103500D01*
X120496500Y-91103500D01*
X120496501Y-90726500D01*
X120898500Y-90726501D01*
G37*
X120898500Y-91603500D02*
X120496500Y-91603500D01*
X120496500Y-91226500D01*
X120898500Y-91226500D01*
X120898500Y-91603500D01*
G36*
X120898500Y-91603500D02*
G01*
X120496500Y-91603500D01*
X120496500Y-91226500D01*
X120898500Y-91226500D01*
X120898500Y-91603500D01*
G37*
%TD*%
D14*
%TO.C,R9*%
X112310000Y-112940000D03*
X110660000Y-112940000D03*
%TD*%
D15*
%TO.C,J2*%
X139630000Y-94420000D03*
X139630000Y-88640000D03*
D16*
X138555000Y-94730000D03*
X138555000Y-93930000D03*
D17*
X138555000Y-92780000D03*
X138555000Y-91780000D03*
X138555000Y-91280000D03*
X138555000Y-90280000D03*
D16*
X138555000Y-89130000D03*
X138555000Y-88330000D03*
X138555000Y-88330000D03*
X138555000Y-89130000D03*
D17*
X138555000Y-89780000D03*
X138555000Y-90780000D03*
X138555000Y-92280000D03*
X138555000Y-93280000D03*
D16*
X138555000Y-93930000D03*
X138555000Y-94730000D03*
D18*
X139130000Y-95850000D03*
D19*
X143310000Y-95850000D03*
D18*
X139130000Y-87210000D03*
D19*
X143310000Y-87210000D03*
%TD*%
D20*
%TO.C,J5*%
X106000000Y-71410000D03*
D21*
X106000000Y-66410000D03*
%TD*%
D22*
%TO.C,C28*%
X131850000Y-114500000D03*
X133400000Y-114500000D03*
%TD*%
D23*
%TO.C,C4*%
X113423008Y-96948008D03*
X112326992Y-95851992D03*
%TD*%
D22*
%TO.C,C26*%
X109950000Y-74700000D03*
X111500000Y-74700000D03*
%TD*%
D24*
%TO.C,J10*%
X115850000Y-71500000D03*
D25*
X113350000Y-71500000D03*
%TD*%
D26*
%TO.C,R4*%
X136030000Y-91440000D03*
X134380000Y-91440000D03*
%TD*%
D27*
%TO.C,D3*%
X123650000Y-122700000D03*
X125225000Y-122700000D03*
%TD*%
D28*
%TO.C,D2*%
X135590000Y-83250000D03*
X135590000Y-87650000D03*
%TD*%
D22*
%TO.C,C7*%
X127825000Y-106600000D03*
X129375000Y-106600000D03*
%TD*%
D29*
%TO.C,CR4*%
X135882501Y-114481400D03*
X137182499Y-114481400D03*
X136532500Y-112398600D03*
%TD*%
%TO.C,CR2*%
X135950001Y-123591399D03*
X137249999Y-123591399D03*
X136600000Y-121508599D03*
%TD*%
D30*
%TO.C,U7*%
X138470000Y-100045000D03*
X137200000Y-100045000D03*
X135930000Y-100045000D03*
X134660000Y-100045000D03*
X134660000Y-104995000D03*
X135930000Y-104995000D03*
X137200000Y-104995000D03*
X138470000Y-104995000D03*
%TD*%
D22*
%TO.C,C8*%
X127910000Y-104930000D03*
X129460000Y-104930000D03*
%TD*%
D31*
%TO.C,Y1*%
X108560000Y-103432500D03*
X108560000Y-97532500D03*
X105860000Y-97532500D03*
X105860000Y-103432500D03*
%TD*%
D32*
%TO.C,J3*%
X135400000Y-117900000D03*
D25*
X137900000Y-117900000D03*
%TD*%
D33*
%TO.C,C9*%
X112348008Y-101451992D03*
X111251992Y-102548008D03*
%TD*%
D34*
%TO.C,C19*%
X112315000Y-115470000D03*
X110765000Y-115470000D03*
%TD*%
D35*
%TO.C,R6*%
X123450000Y-84335000D03*
X123450000Y-85985000D03*
%TD*%
D36*
%TO.C,U1*%
X115700000Y-96050000D03*
X115700000Y-96550000D03*
X115700000Y-97050000D03*
X115700000Y-97550000D03*
X115700000Y-98050000D03*
X115700000Y-98550000D03*
X115700000Y-99050000D03*
X115700000Y-99550000D03*
X115700000Y-100050000D03*
X115700000Y-100550000D03*
X115700000Y-101050000D03*
X115700000Y-101550000D03*
X115700000Y-102050000D03*
X115700000Y-102550000D03*
X115700000Y-103050000D03*
X115700000Y-103550000D03*
D37*
X117625000Y-105475000D03*
X118125000Y-105475000D03*
X118625000Y-105475000D03*
X119125000Y-105475000D03*
X119625000Y-105475000D03*
X120125000Y-105475000D03*
X120625000Y-105475000D03*
X121125000Y-105475000D03*
X121625000Y-105475000D03*
X122125000Y-105475000D03*
X122625000Y-105475000D03*
X123125000Y-105475000D03*
X123625000Y-105475000D03*
X124125000Y-105475000D03*
X124625000Y-105475000D03*
X125125000Y-105475000D03*
D36*
X127050000Y-103550000D03*
X127050000Y-103050000D03*
X127050000Y-102550000D03*
X127050000Y-102050000D03*
X127050000Y-101550000D03*
X127050000Y-101050000D03*
X127050000Y-100550000D03*
X127050000Y-100050000D03*
X127050000Y-99550000D03*
X127050000Y-99050000D03*
X127050000Y-98550000D03*
X127050000Y-98050000D03*
X127050000Y-97550000D03*
X127050000Y-97050000D03*
X127050000Y-96550000D03*
X127050000Y-96050000D03*
D37*
X125125000Y-94125000D03*
X124625000Y-94125000D03*
X124125000Y-94125000D03*
X123625000Y-94125000D03*
X123125000Y-94125000D03*
X122625000Y-94125000D03*
X122125000Y-94125000D03*
X121625000Y-94125000D03*
X121125000Y-94125000D03*
X120625000Y-94125000D03*
X120125000Y-94125000D03*
X119625000Y-94125000D03*
X119125000Y-94125000D03*
X118625000Y-94125000D03*
X118125000Y-94125000D03*
X117625000Y-94125000D03*
%TD*%
D29*
%TO.C,CR1*%
X115178499Y-65458600D03*
X113878501Y-65458600D03*
X114528500Y-67541400D03*
%TD*%
D38*
%TO.C,C18*%
X127400000Y-112075000D03*
X127400000Y-110525000D03*
%TD*%
D22*
%TO.C,C12*%
X105365000Y-115250000D03*
X106915000Y-115250000D03*
%TD*%
D35*
%TO.C,R27*%
X137432500Y-107140000D03*
X137432500Y-108790000D03*
%TD*%
D26*
%TO.C,R3*%
X136040000Y-93040000D03*
X134390000Y-93040000D03*
%TD*%
D38*
%TO.C,C31*%
X114500000Y-81300000D03*
X114500000Y-79750000D03*
%TD*%
D29*
%TO.C,CR3*%
X115149999Y-74717200D03*
X113850001Y-74717200D03*
X114500000Y-76800000D03*
%TD*%
D34*
%TO.C,C27*%
X139350000Y-114500000D03*
X140900000Y-114500000D03*
%TD*%
D35*
%TO.C,R28*%
X135592500Y-107120000D03*
X135592500Y-108770000D03*
%TD*%
D38*
%TO.C,C3*%
X115600000Y-107475000D03*
X115600000Y-105925000D03*
%TD*%
D39*
%TO.C,LS1*%
X111900000Y-127200000D03*
X118900000Y-127200000D03*
X111900000Y-120200000D03*
X118900000Y-120200000D03*
%TD*%
D22*
%TO.C,C32*%
X135725000Y-110500000D03*
X137275000Y-110500000D03*
%TD*%
D40*
%TO.C,TP1*%
X106150000Y-112010000D03*
%TD*%
D41*
%TO.C,C10*%
X113600000Y-103675000D03*
X113600000Y-105225000D03*
%TD*%
D42*
%TO.C,Q5*%
X111830000Y-111195000D03*
X111830000Y-109295000D03*
X109630000Y-110245000D03*
%TD*%
D43*
%TO.C,U5*%
X118325000Y-111730000D03*
X118325000Y-113000000D03*
X118325000Y-114270000D03*
X118325000Y-115540000D03*
X125500000Y-115540000D03*
X125500000Y-114270000D03*
X125500000Y-113000000D03*
X125500000Y-111730000D03*
%TD*%
D40*
%TO.C,TP2*%
X106140000Y-118140000D03*
%TD*%
D44*
%TO.C,D4*%
X113950000Y-115890000D03*
X115050000Y-115890000D03*
X115050000Y-114060000D03*
X113950000Y-114060000D03*
%TD*%
D34*
%TO.C,C20*%
X116575000Y-92300000D03*
X115025000Y-92300000D03*
%TD*%
D45*
%TO.C,R8*%
X113560000Y-110855000D03*
X113560000Y-109205000D03*
%TD*%
D24*
%TO.C,J11*%
X115800000Y-62100000D03*
D25*
X113300000Y-62100000D03*
%TD*%
D26*
%TO.C,R2*%
X135425000Y-89700000D03*
X133775000Y-89700000D03*
%TD*%
D46*
%TO.C,U6*%
X112570000Y-89445000D03*
X113840000Y-89445000D03*
X115110000Y-89445000D03*
X116380000Y-89445000D03*
X116380000Y-84495000D03*
X115110000Y-84495000D03*
X113840000Y-84495000D03*
X112570000Y-84495000D03*
%TD*%
D34*
%TO.C,C24*%
X119200000Y-65300000D03*
X117650000Y-65300000D03*
%TD*%
%TO.C,C25*%
X118800000Y-74700000D03*
X117250000Y-74700000D03*
%TD*%
D22*
%TO.C,C23*%
X110250000Y-65300000D03*
X111800000Y-65300000D03*
%TD*%
D45*
%TO.C,R24*%
X112600000Y-81300000D03*
X112600000Y-79650000D03*
%TD*%
D34*
%TO.C,C30*%
X141000000Y-122300000D03*
X139450000Y-122300000D03*
%TD*%
D32*
%TO.C,J9*%
X131600000Y-127200000D03*
D25*
X134100000Y-127200000D03*
%TD*%
D34*
%TO.C,C13*%
X107875000Y-105600000D03*
X106325000Y-105600000D03*
%TD*%
D22*
%TO.C,C14*%
X105985000Y-95332500D03*
X107535000Y-95332500D03*
%TD*%
%TO.C,C6*%
X127465000Y-94200000D03*
X129015000Y-94200000D03*
%TD*%
D26*
%TO.C,R7*%
X115620000Y-112560000D03*
X113970000Y-112560000D03*
%TD*%
%TO.C,R1*%
X136770000Y-95260000D03*
X135120000Y-95260000D03*
%TD*%
D34*
%TO.C,C5*%
X115275000Y-94000000D03*
X113725000Y-94000000D03*
%TD*%
D47*
%TO.C,SW1*%
X143230000Y-78480000D03*
X145440000Y-78480000D03*
D48*
X144340000Y-76330000D03*
X144340000Y-73330000D03*
D47*
X143230000Y-71180000D03*
X145440000Y-71180000D03*
D49*
X142580000Y-77080000D03*
X142580000Y-74080000D03*
X142580000Y-72580000D03*
%TD*%
D26*
%TO.C,R25*%
X107970000Y-108360000D03*
X106320000Y-108360000D03*
%TD*%
D50*
%TO.C,E1*%
X110850000Y-107449999D03*
X110850000Y-105850001D03*
%TD*%
D22*
%TO.C,C22*%
X134500000Y-97940000D03*
X136050000Y-97940000D03*
%TD*%
D14*
%TO.C,R5*%
X123650000Y-125200000D03*
X125300000Y-125200000D03*
%TD*%
D45*
%TO.C,R26*%
X116425000Y-81345000D03*
X116425000Y-79695000D03*
%TD*%
D22*
%TO.C,C11*%
X124825000Y-107900000D03*
X126375000Y-107900000D03*
%TD*%
D51*
%TO.C,J1*%
X135500000Y-59000000D03*
D21*
X135500000Y-64000000D03*
%TD*%
D22*
%TO.C,C29*%
X131750000Y-122400000D03*
X133300000Y-122400000D03*
%TD*%
D52*
%TO.C,J4*%
X138830000Y-79720000D03*
D53*
X136290000Y-79720000D03*
X133750000Y-79720000D03*
X131210000Y-79720000D03*
%TD*%
D54*
%TO.C,J7*%
X106190000Y-91030000D03*
D55*
X106190000Y-87220000D03*
%TD*%
D38*
%TO.C,C16*%
X123870000Y-89740000D03*
X123870000Y-88190000D03*
%TD*%
D54*
%TO.C,J12*%
X106110000Y-82210000D03*
D55*
X106110000Y-78400000D03*
%TD*%
D38*
%TO.C,C17*%
X121190000Y-88600000D03*
X121190000Y-87050000D03*
%TD*%
D56*
%TO.C,REF\u002A\u002A*%
X106000000Y-127000000D03*
%TD*%
%TO.C,REF\u002A\u002A*%
X142500000Y-127100000D03*
%TD*%
%TO.C,REF\u002A\u002A*%
X142600000Y-58400000D03*
%TD*%
%TO.C,REF\u002A\u002A*%
X105900000Y-58400000D03*
%TD*%
M02*
